<svg width="737" height="199" viewBox="0 0 737 199" fill="none" xmlns="http://www.w3.org/2000/svg"><g id="Group"><path id="translate_3" style="transform-origin: center; transform-box: fill-box; animation: translateY 2s linear infinite alternate;" d="M235.2 86.9L334.6 186.3L377.6 143.3L278.2 43.9L278.3 43.8L235.3 0.799988L235.2 0.899994L235.1 0.799988L192.1 43.8L192.2 43.9L188.8 47.3L185.5 44L185.7 43.8L142.7 0.799988L142.5 1L142.3 0.799988L99.3 43.8L99.5 44L0.200012 143.3L43.2 186.3L142.5 87L145.8 90.3L172 116.4L145.2 143.2L189 187.1L232.8 143.2L205.8 116.2L231.8 90.3L235.2 86.9Z" fill="#5333F8"/><g id="Group_2"><g id="Group_3"><path id="translate_2" style="transform-origin: center; transform-box: fill-box; animation: translateX 2s linear infinite alternate;" d="M172 116.4L142.6 87L88.4 141.2L144.9 199L172 170.1L145.2 143.2L172 116.4Z" fill="#18E98B"/><path id="translate_1" style="transform-origin: center; transform-box: fill-box; animation: translateXR 2s linear infinite alternate;" d="M205.8 116.4L235.3 87L289.4 141.2L233 199L205.8 170.1L232.6 143.2L205.8 116.4Z" fill="#18E98B"/></g></g><g id="Group_4"><g id="Group_5"><path id="Vector" d="M419.5 6.79999C419.5 6.09999 419.9 5.70001 420.6 5.70001H430.2C431.1 5.70001 431.7 6.09999 432 6.79999L452.2 52H452.6L472.5 6.79999C472.8 6.09999 473.4 5.70001 474.3 5.70001H483.8C484.5 5.70001 484.9 6.09999 484.9 6.79999V78C484.9 78.7 484.5 79.1 483.8 79.1H474.4C473.7 79.1 473.3 78.7 473.3 78V33.1H472.9L457.4 67.6C457 68.5 456.3 69 455.3 69H449C448.1 69 447.4 68.5 446.9 67.6L431.4 33.1H431V78C431 78.7 430.6 79.1 429.9 79.1H420.5C419.8 79.1 419.4 78.7 419.4 78V6.79999H419.5Z" fill="#fff"/><path id="Vector_2" d="M502 17.3C501.3 17.3 500.9 16.9 500.9 16.2V6.79999C500.9 6.09999 501.3 5.70001 502 5.70001H511.9C512.6 5.70001 513 6.09999 513 6.79999V16.2C513 16.9 512.6 17.3 511.9 17.3H502ZM502 79.1C501.3 79.1 500.9 78.7 500.9 78V28.1C500.9 27.4 501.3 27 502 27H511.9C512.6 27 513 27.4 513 28.1V78C513 78.7 512.6 79.1 511.9 79.1H502Z" fill="#fff"/><path id="Vector_3" d="M547.9 80.3C542.6 80.3 538.1 79.4 534.4 77.7C530.7 76 527.8 74.1 525.6 72.1C525.1 71.6 525.1 71.1 525.6 70.6L531.8 64.1C532.3 63.6 532.8 63.6 533.3 64.1C535.2 65.8 537.5 67.2 540.3 68.4C543.1 69.5 545.8 70.1 548.6 70.1C551.8 70.1 554.2 69.5 555.8 68.4C557.4 67.2 558.2 65.8 558.2 64C558.2 62.4 557.6 61.2 556.4 60.2C555.2 59.3 552.9 58.6 549.5 58.3L543.9 57.8C538.6 57.2 534.6 55.6 531.9 53C529.2 50.4 527.9 46.9 527.9 42.4C527.9 37.4 529.6 33.4 533.1 30.4C536.6 27.4 541.6 26 548.1 26C552.2 26 555.9 26.6 559.2 27.8C562.5 29 565.3 30.5 567.6 32.4C568.2 32.8 568.2 33.3 567.8 33.9L562.5 40.3C562.1 40.8 561.6 40.9 561 40.5C559.3 39.3 557.3 38.3 554.9 37.5C552.5 36.6 550 36.2 547.4 36.2C544.8 36.2 542.8 36.7 541.5 37.7C540.2 38.7 539.5 40 539.5 41.6C539.5 43.1 540.1 44.3 541.2 45.2C542.4 46.1 544.6 46.7 548 47.1L553.6 47.6C559.1 48.2 563.1 49.8 565.7 52.4C568.3 55 569.6 58.5 569.6 62.8C569.6 68 567.8 72.2 564.1 75.5C560.6 78.7 555.1 80.3 547.9 80.3Z" fill="#fff"/><path id="Vector_4" d="M613.5 79.1C612.8 79.1 612.4 78.7 612.4 78V74.2H612.3C611.1 76 609.2 77.5 606.8 78.6C604.4 79.7 601.3 80.3 597.6 80.3C595.2 80.3 593 80 590.9 79.3C588.8 78.7 586.9 77.7 585.3 76.4C583.7 75.1 582.5 73.5 581.5 71.5C580.6 69.5 580.1 67.2 580.1 64.4C580.1 58.7 582 54.5 585.7 51.9C589.4 49.2 594.5 47.9 601 47.9H611.6C612 47.9 612.2 47.7 612.2 47.3V44.8C612.2 41.8 611.4 39.6 609.7 38.2C608 36.8 605 36.1 600.6 36.1C597.6 36.1 595.2 36.4 593.4 37.1C591.5 37.8 590 38.6 588.8 39.6C588.2 40.1 587.6 40 587.3 39.4L583.3 32.3C582.9 31.7 583 31.3 583.5 30.9C585.6 29.4 588.1 28.2 591.1 27.2C594.1 26.3 597.7 25.8 602 25.8C609.9 25.8 615.5 27.2 618.8 30.1C622.1 33 623.7 37.6 623.7 43.9V77.9C623.7 78.6 623.3 79 622.6 79H613.5V79.1ZM600.6 70.5C604.3 70.5 607.2 69.8 609.2 68.3C611.2 66.9 612.2 64.6 612.2 61.6V57.6C612.2 57.2 612 57 611.6 57H603C599.1 57 596.3 57.6 594.5 58.7C592.7 59.8 591.8 61.6 591.8 64C591.7 68.3 594.7 70.5 600.6 70.5Z" fill="#fff"/><path id="Vector_5" d="M640 79.1C639.3 79.1 638.9 78.7 638.9 78V28.1C638.9 27.4 639.3 27 640 27H649.9C650.6 27 651 27.4 651 28.1V32.5H651.1C652.3 30.5 654.1 28.9 656.3 27.6C658.5 26.4 661.3 25.8 664.6 25.8C666.7 25.8 668.7 26.2 670.6 26.9C672.5 27.7 674.1 28.7 675.5 30.1C676 30.6 676.1 31.1 675.7 31.6L670 39C669.6 39.6 669.1 39.6 668.5 39.2C667.3 38.4 666.1 37.8 664.8 37.4C663.6 37 662.2 36.8 660.8 36.8C657.3 36.8 654.8 38 653.3 40.3C651.8 42.6 651 45.8 651 50V78C651 78.7 650.6 79.1 649.9 79.1H640Z" fill="#fff"/><path id="Vector_6" d="M715.6 79.1C714.9 79.1 714.5 78.7 714.5 78V74.2H714.4C713.2 76 711.3 77.5 708.9 78.6C706.5 79.7 703.4 80.3 699.7 80.3C697.3 80.3 695.1 80 693 79.3C690.9 78.7 689 77.7 687.4 76.4C685.8 75.1 684.6 73.5 683.6 71.5C682.7 69.5 682.2 67.2 682.2 64.4C682.2 58.7 684.1 54.5 687.8 51.9C691.5 49.2 696.6 47.9 703.1 47.9H713.7C714.1 47.9 714.3 47.7 714.3 47.3V44.8C714.3 41.8 713.5 39.6 711.8 38.2C710.1 36.8 707.1 36.1 702.7 36.1C699.7 36.1 697.3 36.4 695.5 37.1C693.6 37.8 692.1 38.6 690.9 39.6C690.3 40.1 689.7 40 689.4 39.4L685.4 32.3C685 31.7 685.1 31.3 685.6 30.9C687.7 29.4 690.2 28.2 693.2 27.2C696.2 26.3 699.8 25.8 704.1 25.8C712 25.8 717.6 27.2 720.9 30.1C724.2 33 725.8 37.6 725.8 43.9V77.9C725.8 78.6 725.4 79 724.7 79H715.6V79.1ZM702.8 70.5C706.5 70.5 709.4 69.8 711.4 68.3C713.4 66.9 714.4 64.6 714.4 61.6V57.6C714.4 57.2 714.2 57 713.8 57H705C701.1 57 698.3 57.6 696.5 58.7C694.7 59.8 693.8 61.6 693.8 64C693.8 68.3 696.8 70.5 702.8 70.5Z" fill="#fff"/><path id="Vector_7" d="M419.5 107C419.5 106.3 419.9 105.9 420.6 105.9H431.2C431.9 105.9 432.3 106.3 432.3 107V135.9C432.3 136.3 432.5 136.5 432.9 136.5H460.9C461.3 136.5 461.5 136.3 461.5 135.9V107C461.5 106.3 461.9 105.9 462.6 105.9H473.2C473.9 105.9 474.3 106.3 474.3 107V178.3C474.3 179 473.9 179.4 473.2 179.4H462.6C461.9 179.4 461.5 179 461.5 178.3V148.7C461.5 148.3 461.3 148.1 460.9 148.1H432.9C432.5 148.1 432.3 148.3 432.3 148.7V178.3C432.3 179 431.9 179.4 431.2 179.4H420.6C419.9 179.4 419.5 179 419.5 178.3V107Z" fill="#fff"/><path id="Vector_8" d="M521.2 179.3C520.5 179.3 520.1 178.9 520.1 178.2V174.4H520C518.8 176.2 516.9 177.7 514.5 178.8C512.1 179.9 509 180.5 505.3 180.5C502.9 180.5 500.7 180.2 498.6 179.5C496.5 178.9 494.6 177.9 493 176.6C491.4 175.3 490.2 173.7 489.2 171.7C488.3 169.7 487.8 167.4 487.8 164.6C487.8 158.9 489.7 154.7 493.4 152.1C497.1 149.4 502.2 148.1 508.7 148.1H519.3C519.7 148.1 519.9 147.9 519.9 147.5V145C519.9 142 519.1 139.8 517.4 138.4C515.7 137 512.7 136.3 508.3 136.3C505.3 136.3 502.9 136.6 501.1 137.3C499.2 138 497.7 138.8 496.5 139.8C495.9 140.3 495.3 140.2 495 139.6L491 132.5C490.6 131.9 490.7 131.5 491.2 131.1C493.3 129.6 495.8 128.4 498.8 127.4C501.8 126.5 505.4 126 509.7 126C517.6 126 523.2 127.4 526.5 130.3C529.8 133.2 531.4 137.8 531.4 144.1V178.1C531.4 178.8 531 179.2 530.3 179.2H521.2V179.3ZM508.3 170.7C512 170.7 514.9 170 516.9 168.5C518.9 167.1 519.9 164.8 519.9 161.8V157.8C519.9 157.4 519.7 157.2 519.3 157.2H510.7C506.8 157.2 504 157.8 502.2 158.9C500.4 160 499.5 161.8 499.5 164.2C499.4 168.5 502.4 170.7 508.3 170.7Z" fill="#fff"/><path id="Vector_9" d="M611.4 179.3C610.7 179.3 610.3 178.9 610.3 178.2V148.2C610.3 144.8 609.5 142.1 607.8 140C606.1 137.9 603.7 136.9 600.5 136.9C597.3 136.9 594.9 137.9 593.2 140C591.5 142.1 590.6 144.8 590.6 148.2V178.2C590.6 178.9 590.2 179.3 589.5 179.3H579.6C578.9 179.3 578.5 178.9 578.5 178.2V148.2C578.5 144.8 577.7 142.1 576 140C574.3 137.9 571.9 136.9 568.7 136.9C565.5 136.9 563.1 137.9 561.4 140C559.7 142.1 558.8 144.8 558.8 148.2V178.2C558.8 178.9 558.4 179.3 557.7 179.3H547.8C547.1 179.3 546.7 178.9 546.7 178.2V128.3C546.7 127.6 547.1 127.2 547.8 127.2H557.7C558.4 127.2 558.8 127.6 558.8 128.3V132.1H558.9C560.1 130.4 561.8 129 564 127.8C566.3 126.6 569.1 126 572.6 126C575.7 126 578.4 126.6 580.9 127.8C583.3 129 585.3 130.7 586.9 132.9H587C589 130.7 591.4 129.1 594 127.8C596.7 126.6 599.9 126 603.6 126C606.6 126 609.3 126.5 611.6 127.5C613.9 128.5 615.9 129.8 617.5 131.5C619.1 133.2 620.3 135.3 621.2 137.6C622 139.9 622.4 142.5 622.4 145.3V178.1C622.4 178.8 622 179.2 621.3 179.2H611.4V179.3Z" fill="#fff"/><path id="Vector_10" d="M658.4 180.5C652.9 180.5 648.2 179.2 644.5 176.7C640.8 174.1 638.2 170.6 636.7 166.1C636.1 164.4 635.7 162.6 635.4 160.5C635.1 158.4 634.9 156.1 634.9 153.3C634.9 150.6 635 148.2 635.3 146.1C635.6 144 636 142.1 636.6 140.5C638 136 640.6 132.4 644.4 129.9C648.2 127.4 652.7 126.1 657.8 126.1C663.2 126.1 667.7 127.4 671.5 129.9C675.2 132.5 677.8 136 679.2 140.4C679.5 141.3 679.7 142.3 680 143.2C680.2 144.1 680.4 145.2 680.5 146.4C680.6 147.6 680.8 149 680.8 150.6C680.9 152.1 680.9 154 680.9 156.1C680.9 156.8 680.5 157.2 679.7 157.2H647.6C647.2 157.2 647 157.4 647 157.8C647 158.6 647.1 159.3 647.2 160C647.3 160.6 647.5 161.3 647.7 161.8C649.5 167.1 653.4 169.7 659.4 169.7C662.4 169.7 664.8 169.2 666.7 168.3C668.6 167.4 670.3 166.2 671.6 164.7C672.2 164.1 672.7 164.1 673.2 164.5L679.6 170.1C680.1 170.5 680.1 171 679.7 171.6C677.5 174.2 674.6 176.3 671 178C667.4 179.7 663.2 180.5 658.4 180.5ZM668.8 147.5C668.8 145.8 668.6 144.4 668.2 143.1C667.5 141 666.2 139.4 664.4 138.2C662.6 137 660.5 136.4 658 136.4C655.5 136.4 653.3 137 651.5 138.2C649.7 139.4 648.4 141 647.7 143.1C647.3 144.4 647.1 145.9 647.1 147.5C647.1 147.9 647.3 148.1 647.7 148.1H668.1C668.5 148.1 668.8 147.9 668.8 147.5Z" fill="#fff"/><path id="Vector_11" d="M726 179.3C725.3 179.3 724.9 178.9 724.9 178.2V174.3H724.8C723.6 176.1 721.8 177.6 719.6 178.7C717.4 179.9 714.5 180.4 711 180.4C706.5 180.4 702.8 179.4 699.7 177.3C696.6 175.2 694.4 172.1 693 167.9C692.4 165.9 691.9 163.8 691.6 161.7C691.3 159.6 691.2 156.8 691.2 153.2C691.2 149.7 691.3 146.8 691.6 144.7C691.9 142.6 692.4 140.5 693 138.5C694.4 134.3 696.6 131.2 699.7 129.1C702.8 127 706.6 126 711 126C714.5 126 717.4 126.6 719.6 127.7C721.8 128.9 723.6 130.3 724.8 132.1H724.9V107C724.9 106.3 725.3 105.9 726 105.9H735.9C736.6 105.9 737 106.3 737 107V178.3C737 179 736.6 179.4 735.9 179.4H726V179.3ZM714.1 169.7C719.1 169.7 722.4 167.5 723.8 163C724.2 161.8 724.4 160.4 724.6 159C724.8 157.6 724.9 155.7 724.9 153.3C724.9 150.9 724.8 149 724.6 147.6C724.4 146.2 724.1 144.8 723.8 143.6C722.4 139.1 719.1 136.9 714.1 136.9C709.1 136.9 705.9 139.1 704.5 143.6C704.1 144.8 703.9 146.2 703.7 147.6C703.5 149 703.4 150.9 703.4 153.3C703.4 155.7 703.5 157.6 703.7 159C703.9 160.4 704.1 161.8 704.5 163C705.9 167.5 709.1 169.7 714.1 169.7Z" fill="#fff"/></g></g></g><style> @keyframes translateX { 0%, 100% { transform: translateX(0px); } 50% { transform: translateX(2px); } } @keyframes translateXR { 0%, 100% { transform: translateX(0px); } 50% { transform: translateX(-2px); } } @keyframes translateY { 0%, 100% { transform: translateY(0px); } 50% { transform: translateY(-4px); } }</style></svg>