<svg xmlns="http://www.w3.org/2000/svg" width="156" height="52" xmlns:v="https://vecta.io/nano"><path d="M12.43 0l-1.427.003-1.198.017c-.875.01-1.749.087-2.612.23s-1.698.421-2.478.815a8.39 8.39 0 0 0-2.11 1.532c-.622.616-1.141 1.327-1.536 2.107S.397 6.317.253 7.178.03 8.908.02 9.781L0 10.978v30.048l.02 1.198c.01.872.088 1.742.234 2.602s.418 1.697.815 2.476a8.07 8.07 0 0 0 1.536 2.099 8.18 8.18 0 0 0 2.11 1.532c.78.396 1.616.672 2.478.82a17.59 17.59 0 0 0 2.612.23l1.198.014L12.43 52h131.147l1.413-.003 1.202-.014a17.36 17.36 0 0 0 2.607-.23 8.89 8.89 0 0 0 2.488-.82c.78-.395 1.492-.912 2.108-1.532.621-.615 1.141-1.323 1.54-2.099a8.57 8.57 0 0 0 .807-2.476 17.51 17.51 0 0 0 .242-2.602l.005-1.198.01-1.422V12.397l-.01-1.419-.005-1.197a17.51 17.51 0 0 0-.242-2.603c-.142-.861-.414-1.695-.807-2.474a8.42 8.42 0 0 0-3.649-3.64 8.84 8.84 0 0 0-2.488-.815 17.05 17.05 0 0 0-2.607-.23L144.99.003 143.577 0" fill="#a6a6a6"/><path d="M144.984 1.138l1.19.017a16.19 16.19 0 0 1 2.423.211c.758.128 1.492.368 2.178.712a7.28 7.28 0 0 1 3.148 3.146c.34.675.575 1.398.698 2.144.135.811.211 1.631.227 2.453l.004 1.157.01 1.419v27.207l-.01 1.398-.005 1.209c-.015.808-.09 1.613-.223 2.41-.122.755-.359 1.488-.704 2.171-.344.666-.79 1.274-1.324 1.801-.533.538-1.149.987-1.824 1.329-.685.346-1.418.587-2.174.715-.806.131-1.62.202-2.437.212l-1.17.014-1.413.003-132.568-.003a52.2 52.2 0 0 1-1.179-.014c-.816-.011-1.631-.081-2.437-.212-.751-.129-1.479-.369-2.16-.712-.674-.34-1.289-.787-1.821-1.322a6.92 6.92 0 0 1-1.33-1.815c-.345-.678-.584-1.404-.708-2.154-.134-.806-.207-1.621-.217-2.437l-.019-1.187V10.978l.019-1.163a16.04 16.04 0 0 1 .216-2.434c.124-.752.363-1.481.708-2.161.34-.673.787-1.287 1.323-1.817s1.153-.984 1.828-1.329 1.405-.58 2.155-.707a16.45 16.45 0 0 1 2.445-.213l1.176-.016" fill="#000"/><g fill="#fff"><path d="M139.829 26.39a6.43 6.43 0 0 1 3.072-5.398 6.61 6.61 0 0 0-5.203-2.805c-2.189-.229-4.311 1.306-5.427 1.306-1.137 0-2.855-1.284-4.704-1.246a6.93 6.93 0 0 0-5.831 3.546c-2.521 4.353-.641 10.75 1.775 14.269 1.208 1.723 2.621 3.648 4.468 3.579 1.808-.075 2.484-1.15 4.666-1.15 2.162 0 2.796 1.15 4.681 1.106 1.94-.031 3.163-1.731 4.329-3.47.868-1.228 1.536-2.585 1.979-4.02-2.305-.972-3.803-3.224-3.806-5.719h0zm-3.562-10.516a6.32 6.32 0 0 0 1.453-4.538 6.47 6.47 0 0 0-4.182 2.157 6.02 6.02 0 0 0-1.491 4.37 5.35 5.35 0 0 0 4.22-1.989h0zM22.42 35.281h-6.17l-1.482 4.363h-2.614l5.845-16.143h2.716l5.845 16.143h-2.658l-1.481-4.363zm-5.532-2.013h4.891l-2.411-7.081h-.067l-2.413 7.081zm22.294.492c0 3.658-1.963 6.007-4.926 6.007-1.531.08-2.974-.72-3.714-2.059h-.056v5.83h-2.423V27.875h2.345v1.958h.045a4.19 4.19 0 0 1 3.758-2.081c2.996 0 4.97 2.361 4.97 6.009zm-2.49 0c0-2.383-1.235-3.95-3.119-3.95-1.851 0-3.096 1.6-3.096 3.95 0 2.371 1.245 3.96 3.096 3.96 1.884 0 3.119-1.555 3.119-3.96h0zm15.48 0c0 3.658-1.963 6.007-4.926 6.007-1.531.08-2.974-.72-3.714-2.059h-.056v5.83h-2.423V27.875H43.4v1.958h.045a4.19 4.19 0 0 1 3.758-2.081c2.996 0 4.97 2.361 4.97 6.009zm-2.49 0c0-2.383-1.235-3.95-3.119-3.95-1.851 0-3.096 1.6-3.096 3.95 0 2.371 1.245 3.96 3.096 3.96 1.884 0 3.119-1.555 3.119-3.96zm11.076 1.387c.18 1.601 1.739 2.652 3.87 2.652 2.042 0 3.511-1.051 3.511-2.495 0-1.253-.886-2.003-2.984-2.517l-2.098-.504c-2.973-.716-4.353-2.102-4.353-4.352 0-2.785 2.434-4.699 5.891-4.699 3.421 0 5.766 1.913 5.845 4.699h-2.446c-.146-1.611-1.482-2.583-3.434-2.583s-3.287.984-3.287 2.416c0 1.141.853 1.813 2.94 2.327l1.784.437c3.322.783 4.702 2.114 4.702 4.475 0 3.02-2.413 4.912-6.25 4.912-3.59 0-6.014-1.847-6.171-4.767h2.48zm15.169-10.058v2.785h2.244v1.913h-2.244v6.489c0 1.008.449 1.478 1.436 1.478a7.59 7.59 0 0 0 .797-.056V39.6a6.67 6.67 0 0 1-1.346.112c-2.39 0-3.322-.895-3.322-3.178v-6.746h-1.716v-1.913h1.716V25.09h2.434zm3.544 8.671c0-3.703 2.187-6.03 5.598-6.03 3.422 0 5.599 2.327 5.599 6.03 0 3.713-2.166 6.03-5.599 6.03s-5.598-2.317-5.598-6.03zm8.728 0c0-2.54-1.167-4.04-3.131-4.04s-3.129 1.511-3.129 4.04c0 2.55 1.166 4.038 3.129 4.038S88.2 36.311 88.2 33.76h0zm4.467-5.885h2.311v2.003h.056c.322-1.29 1.507-2.177 2.839-2.126.279-.001.558.029.83.09v2.26a3.4 3.4 0 0 0-1.089-.146c-.712-.029-1.402.254-1.887.775a2.43 2.43 0 0 0-.638 1.933v6.981h-2.423v-11.77zm17.206 8.313c-.326 2.137-2.413 3.603-5.082 3.603-3.434 0-5.565-2.294-5.565-5.974 0-3.692 2.143-6.086 5.463-6.086 3.265 0 5.319 2.237 5.319 5.806v.828h-8.336v.146a3.06 3.06 0 0 0 .833 2.381 3.08 3.08 0 0 0 2.342.952 2.67 2.67 0 0 0 2.726-1.655h2.3zm-8.19-3.513h5.901c.042-.75-.217-1.485-.718-2.044a2.84 2.84 0 0 0-1.958-.939l-.219-.004a2.99 2.99 0 0 0-2.118.86c-.564.555-.883 1.311-.888 2.102v.025zM70.128 20.908h-.852c-1.658 0-3.407-.34-3.407-2.628.111-1.029.348-2.041.704-3.013l1.102.295-.159.51a10.28 10.28 0 0 0-.465 2.208c0 1.574 1.511 1.574 2.533 1.574h.715c.511 0 1.215-.204 1.215-.849v-4.474h1.216v3.353c.262.111.544.165.829.158h.42v1.042h-.42a2.96 2.96 0 0 1-.829-.124v.159c0 .589-.454 1.789-2.601 1.789zm-.693-7.6a.73.73 0 0 1-.694-.754.73.73 0 0 1 .742-.707.73.73 0 0 1 .724.725.72.72 0 0 1-.701.738c-.024.001-.048 0-.071-.002h0z"/><path d="M75.35 18.042a5.21 5.21 0 0 1-.194-1.529c-.073-.691.156-1.38.628-1.891a2.43 2.43 0 0 1 1.837-.782c1.613 0 2.238 1.314 2.238 2.877 0 1.155-.409 2.718-1.988 2.718a5.98 5.98 0 0 1-1.522-.351H73.77v-1.042h1.579zm1.227.046a3.68 3.68 0 0 0 1.215.283c.704 0 .898-.895.898-1.688 0-.759-.216-1.846-1.136-1.846-.829 0-1.192.77-1.192 1.744-.015.511.058 1.02.216 1.506h0zm11.299 2.82h-.852c-1.659 0-3.408-.34-3.408-2.628.112-1.029.348-2.041.704-3.013l1.102.295-.159.51a10.28 10.28 0 0 0-.466 2.208c0 1.574 1.511 1.574 2.533 1.574h.715c.511 0 1.215-.204 1.215-.849V11.45h1.216v6.434a2.01 2.01 0 0 0 .829.158h.42v1.042h-.42c-.281-.002-.56-.044-.829-.124v.159c0 .589-.454 1.789-2.601 1.789z"/><path d="M95.812 13.897v3.183c0 1.348-.807 2.005-2.409 2.005h-1.885v-1.042h1.841c.965 0 1.226-.419 1.226-1.132v-3.013h1.227zm-3.044 7.724a.73.73 0 0 1-.693-.754.73.73 0 0 1 .742-.707.73.73 0 0 1 .724.725.72.72 0 0 1-.773.736h0zm1.908 0a.73.73 0 0 1-.695-.754c.013-.398.342-.712.742-.708a.73.73 0 0 1 .725.725.72.72 0 0 1-.771.736h0zm2.043-.837a4.56 4.56 0 0 0 .522.034c1.001 0 1.5-.578 1.5-1.744V14.52h1.227v3.522h1.124v1.042h-1.136a3.05 3.05 0 0 1-.784 2.095 2.89 2.89 0 0 1-1.976.668 6.91 6.91 0 0 1-.773-.056l.295-1.008zm2.578-7.363a.73.73 0 0 1-.693-.754.73.73 0 0 1 .742-.707.73.73 0 0 1 .724.725c.006.203-.075.399-.222.539a.72.72 0 0 1-.55.197h0z"/><path d="M105.122 19.085a3.07 3.07 0 0 1-1.397-.385 3.4 3.4 0 0 1-1.92.385h-.92v-1.042h.989c.931 0 1.113-.147 1.113-.826v-3.319h1.216v3.941c.287.137.601.207.919.204h.761v1.042h-.761zm-1.579-6.32a.73.73 0 0 1-.693-.754c.013-.398.343-.712.742-.707s.721.327.724.725c.006.203-.075.399-.222.539a.72.72 0 0 1-.55.197h0z"/><path d="M108.79 13.897v3.183c0 1.348-.806 2.005-2.407 2.005h-.705v-1.042h.659c.965 0 1.226-.419 1.226-1.132v-3.013h1.227zm-1.807-1.133a.73.73 0 0 1-.693-.754c.013-.398.343-.712.742-.707s.721.327.724.725c.006.203-.075.399-.222.539a.72.72 0 0 1-.55.197zm1.908 0a.73.73 0 0 1-.693-.754c.013-.398.343-.712.742-.707s.721.327.724.725c.006.203-.075.399-.222.539a.72.72 0 0 1-.55.197h0z"/></g></svg>