<svg width="350" height="277" viewBox="0 0 350 277" fill="none" xmlns="http://www.w3.org/2000/svg">
<style>
  #car,#transalte_1,#transalte_2,#transalte_3{transform-box:fill-box;transform-origin:center}#transalte_1,#transalte_3{animation:translateX 2s linear infinite}#transalte_2{animation:translateXReverse 2s linear infinite}#car{animation:car 2s linear infinite}@keyframes translateX{0%,100%{transform:translateX(2px)}50%{transform:translateX(-2px)}}@keyframes car{0%,100%{transform:translateX(2px) translateY(0)}50%{transform:translateX(-2px) translateY(-2px)}}@keyframes translateXReverse{0%,100%{transform:translateX(-2px)}50%{transform:translateX(2px)}}
</style>
<g id="@0.5xAsset 4 1" clip-path="url(#clip0)">
<g id="Page-1">
<g id="Landing-Page-FAQ-More">
<g id="Group-20">
<g id="Asset-4">
<g id="Group" opacity="0.37">
<g id="Path" opacity="0.41">
<path id="Vector" opacity="0.41" d="M347.256 203.533C350.746 199.23 350.946 192.69 347.631 188.914C344.316 185.138 336.465 182.937 332.949 187.241C329.433 191.544 334.432 197.682 335.627 203.068C337.337 210.565 343.767 207.828 347.256 203.533Z" fill="#FF5723"/>
</g>
<g id="Path_2" opacity="0.41">
<path id="Vector_2" opacity="0.41" d="M229.277 26.4777C229.57 24.5815 228.482 22.7436 226.685 22.1027C224.998 21.6145 222.248 22.45 222.024 24.3747C221.801 26.2993 224.374 27.1912 225.753 28.5338C227.618 30.4208 229.007 28.4023 229.277 26.4777Z" fill="#FF5723"/>
</g>
<g id="Path_3" opacity="0.41">
<path id="Vector_3" opacity="0.41" d="M117.48 10.0101C114.839 3.16203 107.368 -1.19424 100.781 0.290252C94.193 1.77474 86.4247 9.49761 89.0652 16.3369C91.7057 23.1761 102.16 21.2586 109.198 23.2821C119.003 26.0832 120.111 16.8494 117.48 10.0101Z" fill="#FF5723"/>
</g>
<g id="Path_4" opacity="0.41">
<path id="Vector_4" opacity="0.41" d="M13.182 154.917C9.66732 156.898 8.04801 161.631 9.57532 165.486C11.1026 169.341 16.255 173.541 19.7697 171.561C23.2843 169.58 21.0854 163.426 21.4534 159.127C21.9594 153.025 16.7058 152.928 13.182 154.917Z" fill="#FF5723"/>
</g>
<g id="Path_5" opacity="0.28">
<path id="Vector_5" opacity="0.28" d="M327.231 250.473C330.533 231.106 325.241 214.593 323.92 195.607C322.662 177.632 328.079 162.51 331.06 145.395C333.737 130.158 332.845 112.9 329.489 97.9207C324.902 77.4811 314.318 58.5483 299.146 47.0078C275.452 29.0234 243.86 31.1418 217.685 43.4623C206.752 48.6919 196.132 55.5878 184.397 57.3073C167.28 59.8512 150.609 51.156 133.929 45.9353C111.226 38.8443 86.3088 38.3036 64.8813 49.4807C40.5981 62.2533 23.3294 90.9893 25.3463 122.571C26.2388 136.894 30.933 151.032 29.282 165.258C27.6042 179.688 20.3576 191.769 16.4755 205.357C11.219 223.909 10.746 251.182 19.1528 270H321.538C324.185 263.73 326.096 257.178 327.231 250.473Z" fill="#FF5723"/>
</g>
<g id="Path_6" opacity="0.84">
<g id="Group_2" opacity="0.47">
<path id="Vector_6" opacity="0.47" d="M58.6148 180.643C59.686 167.601 64.8634 154.551 73.7899 145.211C87.7331 130.678 108.817 127.011 127.349 130.376C135.097 131.779 142.774 134.273 150.701 133.492C162.26 132.347 172.455 124.499 182.979 118.746C197.306 110.915 213.74 106.698 228.968 110.108C247.125 114.178 260.534 129.483 262.103 147.928C262.862 156.699 255.087 172.156 257.542 180.474C259.997 188.793 278.216 214.743 277.769 234.39C277.323 254.037 273.137 260.057 267.209 270H73.9148C70.2282 259.924 67.3449 251.862 71.6564 238.625C75.1021 228.043 65.7382 219.333 62.114 209.488C58.8915 200.725 57.8293 190.187 58.6148 180.643Z" fill="#FF5723"/>
</g>
</g>
</g>
<path id="transalte_1" d="M34.245 128H1.8C0.805887 128 0 127.105 0 126C0 124.895 0.805887 124 1.8 124H34.2C35.1941 124 36 124.895 36 126C36 127.105 35.1941 128 34.2 128H34.245Z" fill="#19797E"/>
<path id="transalte_2" d="M35.1416 151H10.8584C9.83204 151 9 150.105 9 149C9 147.895 9.83204 147 10.8584 147H35.1416C36.168 147 37 147.895 37 149C37 150.105 36.168 151 35.1416 151Z" fill="#19797E"/>
<path id="transalte_3" d="M34.2155 175H16.7845C15.799 175 15 174.105 15 173C15 171.895 15.799 171 16.7845 171H34.2155C35.201 171 36 171.895 36 173C36 174.105 35.201 175 34.2155 175Z" fill="#19797E"/>
<path id="Path_7" d="M294.179 253.778C294.988 251.668 295.688 249.517 296.275 247.332C296.989 245.094 297.746 242.856 298.663 240.716C299.548 238.566 300.643 236.512 301.931 234.583C303.327 232.604 304.867 230.734 306.538 228.988C309.559 225.702 312.704 222.497 314.818 218.477C316.58 215.129 317.83 210.589 316.333 206.91C315.654 205.062 313.865 203.884 311.929 204.009C309.938 204.205 308.088 205.139 306.731 206.632C303.578 209.828 302.706 214.43 301.649 218.647C301.164 220.834 300.384 222.943 299.332 224.914C298.299 226.629 297.075 228.218 295.685 229.65C293.043 232.533 289.986 235.174 288.004 238.603C286.391 241.662 285.728 245.145 286.101 248.594C286.286 251.182 286.242 256.858 289.915 256.992C291.924 257.127 293.421 255.479 294.179 253.778Z" fill="#FF5723"/>
<path id="Path_8" d="M288.106 262.831C288.078 262.784 288.059 262.733 288.051 262.68C287.59 252.859 290.262 243.141 295.7 234.863C297.334 232.389 299.241 230.013 301.085 227.744C304.891 222.992 308.835 218.071 310.405 212.224C310.422 212.148 310.471 212.081 310.54 212.041C310.609 212 310.692 211.989 310.77 212.011C310.849 212.03 310.917 212.079 310.959 212.148C311 212.217 311.011 212.299 310.989 212.376C309.391 218.338 305.412 223.303 301.56 228.108C299.734 230.395 297.827 232.771 296.211 235.227C290.84 243.399 288.202 252.994 288.663 262.689C288.668 262.768 288.639 262.846 288.584 262.905C288.529 262.963 288.452 262.998 288.37 263C288.256 262.999 288.152 262.933 288.106 262.831Z" fill="white"/>
<path id="Path_9" d="M295.186 255.111C296.663 253.4 298.048 251.612 299.335 249.754C300.76 247.897 302.229 246.067 303.815 244.344C305.379 242.618 307.111 241.051 308.986 239.667C310.981 238.274 313.077 237.033 315.259 235.953C319.246 233.882 323.324 231.927 326.693 228.811C329.471 226.249 332.195 222.401 331.989 218.438C331.947 216.482 330.632 214.781 328.745 214.242C326.77 213.755 324.684 214.009 322.885 214.956C318.798 216.911 316.433 220.946 314.022 224.553C312.828 226.456 311.378 228.186 309.712 229.695C308.152 230.964 306.45 232.049 304.64 232.927C301.109 234.712 297.336 236.212 294.281 238.801C291.72 241.141 289.928 244.196 289.137 247.567C288.465 250.067 286.538 255.378 290.033 256.744C291.915 257.503 293.895 256.459 295.186 255.111Z" fill="#FF5723"/>
<path id="Path_10" d="M286.014 262.784C285.995 262.732 285.995 262.676 286.014 262.624C288.928 253.191 294.778 244.868 302.758 238.8C305.152 237.017 307.775 235.368 310.306 233.79C315.542 230.527 320.961 227.147 324.446 222.128C324.542 221.996 324.728 221.961 324.868 222.048C325.005 222.144 325.041 222.328 324.95 222.467C321.392 227.584 315.927 230.99 310.636 234.289C308.114 235.858 305.509 237.481 303.134 239.273C295.263 245.265 289.496 253.482 286.628 262.793C286.572 262.946 286.404 263.031 286.243 262.989C286.13 262.974 286.039 262.892 286.014 262.784Z" fill="white"/>
<path id="Path_11" d="M294.499 257.286C296.479 256.184 298.398 254.977 300.247 253.671C302.232 252.415 304.244 251.187 306.336 250.109C308.403 249.025 310.572 248.145 312.812 247.482C315.17 246.858 317.572 246.406 319.997 246.129C324.487 245.541 328.978 245.105 333.208 243.351C336.702 241.891 340.6 239.219 341.758 235.426C342.395 233.578 341.743 231.535 340.151 230.386C338.454 229.267 336.404 228.802 334.385 229.077C329.894 229.514 326.248 232.497 322.709 235.061C320.934 236.445 318.972 237.575 316.88 238.418C314.973 239.076 312.996 239.515 310.989 239.727C307.046 240.234 302.986 240.323 299.214 241.713C296 243.038 293.264 245.294 291.364 248.186C289.874 250.296 286.227 254.633 289.029 257.09C290.592 258.426 292.81 258.114 294.499 257.286Z" fill="#FF5723"/>
<path id="Path_12" d="M284.03 261.646C284.039 261.594 284.061 261.544 284.093 261.502C290.034 253.55 298.305 247.632 307.764 244.565C310.591 243.668 313.572 242.986 316.462 242.339C322.414 241.002 328.581 239.647 333.525 236.057C333.611 235.994 333.725 235.982 333.823 236.026C333.921 236.07 333.988 236.162 333.998 236.269C334.009 236.375 333.963 236.479 333.876 236.541C328.833 240.203 322.612 241.594 316.588 242.941C313.716 243.587 310.754 244.251 307.953 245.149C298.602 248.174 290.423 254.016 284.543 261.87C284.466 261.984 284.32 262.03 284.191 261.98C284.062 261.931 283.984 261.8 284.003 261.664L284.03 261.646Z" fill="white"/>
<path id="Path_13" d="M60.5275 249.432C58.6119 248.211 56.6313 247.097 54.5946 246.095C52.5333 244.946 50.4989 243.762 48.5541 242.423C46.6194 241.121 44.8181 239.627 43.1768 237.964C41.497 236.177 39.9512 234.267 38.5523 232.248C35.8637 228.576 33.3543 224.769 29.8142 221.901C26.8567 219.514 22.6445 217.379 18.728 218.166C16.7887 218.499 15.2911 220.069 15.0356 222.037C14.8475 224.082 15.4087 226.125 16.613 227.78C19.1582 231.561 23.5138 233.324 27.4572 235.188C29.5222 236.094 31.4549 237.281 33.2019 238.715C34.6786 240.095 35.9928 241.643 37.1184 243.327C39.4396 246.574 41.456 250.129 44.4763 252.788C47.1793 254.991 50.4773 256.321 53.9403 256.604C56.5214 256.903 62.0869 258.024 62.9025 254.352C63.3775 252.372 62.0421 250.563 60.5275 249.432Z" fill="#19797E"/>
<path id="Path_14" d="M68.8204 256.99C68.7678 257.003 68.7128 257.003 68.6602 256.99C58.9325 255.565 49.8781 251.108 42.7426 244.233C40.6333 242.151 38.6307 239.851 36.7082 237.624C32.7298 232.997 28.6268 228.217 23.1709 225.573C23.0219 225.5 22.9584 225.319 23.0285 225.166C23.1002 225.019 23.2751 224.958 23.4201 225.03C28.9917 227.746 33.1392 232.554 37.1533 237.226C39.0668 239.453 41.0427 241.752 43.152 243.799C50.1927 250.597 59.1328 255.006 68.7403 256.42C68.9019 256.447 69.0148 256.598 68.9984 256.764C68.9772 256.863 68.9113 256.947 68.8204 256.99Z" fill="white"/>
<path id="Path_15" d="M62.7655 250.159C61.3642 248.379 59.8639 246.679 58.2716 245.066C56.6987 243.273 55.1618 241.524 53.7776 239.632C52.3711 237.768 51.1518 235.771 50.1375 233.669C49.143 231.439 48.3109 229.141 47.6479 226.791C46.3536 222.469 45.1942 218.066 42.7855 214.238C40.7722 211.018 37.4916 207.611 33.5279 207.064C31.5857 206.734 29.6545 207.705 28.7644 209.458C27.9105 211.306 27.7666 213.403 28.3599 215.349C29.5193 219.734 33.0696 222.828 36.1794 225.886C37.8356 227.415 39.2723 229.165 40.4486 231.087C41.4129 232.86 42.1641 234.742 42.6866 236.691C43.8191 240.493 44.5561 244.483 46.5424 247.98C48.37 250.939 51.052 253.278 54.236 254.688C56.5729 255.827 61.4263 258.723 63.4756 255.584C64.5182 253.827 63.862 251.684 62.7655 250.159Z" fill="#19797E"/>
<path id="Path_16" d="M67.7395 258.987C67.6878 259.004 67.632 259.004 67.5803 258.987C58.9158 254.405 51.8708 247.221 47.416 238.424C46.0888 235.787 44.974 232.97 43.8769 230.252C41.6472 224.62 39.3468 218.791 35.091 214.508C35.033 214.454 35 214.378 35 214.298C35 214.218 35.033 214.142 35.091 214.088C35.1458 214.032 35.2207 214 35.2989 214C35.377 214 35.4519 214.032 35.5068 214.088C39.8599 218.46 42.1869 224.343 44.4343 230.029C45.5049 232.711 46.6109 235.545 47.9292 238.147C52.3345 246.826 59.2922 253.912 67.8457 258.433C67.9601 258.495 68.0204 258.625 67.9938 258.754C67.9672 258.882 67.86 258.977 67.7307 258.987H67.7395Z" fill="white"/>
<g id="car">
<path id="Path_17" d="M64.7482 250.016C64.0265 247.863 63.1855 245.75 62.2289 243.688C61.3226 241.51 60.507 239.305 59.8273 237.046C59.1232 234.819 58.6465 232.528 58.4046 230.207C58.2188 227.773 58.2188 225.328 58.4046 222.893C58.6674 218.411 59.0933 213.867 58.1417 209.448C57.3443 205.737 55.423 201.381 51.7981 199.588C50.0739 198.616 47.9106 198.867 46.4604 200.207C45.0206 201.649 44.1633 203.561 44.0498 205.585C43.6329 210.067 45.9166 214.208 47.8197 218.134C48.8601 220.137 49.6164 222.272 50.0672 224.48C50.3617 226.474 50.4256 228.495 50.2575 230.503C50.0128 234.456 49.3513 238.462 50.0037 242.415C50.7106 245.831 52.4448 248.955 54.979 251.379C56.7915 253.243 60.4164 257.653 63.4342 255.349C65.1198 254.059 65.2376 251.818 64.7482 250.016Z" fill="#19797E"/>
<path id="Path_18" d="M67.5984 259.988C67.5421 259.974 67.4905 259.946 67.4483 259.908C60.4619 252.685 56.0167 243.595 54.7239 233.889C54.3395 230.984 54.2457 227.982 54.1426 225.077C53.9457 219.072 53.7394 212.864 51.0295 207.417C50.9944 207.347 50.9905 207.266 51.0186 207.193C51.0468 207.12 51.1047 207.061 51.1795 207.028C51.254 206.995 51.3395 206.991 51.417 207.018C51.4944 207.044 51.5575 207.099 51.5921 207.17C54.3582 212.722 54.5645 218.993 54.7708 225.059C54.8646 227.955 54.9677 230.94 55.3428 233.818C56.6197 243.4 61.0094 252.372 67.9078 259.501C67.9668 259.556 68 259.631 68 259.709C68 259.787 67.9668 259.862 67.9078 259.917C67.8254 259.991 67.7075 260.018 67.5984 259.988Z" fill="white"/>
<path id="Path_19" d="M301 253H202V139H253.511C261.011 139 267.951 142.959 271.76 149.407L298.062 193.939C299.985 197.189 301 200.894 301 204.668V253Z" fill="#07ACB5"/>
<path id="Path_20" d="M285 194H213V150H253.181C256.581 150.009 259.728 151.776 261.47 154.655L285 194Z" fill="white"/>
<path id="Path_21" d="M305.043 252H285.589C284.159 252 283 250.844 283 249.418V238.582C283 237.897 283.273 237.24 283.758 236.756C284.244 236.272 284.902 236 285.589 236H305.043C307.229 236 309 237.766 309 239.945V248.045C309 250.224 307.229 251.991 305.043 251.991V252Z" fill="#07ACB5"/>
<path id="Path_22" d="M301 226C301 226 288 225.937 288 237H301V226Z" fill="white"/>
<path id="Path_23" d="M52.9034 115H186.71C195.155 115 202 121.845 202 130.289V237H50V117.894C50 117.125 50.3062 116.388 50.8509 115.845C51.3957 115.302 52.1342 114.998 52.9034 115Z" fill="#FF5723"/>
<g id="Icon">
<path id="Fill-4" fill-rule="evenodd" clip-rule="evenodd" d="M114.627 159.529C114.443 159.44 114.185 159.359 113.849 159.287C113.506 159.215 113.256 159.149 113.098 159.089C112.939 159.03 112.827 158.952 112.761 158.856C112.696 158.762 112.664 158.622 112.664 158.439C112.664 157.959 113.002 157.719 113.681 157.719C113.92 157.719 114.366 157.755 115.017 157.827L115.064 157.413C114.467 157.328 113.994 157.286 113.647 157.286C112.639 157.286 112.134 157.681 112.134 158.471C112.134 158.735 112.181 158.945 112.277 159.103C112.372 159.259 112.521 159.385 112.728 159.478C112.933 159.572 113.222 159.655 113.593 159.727C113.873 159.778 114.086 159.833 114.233 159.892C114.38 159.952 114.484 160.028 114.545 160.122C114.606 160.215 114.637 160.343 114.637 160.504C114.637 161.095 114.302 161.39 113.632 161.39C113.317 161.39 112.849 161.352 112.229 161.275L112.175 161.683L112.419 161.715C112.93 161.788 113.343 161.824 113.66 161.824C114.659 161.824 115.16 161.371 115.16 160.466C115.16 160.223 115.116 160.029 115.031 159.883C114.945 159.736 114.809 159.618 114.627 159.529Z" fill="#EEEEEE"/>
<path id="Fill-6" fill-rule="evenodd" clip-rule="evenodd" d="M119.577 160.648C119.503 160.905 119.378 161.094 119.198 161.212C119.02 161.331 118.767 161.39 118.441 161.39C118.114 161.39 117.859 161.329 117.676 161.209C117.494 161.088 117.365 160.897 117.293 160.634C117.219 160.374 117.183 160.02 117.183 159.574C117.183 159.127 117.219 158.77 117.295 158.503C117.37 158.236 117.499 158.038 117.679 157.911C117.86 157.782 118.112 157.718 118.434 157.718C118.758 157.718 119.009 157.784 119.188 157.914C119.37 158.043 119.497 158.243 119.573 158.51C119.648 158.777 119.686 159.137 119.686 159.586C119.686 160.037 119.649 160.391 119.577 160.648ZM119.472 157.531C119.214 157.367 118.868 157.286 118.434 157.286C117.999 157.286 117.653 157.367 117.395 157.531C117.138 157.695 116.952 157.943 116.841 158.276C116.73 158.611 116.672 159.042 116.672 159.574C116.672 160.109 116.728 160.54 116.838 160.865C116.947 161.189 117.131 161.431 117.389 161.588C117.647 161.745 117.997 161.824 118.441 161.824C118.883 161.824 119.233 161.747 119.489 161.594C119.746 161.442 119.928 161.203 120.037 160.881C120.147 160.558 120.202 160.126 120.202 159.586C120.202 159.047 120.145 158.611 120.032 158.276C119.917 157.943 119.732 157.695 119.472 157.531Z" fill="#EEEEEE"/>
<path id="Fill-8" fill-rule="evenodd" clip-rule="evenodd" d="M124.789 161.377H124.67L123.08 157.286H122.218V161.824H122.679V157.731H122.792L124.401 161.824H125.244V157.286H124.789V161.377Z" fill="#EEEEEE"/>
<path id="Fill-10" fill-rule="evenodd" clip-rule="evenodd" d="M129.568 161.187C129.418 161.314 129.2 161.377 128.913 161.377H127.748V159.737H128.882C129.16 159.737 129.382 159.8 129.546 159.925C129.711 160.049 129.793 160.265 129.793 160.571C129.793 160.856 129.718 161.061 129.568 161.187ZM127.748 157.731H128.831C129.117 157.731 129.326 157.792 129.457 157.911C129.587 158.031 129.654 158.228 129.654 158.498C129.654 158.766 129.59 158.965 129.463 159.098C129.337 159.232 129.141 159.298 128.875 159.298H127.748V157.731ZM129.59 159.482C129.78 159.386 129.922 159.258 130.014 159.098C130.107 158.94 130.153 158.727 130.153 158.459C130.153 158.057 130.046 157.761 129.834 157.57C129.621 157.38 129.293 157.286 128.849 157.286H127.26V161.824H128.932C129.375 161.824 129.712 161.725 129.94 161.524C130.171 161.326 130.286 161.012 130.286 160.584C130.286 160.287 130.229 160.05 130.116 159.876C130.002 159.701 129.826 159.57 129.59 159.482Z" fill="#EEEEEE"/>
<path id="Fill-12" fill-rule="evenodd" clip-rule="evenodd" d="M132.812 157.286H132.303V161.824H134.824V161.371H132.812V157.286Z" fill="#EEEEEE"/>
<path id="Fill-14" fill-rule="evenodd" clip-rule="evenodd" d="M136.752 160.204L137.429 157.718H137.764L138.439 160.204H136.752ZM137.056 157.286L135.832 161.824H136.322L136.643 160.656H138.55L138.872 161.824H139.361L138.138 157.286H137.056Z" fill="#EEEEEE"/>
<path id="Fill-16" fill-rule="evenodd" clip-rule="evenodd" d="M110.651 140.313C109.941 141.069 109.762 141.921 109.57 142.835C108.777 146.616 108.712 146.752 108.582 147.04C107.988 148.357 107.025 149.332 105.376 149.193C105.623 148.795 105.811 148.356 105.968 147.921C106.665 145.974 106.484 143.816 107.261 141.905C107.558 141.177 108.201 139.744 109.589 139.334C110.465 139.076 111.287 139.333 111.732 139.52C111.439 139.663 111.032 139.908 110.651 140.313ZM113.119 148.984C112.117 149.292 111.476 148.954 111.476 148.954C111.311 148.866 111.172 148.752 111.067 148.655C111.657 147.465 111.917 145.963 112.078 144.748C112.311 142.983 112.733 139.172 115.388 139.726C115.564 139.761 115.324 139.551 115.317 139.551H115.316C115.17 139.365 114.772 139.168 114.584 139.053C113.435 138.349 112.146 137.942 110.842 137.639C109.442 137.315 107.962 137.261 106.681 138.001C103.933 139.586 104.298 143.12 103.583 145.846L103.582 145.845C103.582 145.848 103.581 145.852 103.579 145.856C103.579 145.857 103.579 145.86 103.578 145.861C103.54 146.009 103.499 146.154 103.452 146.296C103.451 146.297 103.451 146.298 103.451 146.3C103.148 147.007 102.444 147.504 101.623 147.504C100.695 147.504 99.9148 146.867 99.6984 146.009C99.6056 146.248 99.5543 146.506 99.5543 146.777C99.5543 147.897 100.426 148.812 101.531 148.887C100.988 149.168 100.345 149.277 99.5925 149.149C99.4138 149.118 99.6722 149.33 99.6656 149.321C99.8108 149.507 100.21 149.705 100.397 149.821C100.871 150.111 101.463 150.543 102.027 150.639C102.957 150.797 103.922 150.659 104.661 150.04C104.873 149.863 105.053 149.657 105.214 149.435C105.396 149.585 105.678 149.73 105.826 149.821C106.3 150.111 106.892 150.543 107.456 150.639C109.238 150.943 110.317 150.072 110.99 148.804C111.07 148.946 111.174 149.11 111.277 149.251C111.773 149.923 112.419 150.237 112.642 150.341C112.971 150.496 113.961 150.944 115.168 150.611C116.084 150.359 116.659 149.787 116.918 149.477V149.476C117.099 149.61 117.344 149.737 117.48 149.821C117.954 150.112 118.545 150.543 119.11 150.639C120.582 150.89 121.575 150.34 122.255 149.425C123.114 149.997 124.353 150.575 125.94 150.684C126.041 150.693 126.139 150.698 126.235 150.699H126.237H126.277C127.423 150.699 128.227 150.15 128.801 149.335C129.712 149.971 131.097 150.644 132.913 150.699L132.893 150.668C134.268 150.841 135.205 150.294 135.856 149.411C136.037 149.568 136.342 149.723 136.5 149.821C136.974 150.112 137.566 150.543 138.13 150.639C139.61 150.892 140.604 150.334 141.285 149.411C141.466 149.568 141.771 149.723 141.93 149.821C142.403 150.112 142.995 150.543 143.56 150.639C147.044 151.234 147.839 147.338 148.18 144.749C148.239 144.301 148.311 143.722 148.427 143.116C148.431 143.128 148.436 143.14 148.443 143.15C148.594 142.209 149.413 141.49 150.401 141.49C151.33 141.49 152.11 142.125 152.325 142.985C152.419 142.747 152.471 142.487 152.471 142.216C152.471 141.049 151.521 140.102 150.348 140.102C150.11 140.102 149.882 140.14 149.671 140.211C150.117 139.779 150.707 139.562 151.491 139.725C151.667 139.761 151.425 139.551 151.418 139.551H151.418C151.273 139.366 150.874 139.168 150.686 139.053C150.2 138.754 149.628 138.353 149.056 138.234C146.471 137.697 145.926 140.999 145.673 142.835C145.332 145.303 144.77 149.505 141.438 149.19C142.247 147.942 142.566 146.154 142.75 144.749C142.984 142.983 143.405 139.172 146.062 139.725C146.237 139.761 145.996 139.551 145.99 139.551H145.989C145.843 139.366 145.445 139.168 145.257 139.053C144.771 138.754 144.198 138.353 143.627 138.234C141.042 137.697 140.497 140.999 140.243 142.835C139.902 145.303 139.341 149.505 136.009 149.19C136.817 147.942 137.137 146.154 137.321 144.749C137.554 142.983 137.976 139.172 140.632 139.725C140.808 139.761 140.567 139.551 140.56 139.551H140.559C140.413 139.366 140.015 139.168 139.828 139.053C139.341 138.754 138.769 138.353 138.198 138.234C135.612 137.697 135.068 140.999 134.814 142.835C134.517 144.983 134.054 148.442 131.745 149.097C131.329 149.117 130.19 149.136 129.089 148.871C129.759 147.65 130.041 146.038 130.212 144.749C130.444 142.983 130.866 139.172 133.522 139.725C133.698 139.761 133.456 139.551 133.45 139.551H133.449C133.304 139.366 132.906 139.168 132.717 139.053C132.231 138.754 131.659 138.353 131.087 138.234C128.502 137.697 127.958 140.999 127.704 142.835C127.405 144.994 126.939 148.478 124.598 149.107C124.088 149.107 123.338 149.071 122.586 148.911C123.273 147.685 123.559 146.052 123.73 144.749C123.964 142.983 124.385 139.172 127.042 139.725C127.217 139.761 126.975 139.551 126.969 139.551C126.823 139.366 126.424 139.168 126.236 139.053C125.75 138.754 125.179 138.353 124.607 138.234C122.021 137.697 121.477 140.999 121.223 142.835C120.887 145.27 120.336 149.392 117.122 149.2C117.267 148.982 117.393 148.75 117.5 148.511C117.778 147.89 117.964 147.241 118.114 146.58C118.521 144.783 118.867 142.972 119.225 141.165C119.943 137.523 120.619 133.873 121.353 130.235C121.379 130.099 121.407 129.964 121.436 129.83C121.489 129.561 121.544 129.292 121.6 129.026C122.083 127.876 123.221 127.069 124.55 127.069C126.049 127.069 127.307 128.094 127.653 129.48C127.805 129.096 127.888 128.678 127.888 128.24C127.888 126.356 126.355 124.83 124.465 124.83C124.358 124.83 124.253 124.835 124.15 124.845C125.219 124.386 126.496 124.436 127.673 124.751C127.854 124.799 127.598 124.565 127.598 124.574C127.451 124.39 127.055 124.192 126.869 124.078C126.365 123.77 125.816 123.414 125.238 123.26C123.763 122.867 122.035 122.82 120.787 123.831C119.865 124.579 119.432 125.711 119.183 126.834C118.85 128.333 118.579 129.847 118.285 131.354C117.432 135.736 116.623 140.131 115.681 144.495C115.554 145.089 114.644 148.515 113.119 148.984Z" fill="#EEEEEE"/>
<path id="Fill-18" fill-rule="evenodd" clip-rule="evenodd" d="M114.295 134.272H117.102C117.127 134.153 117.151 134.033 117.176 133.913H114.296L112.304 132.076L110.118 134.092L112.304 136.109L114.295 134.272Z" fill="#EEEEEE"/>
<path id="Fill-20" fill-rule="evenodd" clip-rule="evenodd" d="M145.849 134.015H134.266V134.193V134.371H145.849C151.25 134.371 155.643 138.77 155.643 144.176C155.643 149.583 151.25 153.981 145.849 153.981H118.295L116.358 152.042L114.421 153.981H106.151C100.751 153.981 96.357 149.583 96.357 144.176C96.357 138.77 100.751 134.371 106.151 134.371H106.463L108.401 136.31L110.516 134.193L108.401 132.076L106.464 134.015H106.151C100.553 134.015 96 138.572 96 144.176C96 149.78 100.553 154.338 106.151 154.338H114.421L114.421 154.338L116.358 156.277L118.295 154.338H145.849C151.447 154.338 156 149.78 156 144.176C156 138.572 151.447 134.015 145.849 134.015Z" fill="#EEEEEE"/>
<path id="Fill-22" fill-rule="evenodd" clip-rule="evenodd" d="M130.299 133.914H121.282C121.258 134.033 121.233 134.153 121.21 134.272H130.299L132.215 136.109L134.319 134.093L132.215 132.076L130.299 133.914Z" fill="#EEEEEE"/>
</g>
<path id="Path_24" d="M119.061 186H50V193H126L119.061 186Z" fill="white"/>
<path id="Path_25" d="M133.07 200H50V207H140L133.07 200Z" fill="white"/>
<path id="Path_26" d="M104.158 172H50V179H111L104.158 172Z" fill="white"/>
<path id="Path_27" d="M116 172L122.966 179H203V172H116Z" fill="white"/>
<path id="Path_28" d="M137.887 193H203V186H131L137.887 193Z" fill="white"/>
<path id="Path_29" d="M151.009 207H203V200H144L151.009 207Z" fill="white"/>
<path id="Path_30" d="M48.1558 227H202V252H48.1558C46.9652 252 46 251.019 46 249.808V229.201C45.9976 228.618 46.2237 228.058 46.6283 227.645C47.0328 227.232 47.5825 227 48.1558 227Z" fill="#07ACB5"/>
<path id="Oval" d="M128.073 254.645C129.652 244.882 122.951 235.677 113.105 234.084C103.259 232.491 93.9969 239.114 92.4175 248.877C90.838 258.639 97.5393 267.845 107.385 269.438C117.231 271.031 126.493 264.408 128.073 254.645Z" fill="#383838"/>
<path id="Path_31" d="M119 251.491C119.004 254.929 116.935 258.032 113.759 259.35C110.583 260.669 106.926 259.944 104.493 257.513C102.06 255.083 101.331 251.427 102.646 248.249C103.961 245.072 107.061 243 110.5 243C115.191 243 118.995 246.8 119 251.491Z" fill="#EFEFFC"/>
<path id="Oval_2" d="M260.825 266.147C268.759 260.152 270.344 248.877 264.365 240.962C258.385 233.047 247.106 231.49 239.171 237.484C231.237 243.478 229.652 254.754 235.632 262.669C241.611 270.584 252.891 272.141 260.825 266.147Z" fill="#383838"/>
<path id="Path_32" d="M258 251.491C258.004 254.93 255.934 258.033 252.757 259.351C249.58 260.669 245.922 259.942 243.49 257.51C241.058 255.078 240.331 251.42 241.649 248.243C242.967 245.066 246.07 242.996 249.509 243C254.199 243 258 246.801 258 251.491Z" fill="#EFEFFC"/>
</g>
</g>
</g>
</g>
</g>
</g>
<defs>
<clipPath id="clip0">
<rect width="350" height="277" fill="white"/>
</clipPath>
</defs>
</svg>
