<svg width="350" height="278" viewBox="0 0 350 278" fill="none" xmlns="http://www.w3.org/2000/svg">
<style>
#bag_1,#bag_2,#car,#translate{transform-origin:center;transform-box:fill-box}#bag_1,#bag_2{animation:translateY 2s linear infinite}#car,#translate{animation:translateX 2s linear infinite}@keyframes translateX{0%,100%{transform:translateX(2px)}50%{transform:translateX(-2px)}}@keyframes translateY{0%,100%{transform:translateY(2px)}50%{transform:translateY(-2px)}}
</style>
<g id="feature_2 1">
<g id="Page-1">
<g id="Landing-Page-FAQ-More">
<g id="Group-20">
<g id="Asset-5">
<g id="Group" opacity="0.37">
<g id="Path" opacity="0.41">
<path id="Vector" opacity="0.41" d="M347.113 207.858C350.785 203.564 350.996 197.03 347.508 193.265C344.02 189.5 335.768 187.295 332.06 191.589C328.352 195.882 333.62 202.023 334.887 207.392C336.649 214.903 343.405 212.152 347.113 207.858Z" fill="#FF5723"/>
</g>
<g id="Path_2" opacity="0.41">
<path id="Vector_2" opacity="0.41" d="M226.26 27.3485C226.556 25.467 225.484 23.6389 223.706 22.9914C222.019 22.5031 219.269 23.3388 218.998 25.2638C218.728 27.1888 221.348 28.0809 222.727 29.3955C224.563 31.3206 225.99 29.2735 226.26 27.3485Z" fill="#FF5723"/>
</g>
<g id="Path_3" opacity="0.41">
<path id="Vector_3" opacity="0.41" d="M110.562 10.4005C107.914 3.3046 100.422 -1.21763 93.8254 0.289781C87.2284 1.79719 79.4204 9.83059 82.0773 16.9264C84.7341 24.0223 95.19 22.0645 102.248 24.1418C112.098 27.0739 113.174 17.4687 110.562 10.4005Z" fill="#FF5723"/>
</g>
<g id="Path_4" opacity="0.41">
<path id="Vector_4" opacity="0.41" d="M4.1833 158.448C0.649555 160.525 -0.937402 165.501 0.566517 169.542C2.07044 173.583 7.25573 177.961 10.7895 175.922C14.3232 173.883 12.1089 167.381 12.4687 162.826C12.9762 156.484 7.70783 156.362 4.1833 158.448Z" fill="#FF5723"/>
</g>
<g id="Path_5" opacity="0.28">
<path id="Vector_5" opacity="0.28" d="M327.042 256.854C330.436 236.92 324.996 219.906 323.639 200.355C322.354 181.84 327.923 166.273 330.978 148.646C333.73 132.95 332.812 115.186 329.363 99.7561C324.648 78.6948 313.768 59.2086 298.173 47.3228C273.845 28.8438 241.37 31.0141 214.473 43.7515C203.199 49.0901 192.292 56.1868 180.219 57.9816C162.615 60.6005 145.488 51.6449 128.352 46.2422C105.005 38.9166 79.3927 38.3763 57.367 49.9051C32.4057 63.0454 14.6549 92.6044 16.7556 125.167C17.673 139.919 22.4983 154.469 20.8012 169.121C19.049 183.992 11.5726 196.418 7.58208 210.428C2.18802 229.53 1.69265 257.615 10.38 277H321.199C323.915 270.531 325.875 263.771 327.042 256.854Z" fill="#FF5723"/>
</g>
<g id="Path_6" opacity="0.84">
<g id="Group_2" opacity="0.47">
<path id="Vector_6" opacity="0.47" d="M50.647 185.207C51.7475 171.814 57.0667 158.402 66.2377 148.824C80.5628 133.885 102.234 130.125 121.264 133.574C129.215 135.02 137.102 137.581 145.246 136.776C157.168 135.596 167.596 127.536 178.408 121.627C193.137 113.585 210.012 109.258 225.667 112.753C244.292 116.913 258.065 132.636 259.7 151.605C260.489 160.616 252.492 176.498 255.014 185.033C257.536 193.568 276.236 220.281 275.777 240.407C275.319 260.533 271.017 266.772 264.937 277H66.3661C62.5785 266.644 59.6162 258.365 64.0458 244.762C67.595 233.903 57.9655 224.956 54.242 214.838C50.9313 205.836 49.8399 195.014 50.647 185.207Z" fill="#FF5723"/>
</g>
</g>
</g>
<path id="Path_7" d="M292.435 260.716C293.276 258.568 293.999 256.375 294.6 254.147C295.336 251.876 296.119 249.586 297.064 247.414C297.981 245.224 299.111 243.131 300.439 241.165C301.881 239.148 303.471 237.242 305.195 235.463C308.324 232.115 311.561 228.839 313.744 224.752C315.563 221.34 316.854 216.715 315.317 212.965C314.616 211.083 312.77 209.882 310.77 210.009C308.718 210.211 306.809 211.159 305.404 212.673C302.148 215.939 301.248 220.629 300.157 224.926C299.656 227.155 298.851 229.304 297.765 231.312C296.701 233.062 295.437 234.681 294 236.138C291.271 239.076 288.115 241.767 286.069 245.261C284.404 248.378 283.719 251.928 284.105 255.443C284.305 258.079 284.25 263.854 288.043 263.991C290.116 264.137 291.653 262.458 292.435 260.716Z" fill="#FF5723"/>
<path id="Path_8" d="M288.052 271.846C288.037 271.796 288.037 271.742 288.052 271.692C287.585 261.681 290.262 251.773 295.716 243.333C297.355 240.82 299.269 238.389 301.118 236.076C304.909 231.195 308.846 226.188 310.402 220.218C310.451 220.061 310.616 219.969 310.778 220.01C310.855 220.029 310.921 220.078 310.961 220.147C311.001 220.215 311.011 220.297 310.988 220.373C309.386 226.46 305.394 231.522 301.53 236.421C299.699 238.752 297.785 241.165 296.165 243.678C290.78 252.013 288.135 261.797 288.592 271.682C288.597 271.763 288.569 271.843 288.514 271.903C288.459 271.963 288.381 271.998 288.299 272C288.195 271.996 288.101 271.937 288.052 271.846Z" fill="white"/>
<path id="Path_9" d="M293.34 263.071C294.854 261.32 296.273 259.491 297.592 257.59C299.049 255.69 300.543 253.808 302.174 252.045C303.774 250.281 305.545 248.681 307.462 247.267C309.502 245.842 311.647 244.572 313.878 243.467C317.965 241.347 322.126 239.338 325.572 236.159C328.413 233.537 331.208 229.6 330.988 225.543C330.949 223.539 329.604 221.794 327.67 221.241C325.649 220.751 323.517 221.014 321.677 221.981C317.498 223.972 315.078 228.101 312.613 231.801C311.395 233.75 309.912 235.521 308.205 237.063C306.608 238.359 304.868 239.469 303.018 240.37C299.416 242.197 295.548 243.732 292.423 246.381C289.803 248.774 287.969 251.901 287.163 255.352C286.476 257.9 284.505 263.345 288.079 264.733C289.995 265.519 292.02 264.45 293.34 263.071Z" fill="#FF5723"/>
<path id="Path_10" d="M285.014 270.778C284.995 270.724 284.995 270.667 285.014 270.613C287.926 260.948 293.78 252.421 301.767 246.211C304.151 244.385 306.773 242.686 309.304 241.07C314.54 237.737 319.959 234.275 323.444 229.134C323.505 229.044 323.609 228.993 323.717 229.001C323.825 229.008 323.921 229.073 323.969 229.17C324.017 229.267 324.009 229.382 323.948 229.472C320.4 234.723 314.925 238.211 309.634 241.581C307.113 243.198 304.508 244.86 302.133 246.695C294.265 252.832 288.499 261.245 285.628 270.778C285.579 270.941 285.407 271.035 285.243 270.988C285.136 270.96 285.05 270.882 285.014 270.778Z" fill="white"/>
<path id="Path_11" d="M293.615 265.262C295.633 264.124 297.587 262.876 299.469 261.523C301.491 260.215 303.54 258.953 305.671 257.839C307.773 256.712 309.982 255.802 312.266 255.123C314.668 254.478 317.114 254.01 319.583 253.723C324.157 253.115 328.73 252.664 333.039 250.85C336.606 249.339 340.567 246.577 341.756 242.654C342.402 240.741 341.735 238.627 340.109 237.441C338.383 236.281 336.294 235.796 334.237 236.079C329.663 236.539 325.95 239.624 322.346 242.276C320.536 243.704 318.538 244.873 316.409 245.748C314.47 246.429 312.46 246.883 310.418 247.102C306.394 247.626 302.259 247.719 298.426 249.155C295.149 250.523 292.359 252.856 290.423 255.85C288.904 258.033 285.191 262.517 288.054 265.059C289.636 266.44 291.868 266.118 293.615 265.262Z" fill="#FF5723"/>
<path id="Path_12" d="M283.003 269.642C283.003 269.584 283.023 269.528 283.058 269.483C289.122 261.229 297.555 255.085 307.199 251.898C310.091 250.966 313.13 250.257 316.069 249.586C322.147 248.196 328.428 246.788 333.515 243.059C333.652 242.958 333.843 242.99 333.942 243.129C334.041 243.268 334.01 243.462 333.873 243.562C328.731 247.357 322.386 248.812 316.243 250.21C313.323 250.872 310.293 251.562 307.437 252.504C297.899 255.643 289.557 261.713 283.563 269.875C283.461 270.012 283.269 270.041 283.132 269.94C283.036 269.873 282.986 269.758 283.003 269.642Z" fill="white"/>
<path id="Path_13" d="M53.4111 257.44C51.4132 256.217 49.3489 255.1 47.227 254.092C45.0817 252.953 42.9643 251.759 40.9403 250.429C38.9268 249.126 37.052 247.632 35.3438 245.969C33.598 244.182 31.9924 242.271 30.5401 240.251C27.7419 236.579 25.1302 232.77 21.4365 229.902C18.3585 227.514 13.9746 225.379 9.89846 226.166C7.86689 226.494 6.29733 228.075 6.03688 230.056C5.8417 232.098 6.42582 234.139 7.67852 235.792C10.3182 239.582 14.8513 241.337 18.9554 243.21C21.1068 244.112 23.1189 245.3 24.9343 246.738C26.4881 248.106 27.8717 249.645 29.0571 251.324C31.4729 254.572 33.5716 258.118 36.7243 260.787C39.5339 262.99 42.9634 264.321 46.5647 264.604C49.251 264.903 55.0434 266.025 55.8922 262.352C56.4052 260.344 55.0061 258.525 53.4111 257.44Z" fill="#19797E"/>
<path id="Path_14" d="M61.8117 263.987C61.7574 264.004 61.6987 264.004 61.6445 263.987C51.4897 262.559 42.0404 258.097 34.6006 251.217C32.381 249.164 30.31 246.849 28.304 244.615C24.1619 239.994 19.8713 235.219 14.1783 232.578C14.0228 232.505 13.9566 232.323 14.0298 232.171C14.1084 232.023 14.291 231.96 14.4477 232.026C20.2521 234.739 24.5798 239.551 28.7683 244.217C30.765 246.442 32.8268 248.739 35.0278 250.783C42.3744 257.573 51.7031 261.978 61.7281 263.39C61.8993 263.413 62.0194 263.566 61.9974 263.733C61.9871 263.844 61.9161 263.941 61.8117 263.987Z" fill="white"/>
<path id="Path_15" d="M54.7507 256.993C53.3061 255.18 51.7653 253.445 50.1347 251.795C48.5191 249.965 46.9405 248.189 45.5188 246.258C44.0879 244.352 42.851 242.311 41.826 240.163C40.7737 237.908 39.8882 235.581 39.1764 233.199C37.847 228.788 36.6561 224.294 34.182 220.387C32.114 217.101 28.7444 213.623 24.6731 213.065C22.6781 212.728 20.6945 213.719 19.7802 215.509C18.9054 217.396 18.7608 219.536 19.374 221.521C20.5557 225.996 24.2023 229.154 27.3965 232.265C29.0987 233.831 30.5772 235.62 31.7909 237.582C32.7701 239.385 33.5413 241.292 34.0896 243.266C35.2436 247.155 36.0007 251.228 38.0409 254.788C39.9176 257.81 42.6723 260.199 45.9434 261.642C48.3437 262.795 53.3751 265.76 55.4338 262.557C56.5417 260.773 55.8677 258.586 54.7507 256.993Z" fill="#19797E"/>
<path id="Path_16" d="M59.6909 266.987C59.6376 267.004 59.5804 267.004 59.527 266.987C50.6073 262.305 43.3557 254.959 38.7737 245.962C37.4078 243.275 36.2604 240.395 35.1312 237.607C32.8364 231.857 30.4688 225.897 26.0886 221.519C25.9705 221.4 25.9705 221.208 26.0886 221.089C26.2068 220.97 26.3985 220.97 26.5166 221.089C30.9878 225.559 33.3828 231.574 35.6958 237.388C36.7977 240.13 37.9451 243.028 39.3383 245.688C43.87 254.561 51.0318 261.805 59.8366 266.421C59.9085 266.458 59.9625 266.522 59.9864 266.599C60.0104 266.677 60.0024 266.761 59.9641 266.832C59.911 266.933 59.8044 266.993 59.6909 266.987Z" fill="white"/>
<path id="Path_17" d="M55.7306 258.789C55.0051 256.564 54.1615 254.38 53.2035 252.249C52.2944 249.985 51.4763 247.713 50.7945 245.375C50.1039 243.065 49.638 240.691 49.4037 238.288C49.2264 235.771 49.2264 233.244 49.4037 230.728C49.6764 226.089 50.0945 221.386 49.14 216.813C48.3492 212.973 46.4129 208.464 42.8221 206.609C41.0926 205.603 38.9226 205.862 37.4678 207.249C36.0215 208.74 35.1612 210.72 35.0498 212.815C34.6316 217.453 36.9315 221.739 38.8314 225.802C39.8762 227.874 40.6349 230.085 41.0859 232.37C41.3855 234.433 41.4496 236.525 41.2768 238.603C41.0313 242.703 40.3677 246.85 41.0222 250.941C41.7312 254.476 43.4709 257.709 46.0129 260.217C47.831 262.147 51.4672 266.711 54.4943 264.327C56.1306 262.972 56.2397 260.662 55.7306 258.789Z" fill="#19797E"/>
<path id="Path_18" d="M58.5928 268.971C58.54 268.955 58.4919 268.926 58.4522 268.888C51.4689 261.403 47.0213 251.98 45.7205 241.915C45.3454 238.9 45.2423 235.783 45.1486 232.768C44.9423 226.535 44.736 220.091 42.0266 214.437C41.9589 214.284 42.0248 214.106 42.1766 214.032C42.2507 213.995 42.3372 213.99 42.4155 214.018C42.4937 214.046 42.5566 214.104 42.5891 214.179C45.4017 219.943 45.5611 226.452 45.7673 232.75C45.8611 235.747 45.9642 238.854 46.3392 241.842C47.6114 251.791 52.0047 261.108 58.9116 268.502C59.0295 268.623 59.0295 268.813 58.9116 268.934C58.8215 269.006 58.6974 269.02 58.5928 268.971Z" fill="white"/>
<g id="car">
<g id="Group 1">
<g id="bag_2">
<path id="Path_19" d="M195 139.972L272.305 174L277.936 156.711L299 92.1491L237.321 65L203.941 124.141L195 139.972Z" fill="#07ACB5"/>
<path id="Path_20" d="M195 140.558L272.365 174L278 157.009L203.948 125L195 140.558Z" fill="#FF5723"/>
<path id="Path_21" d="M246.78 79.2107C247.092 79.3477 247.445 79.356 247.763 79.2337C248.081 79.1114 248.337 78.8685 248.474 78.5585L253.393 67.4437C255.928 61.3501 261.582 57.0984 268.168 56.3319C274.755 55.5654 281.242 58.4042 285.124 63.7512C289.006 69.0981 289.673 76.1155 286.868 82.0913L281.949 93.2061C281.764 93.6236 281.816 94.1078 282.087 94.4763C282.358 94.8448 282.806 95.0416 283.262 94.9926C283.719 94.9436 284.114 94.6563 284.299 94.2388L289.227 83.1059C293.868 72.6199 289.082 60.378 278.538 55.7628C267.994 51.1477 255.684 55.9069 251.043 66.393L246.115 77.5077C245.972 77.8208 245.962 78.1779 246.087 78.4984C246.212 78.8189 246.462 79.0757 246.78 79.2107Z" fill="#07ACB5"/>
</g>
<g id="bag_1">
<path id="Path_22" d="M115.76 167L204 147.576L197.949 129.084L175.399 60L105 75.4971L113.496 147.677L115.76 167Z" fill="#07ACB5"/>
<path id="Path_23" d="M115.276 168L204 148.533L197.916 130L113 148.634L115.276 168Z" fill="#FF5723"/>
<path id="Path_24" d="M122.075 81.9681C122.439 81.8901 122.756 81.6727 122.956 81.3643C123.157 81.0559 123.223 80.682 123.14 80.3257L120.278 67.5586C118.655 60.6926 120.923 53.5017 126.217 48.7299C131.511 43.958 139.014 42.3414 145.863 44.4968C152.712 46.6523 157.851 52.2474 159.318 59.147L162.189 71.9141C162.355 72.6658 163.112 73.1432 163.879 72.9803C164.646 72.8174 165.134 72.076 164.967 71.3243L162.096 58.5572C159.393 46.5022 147.226 38.8768 134.921 41.5253C122.616 44.1739 114.833 56.0934 117.536 68.1484L120.398 80.9155C120.478 81.2729 120.699 81.5846 121.014 81.782C121.328 81.9794 121.71 82.0463 122.075 81.9681Z" fill="#07ACB5"/>
</g>
<path id="Shape" d="M163.019 147.111C162.951 147.557 163.069 148.011 163.347 148.369C163.624 148.727 164.037 148.957 164.489 149.006C178.578 150.829 197.961 157.828 198.154 157.892C198.276 157.936 198.402 157.967 198.531 157.983H198.595C198.754 158.006 198.915 158.006 199.073 157.983H199.128C200.194 157.764 230.238 151.604 244.162 152.934C245.079 153.019 245.895 152.356 245.991 151.447C246.086 150.538 245.427 149.722 244.511 149.617C237.067 148.897 225.542 150.173 215.873 151.64C219.669 149.462 222.959 146.719 224.218 143.438C225.367 140.44 224.816 137.35 222.601 134.27C219.972 130.624 217.188 130.178 215.313 130.433C208.714 131.344 202.703 142.809 199.514 150.091C198.062 142.28 194.809 129.777 188.587 127.407C186.813 126.742 183.991 126.56 180.618 129.513C177.751 132.019 176.52 134.908 176.942 138.088C177.567 142.645 181.813 147.12 186.326 150.619C179.341 148.479 172.205 146.861 164.976 145.78C164.066 145.614 163.191 146.208 163.019 147.111ZM197.122 153.441C191.071 150.13 181.344 143.677 180.574 137.873C180.295 135.858 181.14 134.049 183.154 132.321C185.01 130.773 186.245 130.575 187.015 130.665C187.264 130.693 187.507 130.754 187.739 130.845C192.324 132.546 195.684 144.523 197.122 153.441ZM201.733 153.441C205.238 145.038 211.356 134.071 216.266 133.412C216.515 133.372 216.768 133.372 217.016 133.412C217.794 133.493 219.012 133.963 220.427 135.876C222.001 138.006 222.404 139.965 221.664 141.87C219.499 147.357 208.452 151.528 201.733 153.441Z" fill="#07ACB5"/>
<path id="Rectangle" d="M251.192 246.395L127.982 232.362L136.983 153.632L260.192 167.665L251.192 246.395Z" fill="#07ACB5"/>
<path id="Rectangle_2" d="M262.493 190.192L128.891 174.975L131.854 149.059L265.456 164.277L262.493 190.192Z" fill="#FF5723"/>
<path id="Path_25" d="M131.762 200.393L190.045 206.999L195.91 156L202.582 156.756L196.717 207.765L255 214.371L254.238 220.995L195.955 214.389L193.128 239L186.447 238.244L189.283 213.633L131 207.026L131.762 200.393Z" fill="#FF5723"/>
<path id="Shape_2" d="M49 66.8371C49 69.5339 51.189 71.7201 53.8893 71.7201H83.8963L126.448 245.195C126.985 247.38 128.946 248.918 131.2 248.921H163.036V255.86C157.715 257.577 154.437 262.905 155.307 268.421C156.177 273.937 160.937 278 166.528 278C172.119 278 176.879 273.937 177.749 268.421C178.619 262.905 175.341 257.577 170.02 255.86V248.875H223.987V255.814C218.666 257.531 215.388 262.859 216.258 268.375C217.128 273.891 221.888 277.954 227.479 277.954C233.07 277.954 237.83 273.891 238.7 268.375C239.57 262.859 236.292 257.531 230.972 255.814V248.875H267.099C269.357 248.875 271.32 247.331 271.851 245.14L304.863 109.416C305.215 107.962 304.88 106.426 303.953 105.249C303.026 104.073 301.61 103.386 300.112 103.386H101.735L92.4802 65.6715C91.9247 63.5056 89.9674 61.9932 87.7287 62H53.8893C51.2069 62 49.0252 64.1583 49 66.8371ZM223.337 267.017C223.337 264.49 225.391 262.441 227.925 262.441C230.459 262.441 232.513 264.49 232.513 267.017C232.513 269.544 230.459 271.593 227.925 271.593C225.391 271.593 223.337 269.544 223.337 267.017ZM169.957 238.608L161.86 180.983H193.975V238.644L169.957 238.608ZM204.068 238.644V180.983H236.183L228.059 238.644H204.068ZM204.068 170.879V113.254H246.276L238.034 170.915L204.068 170.879ZM160.002 170.915L151.767 113.254H193.975V170.915H160.002ZM293.989 113.254L279.926 170.915H248.111L256.291 113.254H293.989ZM263.249 238.644H238.018L246.286 180.983H277.473L263.249 238.644ZM161.87 267.027C161.866 265.175 162.98 263.503 164.692 262.792C166.405 262.081 168.377 262.47 169.69 263.778C171.003 265.086 171.397 267.055 170.688 268.766C169.979 270.477 168.307 271.593 166.453 271.593C165.231 271.596 164.058 271.111 163.196 270.246C162.333 269.381 161.853 268.209 161.86 266.988L161.87 267.027ZM120.57 180.983H151.786L160.025 238.644H134.864L120.57 180.983ZM104.054 113.254H142.562L150.849 170.915H118.404L104.054 113.254Z" fill="#19797E"/>
<path id="Oval" d="M54.5 77C59.7467 77 64 72.7467 64 67.5C64 62.2533 59.7467 58 54.5 58C49.2533 58 45 62.2533 45 67.5C45 72.7467 49.2533 77 54.5 77Z" fill="#07ACB5"/>
</g>
<path id="Path_26" d="M215.528 90.7168C215.528 88.1083 213.85 86 211.769 86C209.687 86 208 88.1083 208 90.7168V103H257V90.7168H215.528Z" fill="#D9D9F9"/>
<path id="Path_27" d="M252.251 86H211C213.071 86 214.74 88.1772 214.74 90.871V154H256V90.871C256 88.1772 254.322 86 252.251 86Z" fill="#EFEFFC"/>
<path id="Path_28" d="M237.434 95H221.566C221.253 95 221 94.7761 221 94.5C221 94.2239 221.253 94 221.566 94H237.434C237.747 94 238 94.2239 238 94.5C238 94.7761 237.747 95 237.434 95Z" fill="#D9D9F9"/>
<path id="Path_29" d="M237.434 117H221.566C221.253 117 221 116.776 221 116.5C221 116.224 221.253 116 221.566 116H237.434C237.747 116 238 116.224 238 116.5C238 116.776 237.747 117 237.434 117Z" fill="#D9D9F9"/>
<path id="Path_30" d="M237.434 127H221.566C221.253 127 221 126.776 221 126.5C221 126.224 221.253 126 221.566 126H237.434C237.747 126 238 126.224 238 126.5C238 126.776 237.747 127 237.434 127Z" fill="#D9D9F9"/>
<path id="Path_31" d="M237.434 133H221.566C221.253 133 221 132.776 221 132.5C221 132.224 221.253 132 221.566 132H237.434C237.747 132 238 132.224 238 132.5C238 132.776 237.747 133 237.434 133Z" fill="#D9D9F9"/>
<path id="Path_32" d="M237.434 138H221.566C221.253 138 221 137.776 221 137.5C221 137.224 221.253 137 221.566 137H237.434C237.747 137 238 137.224 238 137.5C238 137.776 237.747 138 237.434 138Z" fill="#D9D9F9"/>
<path id="Path_33" d="M237.434 144H221.566C221.253 144 221 143.776 221 143.5C221 143.224 221.253 143 221.566 143H237.434C237.747 143 238 143.224 238 143.5C238 143.776 237.747 144 237.434 144Z" fill="#D9D9F9"/>
<path id="Path_34" d="M252.42 101H221.58C221.26 101 221 100.776 221 100.5C221 100.224 221.26 100 221.58 100H252.42C252.74 100 253 100.224 253 100.5C253 100.776 252.74 101 252.42 101Z" fill="#D9D9F9"/>
<path id="Path_35" d="M252.42 106H221.58C221.26 106 221 105.776 221 105.5C221 105.224 221.26 105 221.58 105H252.42C252.74 105 253 105.224 253 105.5C253 105.776 252.74 106 252.42 106Z" fill="#D9D9F9"/>
<path id="Path_36" d="M252.42 112H221.58C221.26 112 221 111.776 221 111.5C221 111.224 221.26 111 221.58 111H252.42C252.74 111 253 111.224 253 111.5C253 111.776 252.74 112 252.42 112Z" fill="#D9D9F9"/>
<path id="Path_37" d="M252.42 122H221.58C221.26 122 221 121.776 221 121.5C221 121.224 221.26 121 221.58 121H252.42C252.74 121 253 121.224 253 121.5C253 121.776 252.74 122 252.42 122Z" fill="#D9D9F9"/>
</g>
<g id="translate">
<path id="Rectangle_3" d="M73.83 121H34.17C32.9715 121 32 121.972 32 123.17V145.83C32 147.028 32.9715 148 34.17 148H73.83C75.0285 148 76 147.028 76 145.83V123.17C76 121.972 75.0285 121 73.83 121Z" fill="#07ACB5"/>
<path id="Rectangle_4" d="M76 125H32V128H76V125Z" fill="#19797E"/>
<path id="Rectangle_5" d="M56 133H36V135H56V133Z" fill="#19797E"/>
<path id="Rectangle_6" d="M72 133H58V135H72V133Z" fill="#19797E"/>
<path id="Path_38" d="M25.3109 126.996H5.54031C5.23187 126.966 5 126.753 5 126.5C5 126.247 5.23187 126.034 5.54031 126.004H25.3109C25.5466 125.98 25.7778 126.069 25.9048 126.233C26.0317 126.396 26.0317 126.604 25.9048 126.767C25.7778 126.931 25.5466 127.02 25.3109 126.996Z" fill="#07ACB5"/>
<path id="Path_39" d="M25.3011 133.996H11.548C11.2352 133.966 11 133.753 11 133.5C11 133.247 11.2352 133.034 11.548 133.004H25.3011C25.5402 132.98 25.7747 133.069 25.9034 133.233C26.0322 133.396 26.0322 133.604 25.9034 133.767C25.7747 133.931 25.5402 134.02 25.3011 133.996Z" fill="#07ACB5"/>
<path id="Path_40" d="M26.3009 141.996H16.6991C16.46 142.02 16.2254 141.931 16.0966 141.767C15.9678 141.604 15.9678 141.396 16.0966 141.233C16.2254 141.069 16.46 140.98 16.6991 141.004H26.3009C26.54 140.98 26.7746 141.069 26.9034 141.233C27.0322 141.396 27.0322 141.604 26.9034 141.767C26.7746 141.931 26.54 142.02 26.3009 141.996Z" fill="#07ACB5"/>
</g>
</g>
</g>
</g>
</g>
</g>
</svg>
