<svg xmlns="http://www.w3.org/2000/svg" xmlns:xlink="http://www.w3.org/1999/xlink" width="499" height="206" xmlns:v="https://vecta.io/nano"><defs><filter color-interpolation-filters="auto" id="A"><feColorMatrix in="SourceGraphic" values="0 0 0 0 0.984314 0 0 0 0 0.800000 0 0 0 0 0.745098 0 0 0 1.000000 0"/></filter><path id="B" d="M0 0h8v8H0z"/><path id="C" d="M32 4a4 4 0 1 1-8 0 4 4 0 1 1 8 0"/></defs><g transform="matrix(-1 0 0 -1 498.29494 205.636365)" fill="none" fill-rule="evenodd"><g filter="url(#A)"><g transform="translate(0 20)"><mask id="D" fill="#fff"><use xlink:href="#B"/></mask><g fill="#87c7fb"><path d="M8 4a4 4 0 1 1-8 0 4 4 0 1 1 8 0" mask="url(#D)"/><use xlink:href="#C"/><use xlink:href="#C" x="24"/><use xlink:href="#C" x="48"/><use xlink:href="#C" x="72"/><use xlink:href="#C" x="95"/></g><g transform="translate(0 22)"><mask id="E" fill="#fff"><use xlink:href="#C" href="#B"/></mask><path d="M8 4a4 4 0 1 1-8 0 4 4 0 1 1 8 0" fill="#87c7fb" mask="url(#E)"/></g><g fill="#87c7fb"><use xlink:href="#C" y="22"/><use xlink:href="#C" x="24" y="22"/><use xlink:href="#C" x="48" y="22"/><use xlink:href="#C" x="72" y="22"/><use xlink:href="#C" x="95" y="22"/></g><g transform="translate(0 44)"><mask id="F" fill="#fff"><use xlink:href="#D" href="#B"/></mask><path d="M8 4a4 4 0 1 1-8 0 4 4 0 1 1 8 0" fill="#87c7fb" mask="url(#F)"/></g><g fill="#87c7fb"><use xlink:href="#C" y="44"/><use xlink:href="#C" x="24" y="44"/><use xlink:href="#C" x="48" y="44"/><use xlink:href="#C" x="72" y="44"/><use xlink:href="#C" x="95" y="44"/></g></g></g><path fill="#ff5723" d="M405 2.632h-2.632V0h-2.736v2.632H397v2.736h2.632V8h2.736V5.368H405z"/><path d="M123 173.545c31.894-5.951 54.693-38.966 48.932-69.868-4.561-24.462-24.629-49.665-11.647-74.769C171.283 7.64 198.202-.66 221.107 2.736c46.862 6.948 74.407 50.769 113.68 71.846 22.961 12.323 46.331 14.647 70.495 4.265 23.218-9.974 54.496-36.357 77.527-11.629 52.824 56.727-55.265 131.028-104.28 136.782" stroke="#07acb5" stroke-width="1.944"/><path d="M286 30.5c0 4.694-3.806 8.5-8.5 8.5s-8.5-3.806-8.5-8.5 3.806-8.5 8.5-8.5 8.5 3.806 8.5 8.5M241 27l-11.208 48L195 42.205z" fill="#ff5723"/></g></svg>