<svg width="350" height="278" viewBox="0 0 350 278" fill="none" xmlns="http://www.w3.org/2000/svg">
<style>
    #translate_1,#translate_2,#translate_3{transform-origin:center;transform-box:fill-box}#translate_2,#translate_3{animation:translateY 2s linear infinite}#translate_1{animation:translateX 2s linear infinite}@keyframes translateX{0%,100%{transform:translateX(2px)}50%{transform:translateX(-2px)}}@keyframes translateY{0%,100%{transform:translateY(2px)}50%{transform:translateY(-2px)}}
</style>
<g id="feature_1 1">
<g id="Page-1">
<g id="Landing-Page-FAQ-More">
<g id="Group-20">
<g id="Asset-2">
<g id="Group" opacity="0.37">
<g id="Path" opacity="0.41">
<path id="Vector" opacity="0.41" d="M1.78997 189.964C-0.4941 187.236 -0.611001 183.007 1.54717 180.588C3.70535 178.169 8.81303 176.75 11.1061 179.515C13.3991 182.279 10.1439 186.208 9.36156 189.664C8.2555 194.484 4.07404 192.719 1.78997 189.964Z" fill="#FF5723"/>
</g>
<g id="Path_2" opacity="0.41">
<path id="Vector_2" opacity="0.41" d="M163.92 14.3004C167.596 4.54202 177.999 -1.68458 187.198 0.403213C196.396 2.49101 207.268 13.5278 203.583 23.2862C199.898 33.0446 185.286 30.3498 175.453 33.2009C161.733 37.2386 160.189 24.0588 163.92 14.3004Z" fill="#FF5723"/>
</g>
<g id="Path_3" opacity="0.41">
<path id="Vector_3" opacity="0.41" d="M347.414 148.821C350.29 151.783 350.831 156.469 348.715 160.08C346.609 163.626 341.157 166.825 338.334 164.18C335.511 161.534 338.662 155.829 339.14 151.439C339.803 145.293 344.6 146.185 347.414 148.821Z" fill="#FF5723"/>
</g>
<g id="Path_4" opacity="0.28">
<path id="Vector_4" opacity="0.28" d="M22.8702 247.154C19.5558 227.519 24.8754 210.775 26.203 191.525C27.4573 173.295 22.0187 157.963 18.9973 140.604C16.3054 125.162 17.1661 107.656 20.5813 92.4709C25.1592 71.7443 35.7892 52.55 51.0705 40.8425C74.8758 22.6116 106.629 24.7585 132.933 37.3009C143.921 42.5491 154.615 49.5405 166.417 51.3113C183.621 53.8895 200.367 45.0722 217.131 39.7782C239.948 32.5666 264.998 32.0344 286.524 43.4482C310.934 56.2934 328.293 85.4428 326.261 117.501C325.345 132.025 320.639 146.356 322.305 160.789C323.999 175.469 331.306 187.663 335.169 201.453C340.452 220.262 340.938 247.907 332.423 267H28.5835C25.9254 260.626 24.0083 253.967 22.8702 247.154Z" fill="#FF5723"/>
</g>
<g id="Path_5" opacity="0.66">
<g id="Group_2" opacity="0.47">
<path id="Vector_5" opacity="0.47" d="M276.479 193.707C275.561 183.01 271.365 172.305 264.037 164.646C252.623 152.751 235.36 149.722 220.228 152.476C213.892 153.629 207.602 155.679 201.119 155.029C191.652 154.114 183.314 147.654 174.692 142.932C162.966 136.527 149.514 133.059 137.044 135.85C122.179 139.181 111.201 151.739 109.928 166.869C109.295 174.071 115.667 186.744 113.657 193.57C111.646 200.396 96.7333 221.67 97.1281 237.793C97.523 253.915 100.92 258.838 105.769 267H263.955C266.966 258.765 269.326 252.122 265.791 241.26C262.963 232.586 270.63 225.44 273.605 217.36C276.206 209.761 277.185 201.705 276.479 193.707Z" fill="#FF5723"/>
</g>
</g>
</g>
<g id="translate_2">
<g id="Group 2">
<path id="Rectangle" d="M225.85 132H210.15C209.515 132 209 132.515 209 133.15V142.85C209 143.485 209.515 144 210.15 144H225.85C226.485 144 227 143.485 227 142.85V133.15C227 132.515 226.485 132 225.85 132Z" fill="#FFC09D"/>
<path id="Path_6" d="M232.953 165.268H230.464V141H205.545V165.305H203.056C195.845 165.305 190 171.121 190 178.295V259.948C190 263.843 193.173 267 197.088 267H240.578C242.016 267 243.395 266.432 244.412 265.42C245.429 264.408 246 263.036 246 261.605V178.259C246 171.088 240.16 165.273 232.953 165.268Z" fill="white"/>
<path id="Path_7" opacity="0.1" d="M201.206 259.948V178.259C201.206 171.084 207.145 165.268 214.471 165.268H217V141H205.794V165.305H203.265C195.939 165.305 190 171.121 190 178.295V259.948C190 263.843 193.224 267 197.201 267H208.398C204.425 266.995 201.206 263.839 201.206 259.948Z" fill="#FFC09D"/>
</g>
<path id="Rectangle_2" d="M233.68 139H201.32C200.591 139 200 139.591 200 140.32V145.68C200 146.409 200.591 147 201.32 147H233.68C234.409 147 235 146.409 235 145.68V140.32C235 139.591 234.409 139 233.68 139Z" fill="white"/>
</g>
<path id="Rectangle_3" opacity="0.1" d="M233.68 139H201.32C200.591 139 200 139.591 200 140.32V145.68C200 146.409 200.591 147 201.32 147H233.68C234.409 147 235 146.409 235 145.68V140.32C235 139.591 234.409 139 233.68 139Z" fill="#FFC09D"/>
<path id="Rectangle_4" d="M237 188H198V206H237V188Z" fill="#FFC09D"/>
<g id="translate_1">
<g id="Group 4">
<path id="Oval" d="M288.963 253.882C297.471 240.562 293.553 222.856 280.212 214.333C266.871 205.811 249.158 209.7 240.649 223.02C232.141 236.34 236.058 254.047 249.4 262.569C262.741 271.091 280.454 267.202 288.963 253.882Z" fill="#FCA97C"/>
<path id="Path_8" d="M276.637 212C287.618 221.352 290.024 237.498 282.257 249.709C274.49 261.919 258.966 266.396 246 260.165C254.469 267.414 266.324 269.045 276.4 264.347C286.476 259.649 292.949 249.472 293 238.25C293.051 227.028 286.67 216.791 276.637 212Z" fill="#F98958"/>
<path id="Path_9" d="M276.848 221C276.683 220.997 276.523 220.951 276.383 220.867C275.993 220.614 275.883 220.103 276.136 219.719L278.638 216.009C280.838 212.748 284.094 210.296 287.887 209.043C288.329 208.898 288.807 209.129 288.956 209.559C289.104 209.989 288.867 210.455 288.426 210.6C284.995 211.741 282.05 213.96 280.053 216.908L277.551 220.626C277.396 220.858 277.132 220.998 276.848 221Z" fill="#FF5723"/>
<path id="Path_10" d="M271.249 208.569C271.919 210.73 273.777 212.373 276.096 212.856C278.415 213.339 280.828 212.586 282.391 210.89C283.954 209.194 284.42 206.826 283.605 204.71C282.927 202.771 279.235 199.225 276.381 196.67C275.685 196.05 274.688 195.841 273.781 196.124C272.874 196.407 272.203 197.137 272.03 198.028C271.352 201.699 270.599 206.631 271.249 208.569Z" fill="#006574"/>
</g>
<path id="Path_11" d="M275.999 204.166L277.942 208.122C278.648 209.451 279.262 210.813 279.782 212.202C280.178 213.729 280.032 215.322 279.361 216.776C278.596 218.093 277.735 219.368 276.78 220.591C276.656 220.779 276.449 220.916 276.206 220.972C275.962 221.028 275.703 220.999 275.485 220.891C275.264 220.784 275.102 220.605 275.034 220.395C274.967 220.185 275 219.961 275.125 219.772V219.728C276.03 218.565 277.181 217.348 277.819 216.265C278.485 215.076 278.721 213.745 278.497 212.44C278.108 211.081 277.607 209.747 276.996 208.449L275.311 204.413C275.249 204.262 275.341 204.097 275.516 204.043C275.598 204 275.698 203.989 275.79 204.012C275.882 204.036 275.958 204.092 275.999 204.166Z" fill="#FF5723"/>
<path id="Path_12" d="M254.169 222C253.99 222 253.812 221.962 253.649 221.888C253.073 221.602 252.837 220.916 253.119 220.346C254.357 218.031 256.504 216.312 259.064 215.588C261.332 214.955 263.717 214.831 266.041 215.226C266.661 215.339 267.079 215.914 266.987 216.527C266.89 217.152 266.301 217.586 265.662 217.502C263.678 217.156 261.64 217.251 259.698 217.781C257.754 218.321 256.12 219.617 255.173 221.368C254.979 221.741 254.595 221.982 254.169 222Z" fill="#FFC6A2"/>
<path id="Path_13" d="M280.619 223C278.249 223 274.853 222.195 272.15 218.171C271.969 217.94 271.95 217.64 272.103 217.394C272.255 217.148 272.552 216.996 272.874 217C273.195 217.004 273.487 217.164 273.631 217.414C277.453 223.048 282.59 221.261 282.812 221.181C283.247 221.024 283.746 221.2 283.932 221.575C284.114 221.953 283.917 222.389 283.488 222.557C282.57 222.853 281.598 223.003 280.619 223Z" fill="#FF5723"/>
</g>
<path id="Rectangle_5" d="M143.195 89.0983L164.386 92.2719C168.362 92.8674 171.103 96.5736 170.507 100.55C170.507 100.553 170.507 100.555 170.506 100.558L160.985 163.647C160.385 167.62 156.681 170.355 152.708 169.76L131.517 166.587C127.541 165.991 124.8 162.285 125.396 158.309C125.396 158.306 125.397 158.303 125.397 158.301L134.919 95.2116C135.518 91.2391 139.222 88.5032 143.195 89.0983Z" fill="#FCA97C"/>
<path id="Path_14" d="M154.875 90.6243L151.896 90.1774C145.76 89.2794 139.63 91.8367 136 96.8086C139.512 94.2783 143.89 93.2166 148.187 93.8533L151.167 94.2911C160.22 95.6501 166.452 103.999 165.097 112.953L158.27 157.849C157.876 160.435 156.853 162.889 155.291 165C158.905 162.434 161.317 158.533 161.979 154.182L168.815 109.287C170.17 100.329 163.933 91.9788 154.875 90.6243Z" fill="#FFA06C"/>
<path id="Path_15" d="M158.835 108.978L144.611 106.807C144.111 106.743 143.659 106.474 143.36 106.062C143.061 105.65 142.941 105.131 143.028 104.627C143.093 104.123 143.358 103.667 143.761 103.365C144.164 103.063 144.67 102.941 145.164 103.027L159.397 105.198C160.423 105.361 161.129 106.333 160.98 107.378C160.82 108.42 159.861 109.135 158.835 108.978Z" fill="#FFC09D"/>
<path id="Path_16" d="M158.835 120.978L144.611 118.807C144.111 118.743 143.659 118.474 143.36 118.062C143.061 117.65 142.941 117.131 143.028 116.627C143.093 116.123 143.358 115.667 143.761 115.365C144.164 115.063 144.67 114.941 145.164 115.027L159.397 117.198C160.423 117.361 161.129 118.333 160.98 119.378C160.82 120.42 159.861 121.135 158.835 120.978Z" fill="#FFC09D"/>
<path id="Oval_2" d="M179.477 145.418C181.703 135.891 175.757 126.357 166.197 124.124C156.637 121.89 147.083 127.803 144.857 137.33C142.632 146.857 148.577 156.391 158.137 158.624C167.697 160.858 177.251 154.945 179.477 145.418Z" fill="#FF5723"/>
<path id="Path_17" d="M123 132.056C123.031 141.997 131.115 150.031 141.056 150C150.997 149.969 159.031 141.885 159 131.944C158.969 122.003 150.885 113.969 140.944 114C131.005 114.036 122.974 122.117 123 132.056Z" fill="#FF5723"/>
<path id="Path_18" d="M102 146.059C102.056 164.309 110.164 179.036 120.102 179C130.04 178.963 138.055 164.172 138 145.95C137.944 127.728 129.836 112.973 119.889 113C109.941 113.027 101.945 127.828 102 146.059Z" fill="#F98958"/>
<path id="Path_19" d="M69 103.373L71.1713 158L109 156.452L100.324 103L69 103.373Z" fill="#FF5723"/>
<path id="Shape" d="M91.9319 160C91.6858 159.999 91.4468 159.915 91.2519 159.76C91.0188 159.57 90.8703 159.29 90.8403 158.985L85.0068 103.477C84.9724 103.159 85.0699 102.84 85.2752 102.6C85.483 102.361 85.7777 102.22 86.0894 102.213L98.508 102C99.083 101.988 99.5704 102.434 99.6264 103.025L104.995 157.186C105.053 157.799 104.63 158.35 104.037 158.431L92.075 159.991L91.9319 160ZM87.7273 104.901L93.2981 158.159L103.182 156.882L97.9704 104.762L87.7273 104.901Z" fill="#94E3BC"/>
<path id="Path_20" d="M114.859 105.834C113.705 98.7193 107.442 93.5571 100.215 93.7639C100.209 93.2022 100.166 92.6414 100.087 92.0852C99.0165 84.3393 91.5757 79.0203 83.4851 80.1516C76.963 81.0158 71.8114 86.0952 70.8733 92.587C69.5035 92.4042 68.1154 92.4042 66.7456 92.587C58.6641 93.7457 53.0172 100.962 54.1429 108.717C55.3106 116.014 61.8358 121.24 69.235 120.806C69.2306 120.833 69.2306 120.861 69.235 120.888C70.3607 128.634 77.8473 133.98 85.8921 132.849C91.8138 132.058 96.6732 127.786 98.2019 122.029C99.5503 122.211 100.917 122.211 102.266 122.029C110.338 120.797 115.976 113.58 114.859 105.834Z" fill="#FF5723"/>
<path id="Path_21" d="M114.859 105.906C114.532 103.774 113.699 101.749 112.428 100C113.185 107.767 107.582 114.724 99.7793 115.706C98.4277 115.882 97.0585 115.882 95.7068 115.706C94.1862 121.465 89.309 125.743 83.3608 126.534C75.2707 127.69 67.7677 122.367 66.6762 114.641C66.6718 114.614 66.6718 114.586 66.6762 114.559C61.6998 114.798 56.936 112.538 54 108.544C54 108.626 54 108.717 54 108.808C55.1831 116.078 61.7245 121.278 69.1344 120.838C69.13 120.865 69.13 120.893 69.1344 120.92C70.2626 128.645 77.7656 133.978 85.8281 132.849C91.7629 132.06 96.6329 127.8 98.165 122.057C99.5163 122.239 100.886 122.239 102.238 122.057C110.328 120.829 115.978 113.631 114.859 105.906Z" fill="#FF5723"/>
<path id="Oval_3" d="M123.534 164.796C132.612 161.067 136.227 148.93 131.608 137.686C126.99 126.442 115.887 120.349 106.809 124.078C97.7311 127.807 94.1159 139.944 98.7343 151.188C103.353 162.432 114.456 168.525 123.534 164.796Z" fill="#F98958"/>
<path id="Path_22" d="M126 154.056C126.031 163.997 134.115 172.031 144.056 172C153.997 171.969 162.031 163.885 162 153.944C161.969 144.003 153.885 135.969 143.944 136C139.17 136.015 134.598 137.925 131.233 141.312C127.868 144.698 125.985 149.282 126 154.056Z" fill="#FF5723"/>
<path id="Path_23" d="M185.586 133.05L186 264.827C186.005 265.126 185.889 265.414 185.677 265.626C185.466 265.838 185.178 265.957 184.878 265.954L89.2539 266C88.6379 266 76.7584 260.978 76.7584 260.355L74 142.26L85.6864 138.521C86.1284 138.779 86.6887 138.712 87.0564 138.356L93.8788 131.657C94.28 131.254 94.9205 131.214 95.3683 131.565L104.048 138.374C104.451 138.677 105.006 138.677 105.409 138.374L114.935 131.4C115.288 131.138 115.763 131.105 116.148 131.318L129.186 138.457C129.564 138.667 130.029 138.642 130.382 138.393L140.496 131.208C140.857 130.952 141.335 130.931 141.718 131.153L153.938 138.347C154.313 138.59 154.796 138.59 155.17 138.347L165.183 131.226C165.583 130.925 166.135 130.925 166.535 131.226L175.215 138.081C175.627 138.416 176.218 138.416 176.631 138.081L183.784 132.17C184.123 131.92 184.574 131.88 184.953 132.065C185.332 132.25 185.576 132.63 185.586 133.05Z" fill="#07ACB5"/>
<path id="Shape_2" opacity="0.5" d="M134.91 167.119L135.004 167V167.119L135.099 167.238V167.357L135.193 167.476V167.595L135.288 167.832L135.382 167.951C136.437 170.574 139.069 177.885 139.069 186.5C139.069 194.943 136.542 202.133 135.477 204.811L135.382 205.049C135.358 205.071 135.345 205.102 135.288 205.168V205.287L135.193 205.405L135.099 205.643L135.004 205.762V206L134.91 205.881V205.762L134.815 205.643L134.721 205.524V205.405L134.626 205.168C134.605 205.19 134.593 205.161 134.626 205.168L134.532 204.93C133.436 202.313 130.845 195.049 130.845 186.5C130.845 177.885 133.477 170.574 134.532 167.951L134.626 167.832L134.721 167.595V167.476L134.815 167.357V167.238L134.91 167.119ZM160.78 179.071H161V179.302H160.89V179.418V179.649L160.78 179.764V179.88L160.67 180.111C159.885 182.812 157.276 190.12 151.66 196.049C149.066 198.745 146.218 200.784 143.638 202.286L143.748 202.055C143.819 202.056 143.845 202.023 143.858 201.939L144.077 201.824C144.157 201.62 144.288 201.449 144.407 201.246L144.627 201.015C146.486 198.487 148.423 195.311 149.901 191.66C151.034 188.688 151.758 185.755 152.209 182.998C153.534 182.235 154.812 181.567 155.945 181.035L156.165 180.919C156.244 180.891 156.284 180.873 156.275 180.804L156.605 180.688C156.719 180.675 156.873 180.606 157.044 180.573L157.264 180.457C157.358 180.395 157.467 180.348 157.594 180.342L157.813 180.226C157.821 180.201 157.855 180.187 157.923 180.226L158.143 180.111C158.127 180.076 158.16 180.063 158.143 179.995H158.363L158.583 179.88H158.802L158.912 179.764L159.132 179.649H159.242L159.462 179.533H159.571L159.681 179.418H159.901H160.011L160.231 179.302H160.341L160.56 179.187H160.67L160.78 179.071ZM108 178.258V178.143H108.11L108.22 178.258H108.44H108.549L108.659 178.374H108.769L108.989 178.489H109.099H109.319L109.429 178.605H109.538L109.758 178.72H109.868L110.088 178.836L110.198 178.951H110.418L110.637 179.067H110.857L110.967 179.182C111.076 179.23 111.144 179.258 111.187 179.298L111.406 179.413C111.497 179.405 111.569 179.435 111.626 179.413L111.846 179.529C112.05 179.643 112.242 179.728 112.395 179.76L112.725 179.875C112.716 179.944 112.756 179.963 112.835 179.991L113.055 180.106C114.188 180.638 115.466 181.307 116.791 182.07C117.243 184.827 117.966 187.759 119.099 190.732C120.279 193.625 121.738 196.232 123.274 198.47L123.384 198.701C123.743 199.199 124.084 199.677 124.373 200.087L124.593 200.318L124.703 200.549C124.816 200.657 124.895 200.759 124.923 200.895L125.142 201.011C125.155 201.094 125.181 201.127 125.252 201.126L125.362 201.357C122.783 199.856 119.934 197.816 117.34 195.12C111.724 189.191 109.115 181.883 108.33 179.182L108.22 178.951V178.836L108.11 178.72V178.489V178.374L108 178.258ZM119.197 168.978V168.857L119.313 168.978H119.429L119.545 169.099L119.661 169.22L119.892 169.34L120.008 169.582L120.124 169.703L120.24 169.823L120.356 169.944L120.587 170.065L120.703 170.186L120.819 170.307L121.051 170.427L121.166 170.548L121.282 170.79C121.35 170.773 121.376 170.799 121.398 170.79L121.514 171.031C121.59 171.008 121.617 171.035 121.63 171.031L121.861 171.273C121.838 171.255 121.867 171.284 121.861 171.273L122.093 171.515L122.209 171.635C122.331 171.757 122.421 171.851 122.556 171.998L122.672 172.118C122.757 172.205 122.819 172.271 122.904 172.36L123.02 172.602C124.057 173.615 125.149 174.905 126.263 176.346C125.632 179.196 125.211 182.331 125.22 185.647C125.211 189.738 125.849 193.544 126.726 196.76V197.001L126.842 197.364L126.958 197.605C126.925 197.654 126.948 197.739 126.958 197.847L127.074 198.088V198.33L127.19 198.571C125.257 196.038 123.269 192.871 121.861 189.15C118.754 181.496 118.841 173.753 119.081 170.427V170.186C119.081 170.15 119.087 170.074 119.081 169.944V169.823V169.582L119.197 169.461V169.34V169.099V168.978ZM149.687 170.835L149.803 170.714V170.835V170.956V171.077V171.197L149.919 171.318C149.87 171.425 149.875 171.486 149.919 171.56V171.801C149.907 171.855 149.916 171.968 149.919 172.043V172.285C150.159 175.611 150.246 183.353 147.139 191.007C145.73 194.728 143.743 197.895 141.81 200.429V200.308L141.926 200.066L142.042 199.825C142.004 199.765 142.016 199.723 142.042 199.704V199.462C142.111 199.384 142.123 199.341 142.158 199.341V199.1C142.344 198.521 142.478 197.987 142.621 197.409V197.167C142.7 197.026 142.731 196.887 142.737 196.805L142.853 196.443C143.397 193.743 143.788 190.712 143.78 187.504C143.788 184.188 143.367 181.053 142.737 178.203C144.133 176.379 145.506 174.82 146.675 173.613L146.791 173.492C146.875 173.403 146.904 173.373 146.907 173.372L147.139 173.13C147.133 173.141 147.162 173.113 147.139 173.13L147.37 172.889L147.486 172.768C147.545 172.733 147.571 172.707 147.602 172.647L147.718 172.526L147.949 172.405L148.065 172.285L148.181 172.164L148.297 172.043L148.413 171.922L148.644 171.681L148.876 171.56L148.992 171.439L149.108 171.197H149.224L149.339 171.077L149.455 170.956L149.687 170.835Z" fill="white"/>
<path id="Path_24" d="M56.3097 138.378L55.8842 249.272L50 267L72.2043 266.513H96L87.7566 249.144L87.2848 138.212L72.5559 142.879L57.753 137C56.9846 137.018 56.3576 137.616 56.3097 138.378Z" fill="#19797E"/>
<path id="Path_25" opacity="0.31" d="M59.142 263C58.8543 263.001 58.5769 262.893 58.367 262.698C57.9041 262.272 57.8752 261.554 58.3024 261.093L70.7211 247.83V143.035C70.7742 142.449 71.2685 142 71.8605 142C72.4526 142 72.9469 142.449 73 143.035V248.692L59.9724 262.633C59.7591 262.865 59.4581 262.998 59.142 263Z" fill="white"/>
<g id="translate_3">
<path id="Path_26" d="M253.961 156.225H263.905C264.272 156.228 264.622 156.378 264.877 156.643C265.132 156.908 265.271 157.265 265.261 157.633L264.855 169.599C264.839 170.147 265.152 170.652 265.65 170.878C266.148 171.105 266.733 171.009 267.133 170.636L282.104 156.596C282.355 156.361 282.684 156.229 283.026 156.225H304.039C305.674 156.225 307 154.894 307 153.252V102.973C307 101.331 305.674 100 304.039 100H253.961C252.326 100 251 101.331 251 102.973V153.252C251 154.894 252.326 156.225 253.961 156.225Z" fill="#FF5723"/>
<path id="Shape_3" d="M272.721 134C270.828 133.999 268.972 133.49 267.36 132.53C265.126 131.197 261.84 126.887 257.616 119.702C256.77 118.28 256.797 116.526 257.686 115.129C258.575 113.733 260.184 112.918 261.878 113.007C270.421 113.424 275.884 114.304 278.119 115.638C281.652 117.74 283.528 121.693 282.87 125.652C282.212 129.612 279.152 132.799 275.115 133.728C274.33 133.909 273.527 134 272.721 134ZM261.742 114.826C260.712 114.831 259.763 115.359 259.247 116.213C258.732 117.067 258.727 118.119 259.235 118.977C263.192 125.628 266.429 129.922 268.346 131.052C272.332 133.295 277.457 132.073 279.881 128.301C282.304 124.53 281.136 119.593 277.252 117.193C275.325 116.054 269.871 115.221 261.892 114.835L261.742 114.826Z" fill="white"/>
<path id="Path_27" d="M282.197 140C281.777 139.994 281.425 139.67 281.371 139.24L280.796 134.349C280.381 130.894 278.375 127.858 275.408 126.197L265.476 120.639C265.197 120.502 265.014 120.217 265.001 119.898C264.988 119.579 265.147 119.279 265.414 119.118C265.681 118.957 266.012 118.961 266.275 119.129L276.207 124.687C279.635 126.623 281.949 130.144 282.422 134.145L282.996 139.037C283.038 139.498 282.715 139.91 282.269 139.963L282.197 140Z" fill="white"/>
<path id="Shape_4" d="M290.789 136C287.757 136.01 285.088 133.909 284.259 130.858C283.429 127.807 284.641 124.552 287.225 122.892C288.678 121.948 292.179 121.334 297.62 121.004C298.794 120.943 299.906 121.556 300.522 122.603C301.138 123.65 301.16 124.965 300.579 126.034C297.872 130.989 295.779 133.971 294.326 134.915C293.266 135.612 292.041 135.987 290.789 136ZM297.699 122.875H297.61C292.759 123.134 289.319 123.699 288.175 124.431C286.649 125.411 285.741 127.168 285.792 129.037C285.842 130.907 286.845 132.607 288.421 133.496C289.997 134.385 291.908 134.328 293.433 133.347C294.568 132.616 296.608 129.644 299.011 125.255C299.278 124.764 299.277 124.162 299.007 123.673C298.737 123.184 298.239 122.88 297.699 122.875Z" fill="white"/>
<path id="Path_28" d="M282.844 147C282.378 147 282 146.618 282 146.147V139.829L282.367 136.694C282.681 134.1 284.211 131.818 286.477 130.563L292.78 127.084C293.189 126.887 293.679 127.048 293.896 127.449C294.113 127.851 293.981 128.355 293.596 128.596L287.294 132.075C285.509 133.062 284.304 134.857 284.055 136.898L283.688 139.941V146.147C283.683 146.616 283.308 146.995 282.844 147Z" fill="white"/>
</g>
<path id="Path_29" d="M251.076 221.194C239.809 200.387 219.502 214.963 219.502 214.963C219.502 214.963 199.168 200.387 187.928 221.194C178.196 239.162 193.742 266.752 219.502 267C245.253 266.752 260.8 239.162 251.076 221.194Z" fill="#FF5723"/>
<path id="Path_30" d="M252.243 224C256.072 241.324 241.266 262.997 218.416 263.207C202.549 263.061 190.566 252.566 186 240.412C189.33 254.089 202.097 266.854 219.569 267C244.107 266.726 259.365 241.762 252.243 224Z" fill="#FF5723"/>
<path id="Path_31" d="M219.069 219C218.819 219 218.58 218.911 218.403 218.753C218.227 218.595 218.128 218.381 218.128 218.157V213.516C218.109 209.833 216.728 206.26 214.201 203.355C214.046 203.18 213.977 202.957 214.007 202.735C214.037 202.514 214.166 202.313 214.363 202.176C214.772 201.893 215.359 201.958 215.679 202.322C218.471 205.535 219.991 209.489 220 213.561V218.202C219.978 218.649 219.568 219 219.069 219Z" fill="#FF5723"/>
<path id="Path_32" d="M230.092 210.561C227.137 212.837 222.836 212.362 220.486 209.5C218.136 206.639 218.626 202.474 221.581 200.199C223.347 198.834 228.751 197.713 232.784 197.04C233.772 196.872 234.777 197.24 235.402 197.999C236.028 198.759 236.175 199.789 235.785 200.684C234.202 204.347 231.867 209.187 230.092 210.561Z" fill="#006574"/>
<path id="Path_33" d="M228.877 203.612L225.108 206.497C223.847 207.39 222.65 208.374 221.526 209.44C220.563 210.544 219.946 211.918 219.755 213.383C219.613 214.759 219.755 216.49 219.755 218.048V218.106C219.755 218.6 219.362 219 218.878 219C218.394 219 218.002 218.6 218.002 218.106V218.048C217.986 216.406 218.074 214.764 218.266 213.133C218.615 211.422 219.455 209.855 220.678 208.632C221.918 207.588 223.222 206.625 224.58 205.747L228.482 203.054C228.549 203.007 228.632 202.99 228.712 203.006C228.791 203.022 228.861 203.071 228.906 203.141C228.971 203.203 229.005 203.292 228.999 203.383C228.994 203.474 228.949 203.558 228.877 203.612Z" fill="#FF5723"/>
<path id="Path_34" d="M191.092 225.987C190.986 226.004 190.879 226.004 190.773 225.987C190.198 225.8 189.874 225.165 190.046 224.563C190.639 222.287 191.717 220.179 193.201 218.399C194.859 216.379 197.237 215.153 199.783 215.007C200.196 214.96 200.599 215.161 200.825 215.525C201.05 215.889 201.059 216.355 200.848 216.728C200.637 217.101 200.242 217.319 199.828 217.29C197.88 217.386 196.056 218.316 194.786 219.859C193.534 221.396 192.625 223.205 192.128 225.155C191.999 225.642 191.576 225.98 191.092 225.987Z" fill="#AD3F1D"/>
<path id="Path_35" d="M219.059 219C216.321 219.013 213.737 217.646 212.083 215.309C211.898 214.893 212.03 214.396 212.391 214.146C212.752 213.897 213.23 213.973 213.508 214.324C213.636 214.531 216.881 219.512 223.774 215.87C223.976 215.761 224.21 215.744 224.424 215.822C224.638 215.899 224.814 216.065 224.913 216.283C225.119 216.735 224.947 217.279 224.527 217.504C222.836 218.447 220.965 218.96 219.059 219Z" fill="#FF5723"/>
<path id="Path_36" d="M127.211 233.021C129.175 234.31 139.311 238.02 147.343 240.843C148.524 241.257 149.841 240.83 150.538 239.807C151.235 238.783 151.135 237.425 150.294 236.512C144.597 230.316 137.263 222.494 135.281 221.206C131.957 219.018 127.457 219.89 125.228 223.152C123 226.415 123.888 230.833 127.211 233.021Z" fill="#FF5723"/>
<path id="Path_37" d="M134.27 224.486C136.234 225.786 143.579 233.639 149.285 239.826C149.341 239.881 149.35 239.945 149.397 240C150.242 238.984 150.194 237.511 149.285 236.549C143.588 230.344 136.253 222.509 134.27 221.219C131.8 219.576 128.556 219.595 126.106 221.267C123.656 222.939 122.502 225.919 123.202 228.77C123.395 227.941 123.738 227.153 124.217 226.445C125.285 224.873 126.945 223.784 128.831 223.417C130.716 223.049 132.673 223.434 134.27 224.486Z" fill="#FF5723"/>
<path id="Path_38" d="M146.164 249.196C138.098 251.606 127.793 254.573 125.451 254.673C122.248 254.81 119.342 252.823 118.335 249.808C118.02 250.786 117.926 251.82 118.059 252.838C118.593 256.728 122.205 259.456 126.133 258.937C128.447 258.626 138.467 254.792 146.293 251.706C147.001 251.429 147.558 250.868 147.826 250.162C148.095 249.457 148.05 248.671 147.703 248C147.365 248.581 146.814 249.009 146.164 249.196Z" fill="#FF5723"/>
<path id="Path_39" d="M126.026 254.993C128.338 254.882 138.514 251.88 146.477 249.45C147.079 249.498 147.645 249.152 147.884 248.59C148.124 248.027 147.984 247.372 147.536 246.96C147.088 246.549 146.432 246.473 145.904 246.77C137.64 245.846 127.091 244.747 124.807 245.052C122.069 245.43 119.801 247.394 119 250.078C119.997 253.126 122.866 255.132 126.026 254.993Z" fill="#FF5723"/>
<path id="Path_40" d="M120.311 228.213C123.245 228.949 135.558 235.35 145.141 240.471C146.567 241.223 147.29 242.839 146.891 244.387C146.492 245.934 145.075 247.013 143.458 247C132.542 246.954 118.629 246.746 115.695 246.01C110.883 244.62 108.052 239.716 109.291 234.919C110.53 230.123 115.395 227.157 120.293 228.213H120.311Z" fill="#FF5723"/>
<path id="Path_41" opacity="0.47" d="M112.422 238.074C113.028 235.71 114.558 233.681 116.673 232.437C118.788 231.192 121.315 230.833 123.698 231.44C126.445 232.14 137.685 237.965 147 242.946C146.828 241.923 146.184 241.039 145.26 240.556C135.706 235.43 123.441 229.022 120.528 228.286C116.096 227.164 111.503 229.428 109.727 233.61C107.95 237.793 109.525 242.636 113.429 245C112.183 242.915 111.821 240.424 112.422 238.074Z" fill="#FF5723"/>
<path id="Path_42" d="M166.554 229.485C172.395 230.864 197.021 243.363 216.237 253.376C219.063 254.861 220.538 258.103 219.82 261.252C219.102 264.4 216.374 266.653 213.193 266.724C191.602 267.106 164.079 267.292 158.239 265.904C151.835 264.393 146.711 259.527 144.797 253.137C142.884 246.748 144.47 239.806 148.96 234.928C153.45 230.049 160.16 227.974 166.564 229.485H166.554Z" fill="#FCA97C"/>
<path id="Path_43" d="M149.246 234C144.378 239.094 142.715 246.987 145.031 254C146.88 252.15 148.556 248.699 149.419 244.527C150.282 240.355 150.15 236.59 149.246 234Z" fill="#F98958"/>
<path id="Path_44" d="M158.062 265C157.906 265.002 157.749 264.979 157.598 264.934C157.06 264.797 156.593 264.417 156.304 263.882C156.015 263.347 155.927 262.701 156.061 262.091L157.963 252.757C158.241 251.526 159.329 250.773 160.414 251.061C161.499 251.35 162.184 252.574 161.956 253.819L160.055 263.152C159.856 264.227 159.025 264.997 158.062 265Z" fill="#F98958"/>
<path id="Path_45" d="M182.057 251C181.901 251 181.745 250.981 181.593 250.943C181.058 250.802 180.594 250.423 180.306 249.89C180.018 249.358 179.929 248.716 180.058 248.108L181.966 238.753C182.244 237.525 183.331 236.774 184.415 237.061C185.499 237.349 186.184 238.57 185.956 239.811L184.048 249.167C183.846 250.235 183.017 250.998 182.057 251Z" fill="#F98958"/>
<path id="Path_46" d="M199.578 265C199.382 265.001 199.186 264.979 198.996 264.934C198.325 264.796 197.743 264.42 197.382 263.889C197.02 263.359 196.91 262.72 197.075 262.115L197.926 258.799C198.134 257.99 198.803 257.342 199.682 257.101C200.56 256.859 201.515 257.06 202.185 257.627C202.856 258.194 203.141 259.042 202.933 259.851L202.081 263.252C201.787 264.284 200.756 265.004 199.578 265Z" fill="#F98958"/>
<path id="Path_47" d="M169.91 238C169.688 238.001 169.472 237.924 169.292 237.781C162.696 232.696 155.977 237.582 155.694 237.781C155.194 238.153 154.521 238.003 154.184 237.443C154.023 237.172 153.965 236.841 154.021 236.522C154.077 236.202 154.244 235.921 154.485 235.741C154.82 235.492 162.696 229.7 170.528 235.741C170.921 236.047 171.092 236.606 170.951 237.121C170.809 237.636 170.388 237.988 169.91 237.99V238Z" fill="#FFC6A2"/>
</g>
</g>
</g>
</g>
</g>
</svg>
