<svg xmlns="http://www.w3.org/2000/svg" xmlns:xlink="http://www.w3.org/1999/xlink" width="175" height="52" xmlns:v="https://vecta.io/nano"><style><![CDATA[.B{fill:#fefefe}.C{stroke:#fefefe}.D{stroke-width:.2}.E{fill:#fff}]]></style><defs><path id="A" d="M0 0h175v52H0z"/><path id="B" d="M0 52h175V0H0z"/><path d="M0 5.365v.19.19l5.349 5.366.123-.07 6.338-3.61c1.81-1.032 1.81-2.721 0-3.752h0L5.472.068 5.351 0 0 5.365z" id="C"/><linearGradient x1="80.7496997%" y1="49.9966713%" x2="-157.282076%" y2="49.9966713%" id="D"><stop stop-color="#fefefe" offset="0%"/><stop stop-color="#f8f8f8" offset="100%"/></linearGradient><path d="M0 16.189c.596.632 1.583.711 2.691.079h0L21.613 5.486 16.141 0 0 16.189z" id="E"/><linearGradient x1="86.2443352%" y1="30.793206%" x2="-50.1405068%" y2="136.502805%" id="F"><stop stop-color="#ee4547" offset="0%"/><stop stop-color="#c7186d" offset="100%"/></linearGradient><path d="M0 .516l16.141 16.189 5.472-5.487L2.691.437C2.171.14 1.679 0 1.241 0h0C.744 0 .316.179 0 .516" id="G"/><linearGradient x1="-50.749008%" y1="-36.9780965%" x2="60.6063708%" y2="49.3354022%" id="H"><stop stop-color="#73c169" offset="0%"/><stop stop-color="#289e6f" offset="100%"/></linearGradient></defs><g fill="none" fill-rule="evenodd"><mask id="I" class="E"><use xlink:href="#A"/></mask><path d="M168.519 52H6.481C2.917 52 0 49.075 0 45.5v-39C0 2.925 2.917 0 6.481 0h162.037C172.083 0 175 2.925 175 6.5v39c0 3.575-2.917 6.5-6.481 6.5" fill="#010202" mask="url(#I)"/><mask id="J" class="E"><use xlink:href="#B" href="#A"/></mask><path d="M168.519 0H6.481C2.917 0 0 2.925 0 6.5v39C0 49.075 2.917 52 6.481 52h162.037c3.565 0 6.481-2.925 6.481-6.5v-39c0-3.575-2.917-6.5-6.481-6.5m0 1.04a5.46 5.46 0 0 1 5.443 5.46v39a5.46 5.46 0 0 1-5.443 5.46H6.481a5.46 5.46 0 0 1-5.444-5.46v-39a5.46 5.46 0 0 1 5.444-5.46h162.037" fill="#a6a6a5" mask="url(#J)"/><mask id="K" class="E"><use xlink:href="#B"/></mask><path d="M138.622 39h2.418V22.749h-2.418V39zm21.786-10.397l-2.773 7.046h-.083l-2.876-7.046h-2.607l4.315 9.848-2.459 5.478h2.523l6.65-15.326h-2.69zm-13.719 8.551c-.792 0-1.896-.397-1.896-1.379 0-1.256 1.375-1.736 2.564-1.736 1.063 0 1.563.229 2.21.543-.187 1.505-1.479 2.571-2.878 2.571h0zm.293-8.906c-1.753 0-3.566.774-4.315 2.488l2.147.898c.459-.898 1.313-1.192 2.21-1.192 1.251 0 2.523.753 2.543 2.09v.168c-.438-.251-1.375-.627-2.523-.627-2.314 0-4.671 1.275-4.671 3.658 0 2.175 1.898 3.575 4.025 3.575 1.626 0 2.521-.732 3.085-1.589h.083v1.255h2.335v-6.23c0-2.886-2.147-4.495-4.919-4.495h0zm-14.949 2.334h-3.44v-5.572h3.44c1.808 0 2.835 1.503 2.835 2.786 0 1.26-1.027 2.786-2.835 2.786h0zm-.062-7.832h-5.797V39h2.419v-6.157h3.378c2.681 0 5.316-1.947 5.316-5.048s-2.635-5.047-5.316-5.047h0zm-31.605 14.408c-1.671 0-3.07-1.403-3.07-3.329 0-1.947 1.399-3.372 3.07-3.372 1.65 0 2.945 1.425 2.945 3.372 0 1.927-1.295 3.329-2.945 3.329h0zm2.778-7.644h-.084c-.543-.649-1.587-1.235-2.902-1.235-2.757 0-5.284 2.428-5.284 5.55 0 3.099 2.526 5.508 5.284 5.508 1.316 0 2.359-.586 2.902-1.257h.084v.796c0 2.115-1.128 3.246-2.945 3.246-1.483 0-2.401-1.067-2.777-1.968l-2.11.88c.605 1.466 2.214 3.267 4.887 3.267 2.84 0 5.241-1.676 5.241-5.759v-9.928h-2.296v.901zM107.11 39h2.423V22.749h-2.423V39zm5.994-5.361c-.064-2.136 1.65-3.225 2.882-3.225.961 0 1.776.481 2.047 1.173l-4.929 2.053zm7.519-1.843c-.459-1.236-1.859-3.518-4.72-3.518-2.84 0-5.199 2.24-5.199 5.528 0 3.101 2.337 5.53 5.47 5.53 2.528 0 3.99-1.55 4.594-2.45l-1.878-1.257c-.626.922-1.483 1.529-2.716 1.529s-2.109-.564-2.673-1.674l7.372-3.059-.25-.628zm-58.734-1.821v2.345h5.597c-.167 1.32-.605 2.283-1.274 2.952-.814.818-2.088 1.719-4.323 1.719-3.446 0-6.139-2.786-6.139-6.243s2.694-6.24 6.139-6.24a5.96 5.96 0 0 1 4.219 1.674l1.65-1.654c-1.399-1.34-3.259-2.367-5.87-2.367-4.719 0-8.688 3.854-8.688 8.586s3.969 8.588 8.688 8.588c2.549 0 4.471-.839 5.973-2.409 1.545-1.55 2.026-3.727 2.026-5.487a7.71 7.71 0 0 0-.124-1.465h-7.875zm14.363 7.182c-1.672 0-3.112-1.382-3.112-3.351 0-1.989 1.44-3.35 3.112-3.35s3.111 1.361 3.111 3.35c0 1.97-1.44 3.351-3.111 3.351h0zm0-8.879c-3.05 0-5.535 2.324-5.535 5.528 0 3.185 2.485 5.53 5.535 5.53s5.534-2.345 5.534-5.53c0-3.203-2.486-5.528-5.534-5.528h0zm12.072 8.879c-1.671 0-3.111-1.382-3.111-3.351 0-1.989 1.44-3.35 3.111-3.35s3.111 1.361 3.111 3.35c0 1.97-1.44 3.351-3.111 3.351h0zm0-8.879c-3.05 0-5.534 2.324-5.534 5.528 0 3.185 2.484 5.53 5.534 5.53s5.535-2.345 5.535-5.53c0-3.203-2.486-5.528-5.535-5.528h0z" mask="url(#K)" class="B"/><path d="M13.527 9.811c-.377.4-.599 1.021-.599 1.825v28.727c0 .805.222 1.425.599 1.824l.096.095L29.668 26.19V26v-.19L13.623 9.718l-.096.094z" fill="#5ac8f2" mask="url(#K)"/><g transform="translate(29.668 20.445)"><mask id="L" class="E"><use xlink:href="#C"/></mask><path d="M0 5.365v.19.19l5.349 5.366.123-.07 6.338-3.61c1.81-1.032 1.81-2.721 0-3.752h0L5.472.068 5.351 0 0 5.365z" fill="url(#D)" mask="url(#L)"/></g><g transform="translate(13.527 26)"><mask id="M" class="E"><use xlink:href="#E"/></mask><path d="M0 16.189c.596.632 1.583.711 2.691.079h0L21.613 5.486 16.141 0 0 16.189z" fill="url(#F)" mask="url(#M)"/></g><g transform="translate(13.527 9.295)"><mask id="N" class="E"><use xlink:href="#G"/></mask><path d="M0 .516l16.141 16.189 5.472-5.487L2.691.437C2.171.14 1.679 0 1.241 0h0C.744 0 .316.179 0 .516" fill="url(#H)" mask="url(#N)"/></g><path d="M92.43 11.043c-.223.321-.529.671-.919 1.048-.423-.335-.765-.645-1.024-.93l.997-1.046a11.59 11.59 0 0 0 .946.928m-1.136 7.813c-.813 0-1.445-.233-1.902-.702s-.682-1.13-.682-1.986a5.51 5.51 0 0 1 .053-.779c.034-.243.11-.601.226-1.071l.522.126c-.108.419-.161.758-.161 1.019 0 .698.175 1.242.522 1.63s.834.584 1.454.584c.706 0 1.409-.173 2.11-.517s1.171-.768 1.406-1.27c-.621-1.365-.932-2.274-.932-2.731a1.14 1.14 0 0 1 .209-.669c.139-.2.381-.403.723-.607l.327 1.85.008.056a2.29 2.29 0 0 0 1.038.237c.078 0 .118.04.118.12v.851c0 .079-.04.118-.118.118a2.06 2.06 0 0 1-.863-.174l.019.412c0 .586-.185 1.148-.556 1.682s-.88.974-1.524 1.313-1.312.51-1.999.51" class="B"/><path d="M92.43 11.043c-.223.321-.529.671-.919 1.048-.423-.335-.765-.645-1.024-.93l.997-1.046a11.59 11.59 0 0 0 .946.928zm-1.136 7.813c-.813 0-1.445-.233-1.902-.702s-.682-1.13-.682-1.986a5.51 5.51 0 0 1 .053-.779c.034-.243.11-.601.226-1.071l.522.126c-.108.419-.161.758-.161 1.019 0 .698.175 1.242.522 1.63s.834.584 1.454.584c.706 0 1.409-.173 2.11-.517s1.171-.768 1.406-1.27c-.621-1.365-.932-2.274-.932-2.731a1.14 1.14 0 0 1 .209-.669c.139-.2.381-.403.723-.607l.327 1.85.008.056a2.29 2.29 0 0 0 1.038.237c.078 0 .118.04.118.12v.851c0 .079-.04.118-.118.118a2.06 2.06 0 0 1-.863-.174l.019.412c0 .586-.185 1.148-.556 1.682s-.88.974-1.524 1.313-1.312.51-1.999.51z" class="C D"/><path d="M101.075 14.025c-.019-.591-.131-1.157-.334-1.697s-.406-.81-.605-.81a.89.89 0 0 0-.508.16c-.158.108-.315.273-.473.497s-.372.601-.642 1.131c.669.367 1.523.607 2.563.719m-4.79 1.089c-.079 0-.119-.039-.119-.118v-.853c0-.079.04-.118.119-.118.362 0 .666-.087.915-.261s.463-.442.644-.8l.286-.573c.366-.781.723-1.334 1.075-1.655s.735-.481 1.152-.481c.279 0 .556.169.832.51s.499.777.668 1.312.255 1.053.255 1.551c0 .292-.054.56-.161.8s-.296.468-.564.688c-.572 0-1.178-.079-1.821-.238s-1.18-.363-1.611-.614c-.223.303-.467.52-.732.653s-.577.199-.939.199" class="B"/><path d="M101.075 14.025c-.019-.591-.131-1.157-.334-1.697s-.406-.81-.605-.81a.89.89 0 0 0-.508.16c-.158.108-.315.273-.473.497s-.372.601-.642 1.131c.669.367 1.523.607 2.563.719zm-4.79 1.089c-.079 0-.119-.039-.119-.118v-.853c0-.079.04-.118.119-.118.362 0 .666-.087.915-.261s.463-.442.644-.8l.286-.573c.366-.781.723-1.334 1.075-1.655s.735-.481 1.152-.481c.279 0 .556.169.832.51s.499.777.668 1.312.255 1.053.255 1.551c0 .292-.054.56-.161.8s-.296.468-.564.688c-.572 0-1.178-.079-1.821-.238s-1.18-.363-1.611-.614c-.223.303-.467.52-.732.653s-.577.199-.939.199z" class="C D"/><path d="M107.592 12.573c.381.325.804.542 1.269.65s.975.164 1.537.174l-.368-2.305-.008-.027c-1.137.391-1.947.893-2.431 1.508h0zm2.311 1.983l-1.071-.135c-.194-.044-.399-.108-.611-.19a4.96 4.96 0 0 1-.651-.309c-.222-.126-.39-.247-.504-.364s-.171-.224-.171-.321c0-.125.065-.342.192-.649l.316-.677c.145-.265.459-.572.944-.919s.999-.629 1.543-.848l-.049-.391c.329-.298.675-.547 1.037-.748l.134 4.644c.432.252.926.377 1.482.377.08 0 .119.039.119.118v.853c0 .079-.039.118-.119.118-.574 0-1.041-.108-1.399-.325s-.563-.523-.618-.918l-.049-.3-.524.984z" class="B"/><path d="M107.592 12.573c.381.325.804.542 1.269.65s.975.164 1.537.174l-.368-2.305-.008-.027c-1.137.391-1.947.893-2.431 1.508zm2.311 1.983l-1.071-.135c-.194-.044-.399-.108-.611-.19a4.96 4.96 0 0 1-.651-.309c-.222-.126-.39-.247-.504-.364s-.171-.224-.171-.321c0-.125.065-.342.192-.649l.316-.677c.145-.265.459-.572.944-.919s.999-.629 1.543-.848l-.049-.391c.329-.298.675-.547 1.037-.748l.134 4.644c.432.252.926.377 1.482.377.08 0 .119.039.119.118v.853c0 .079-.039.118-.119.118-.574 0-1.041-.108-1.399-.325s-.563-.523-.618-.918l-.049-.3-.524.984z" class="C D"/><path d="M117.251 16.72c-.172.27-.459.594-.857.971-.412-.331-.727-.621-.941-.874.214-.195.521-.516.919-.963.084.094.377.381.879.866m-2.152.203c-.172.274-.454.601-.844.978-.426-.344-.741-.636-.946-.874.25-.233.557-.554.919-.963l.871.859m1.273-5.062c.131 0 .248.038.35.112l-.454 1.04-.236.468c.32.205.618.346.894.425a3.25 3.25 0 0 0 .901.12c.079 0 .119.039.119.118v.851c0 .079-.04.12-.119.12-.876 0-1.629-.277-2.256-.832l-.231.308c-.096.107-.441.221-1.033.342s-1.173.182-1.744.182c-.079 0-.119-.04-.119-.12v-.851c0-.079.04-.118.119-.118.59 0 1.09-.026 1.5-.077s.701-.138.871-.259.419-.501.748-1.139l.25-.46c.084-.153.231-.23.438-.23" class="B"/><path d="M117.251 16.72c-.172.27-.459.594-.857.971-.412-.331-.727-.621-.941-.874.214-.195.521-.516.919-.963.084.094.377.381.879.866zm-2.152.203c-.172.274-.454.601-.844.978-.426-.344-.741-.636-.946-.874.25-.233.557-.554.919-.963l.871.859zm1.273-5.062c.131 0 .248.038.35.112l-.454 1.04-.236.468c.32.205.618.346.894.425a3.25 3.25 0 0 0 .901.12c.079 0 .119.039.119.118v.851c0 .079-.04.12-.119.12-.876 0-1.629-.277-2.256-.832l-.231.308c-.096.107-.441.221-1.033.342s-1.173.182-1.744.182c-.079 0-.119-.04-.119-.12v-.851c0-.079.04-.118.119-.118.59 0 1.09-.026 1.5-.077s.701-.138.871-.259.419-.501.748-1.139l.25-.46c.084-.153.231-.23.438-.23z" class="C D"/><path d="M118.048 15.114c-.079 0-.119-.039-.119-.118v-.853c0-.079.04-.118.119-.118a3.49 3.49 0 0 0 1.559-.37l-.452-5.431-.14-1.907a5.84 5.84 0 0 1 .962-.796l.146 6.166.049 1.962c.43.251.926.377 1.482.377.084 0 .126.039.126.118v.853c0 .079-.041.118-.126.118-.696 0-1.242-.17-1.636-.51-.347.195-.661.329-.94.402s-.622.108-1.031.108" class="B"/><path d="M118.048 15.114c-.079 0-.119-.039-.119-.118v-.853c0-.079.04-.118.119-.118a3.49 3.49 0 0 0 1.559-.37l-.452-5.431-.14-1.907a5.84 5.84 0 0 1 .962-.796l.146 6.166.049 1.962c.43.251.926.377 1.482.377.084 0 .126.039.126.118v.853c0 .079-.041.118-.126.118-.696 0-1.242-.17-1.636-.51-.347.195-.661.329-.94.402s-.622.108-1.031.108z" class="C D"/><path d="M121.728 15.114c-.079 0-.119-.039-.119-.118v-.853c0-.079.04-.118.119-.118l1.775-.042c-.227-.149-.425-.354-.595-.615a1.49 1.49 0 0 1-.253-.831c0-.404.11-.831.331-1.278s.504-.807.852-1.082.713-.412 1.094-.412a1.94 1.94 0 0 1 .946.247c.302.166.652.422 1.051.772l-.251.454-.819-.272c-.172-.038-.362-.056-.565-.056-.585 0-1.195.174-1.83.523a2.18 2.18 0 0 0 .294 1.121c.198.338.485.61.861.814s.819.321 1.33.35c.362-.074.708-.164 1.037-.269l1.386-.506c.131.121.194.29.194.51l-.013.146c-.056.322-.254.524-.592.608l-2.569.582-1.786.242-1.876.083" class="B"/><path d="M121.728 15.114c-.079 0-.119-.039-.119-.118v-.853c0-.079.04-.118.119-.118l1.775-.042c-.227-.149-.425-.354-.595-.615a1.49 1.49 0 0 1-.253-.831c0-.404.11-.831.331-1.278s.504-.807.852-1.082.713-.412 1.094-.412a1.94 1.94 0 0 1 .946.247c.302.166.652.422 1.051.772l-.251.454-.819-.272c-.172-.038-.362-.056-.565-.056-.585 0-1.195.174-1.83.523a2.18 2.18 0 0 0 .294 1.121c.198.338.485.61.861.814s.819.321 1.33.35c.362-.074.708-.164 1.037-.269l1.386-.506c.131.121.194.29.194.51l-.013.146c-.056.322-.254.524-.592.608l-2.569.582-1.786.242-1.876.083z" class="C D"/><path d="M139.141 15.889l-.362-2.311-.797-5.058-.191-1.882c0-.321.074-.569.223-.746s.385-.3.709-.37l.043.168.465 1.529-.333.294.027.224.465 4.238.189 1.78.006.029c.306.162.656.244 1.045.244.079 0 .118.039.118.118v.853c0 .079-.039.118-.118.118a2.15 2.15 0 0 1-.975-.23l.013.467c0 .591-.181 1.156-.55 1.69s-.87.972-1.511 1.309-1.301.507-1.983.507c-.813 0-1.445-.234-1.9-.702s-.683-1.13-.683-1.986c0-.276.018-.534.053-.779a11.59 11.59 0 0 1 .226-1.071l.522.125c-.106.419-.161.759-.161 1.019 0 .698.175 1.242.522 1.63s.834.584 1.454.584a4.55 4.55 0 0 0 1.408-.238 4.48 4.48 0 0 0 1.289-.649c.371-.276.634-.576.786-.901" class="B"/><path d="M139.141 15.889l-.362-2.311-.797-5.058-.191-1.882c0-.321.074-.569.223-.746s.385-.3.709-.37l.043.168.465 1.529-.333.294.027.224.465 4.238.189 1.78.006.029c.306.162.656.244 1.045.244.079 0 .118.039.118.118v.853c0 .079-.039.118-.118.118a2.15 2.15 0 0 1-.975-.23l.013.467c0 .591-.181 1.156-.55 1.69s-.87.972-1.511 1.309-1.301.507-1.983.507c-.813 0-1.445-.234-1.9-.702s-.683-1.13-.683-1.986c0-.276.018-.534.053-.779a11.59 11.59 0 0 1 .226-1.071l.522.125c-.106.419-.161.759-.161 1.019 0 .698.175 1.242.522 1.63s.834.584 1.454.584a4.55 4.55 0 0 0 1.408-.238 4.48 4.48 0 0 0 1.289-.649c.371-.276.634-.576.786-.901z" class="C D"/><path d="M146.494 14.025c1.239 0 2.51-.407 3.809-1.222-.288-.503-.634-.894-1.037-1.177s-.802-.422-1.198-.422c-.451 0-.986.22-1.609.66s-1.296 1.089-2.026 1.951c.743.139 1.43.209 2.061.209m5.417 1.089a3.17 3.17 0 0 1-1.204-.244c-.401-.164-.727-.377-.983-.642-.423.274-.939.491-1.549.649s-1.22.238-1.828.238a10.46 10.46 0 0 1-2.117-.224c-.725-.15-1.299-.342-1.727-.58l-.244.28c-.315.35-.835.524-1.559.524-.078 0-.119-.039-.119-.118v-.853c0-.079.041-.118.119-.118.426 0 .766-.078 1.016-.234s.504-.458.758-.904l.223-.399a.49.49 0 0 1 .454-.251c.134 0 .245.044.334.133l-.425.992a5.23 5.23 0 0 0 .71.279c1.82-2.421 3.37-3.631 4.651-3.631.268 0 .6.109.996.328a4.1 4.1 0 0 1 1.058.845c.312.345.467.647.467.907a2.38 2.38 0 0 1-.55 1.543c.432.261.937.391 1.518.391.083 0 .124.039.124.118v.853c0 .079-.041.118-.124.118" class="B"/><path d="M146.494 14.025c1.239 0 2.51-.407 3.809-1.222-.288-.503-.634-.894-1.037-1.177s-.802-.422-1.198-.422c-.451 0-.986.22-1.609.66s-1.296 1.089-2.026 1.951c.743.139 1.43.209 2.061.209zm5.417 1.089a3.17 3.17 0 0 1-1.204-.244c-.401-.164-.727-.377-.983-.642-.423.274-.939.491-1.549.649s-1.22.238-1.828.238a10.46 10.46 0 0 1-2.117-.224c-.725-.15-1.299-.342-1.727-.58l-.244.28c-.315.35-.835.524-1.559.524-.078 0-.119-.039-.119-.118v-.853c0-.079.041-.118.119-.118.426 0 .766-.078 1.016-.234s.504-.458.758-.904l.223-.399a.49.49 0 0 1 .454-.251c.134 0 .245.044.334.133l-.425.992a5.23 5.23 0 0 0 .71.279c1.82-2.421 3.37-3.631 4.651-3.631.268 0 .6.109.996.328a4.1 4.1 0 0 1 1.058.845c.312.345.467.647.467.907a2.38 2.38 0 0 1-.55 1.543c.432.261.937.391 1.518.391.083 0 .124.039.124.118v.853c0 .079-.041.118-.124.118z" class="C D"/><path d="M151.983 15.114c-.079 0-.119-.039-.119-.118v-.853c0-.079.04-.118.119-.118 1.397 0 2.495-.121 3.294-.363l.792-.273c.539-.204 1.019-.344 1.436-.419a6.26 6.26 0 0 1-1.102-.712c-.385-.303-.696-.514-.936-.632a1.64 1.64 0 0 0-.735-.178c-.454 0-.863.117-1.225.35l-.334.209c-.139-.14-.207-.326-.207-.559 0-.359.157-.646.473-.866s.731-.328 1.246-.328c.301 0 .607.065.915.195s.668.345 1.076.642c.496.368.919.643 1.268.828s.701.315 1.058.394.878.118 1.559.118l-.543 1.056-.801-.078-.048-.006-.293.006c-.329 0-.644.049-.942.147s-.765.311-1.396.636c-.71.368-1.352.614-1.926.736s-1.449.186-2.628.186" class="B"/><path d="M151.983 15.114c-.079 0-.119-.039-.119-.118v-.853c0-.079.04-.118.119-.118 1.397 0 2.495-.121 3.294-.363l.792-.273c.539-.204 1.019-.344 1.436-.419a6.26 6.26 0 0 1-1.102-.712c-.385-.303-.696-.514-.936-.632a1.64 1.64 0 0 0-.735-.178c-.454 0-.863.117-1.225.35l-.334.209c-.139-.14-.207-.326-.207-.559 0-.359.157-.646.473-.866s.731-.328 1.246-.328c.301 0 .607.065.915.195s.668.345 1.076.642c.496.368.919.643 1.268.828s.701.315 1.058.394.878.118 1.559.118l-.543 1.056-.801-.078-.048-.006-.293.006c-.329 0-.644.049-.942.147s-.765.311-1.396.636c-.71.368-1.352.614-1.926.736s-1.449.186-2.628.186z" class="C D"/><path d="M162.367 10.352v.893l-.097 3.75-.655.118-.39-8.323-.006-.182c0-.303.075-.543.226-.723s.389-.302.714-.367l.041.168.467 1.529-.382.329.005.07.078 2.737" class="B"/><path d="M162.367 10.352v.893l-.097 3.75-.655.118-.39-8.323-.006-.182c0-.303.075-.543.226-.723s.389-.302.714-.367l.041.168.467 1.529-.382.329.005.07.078 2.737z" class="C D"/></g></svg>