<svg xmlns="http://www.w3.org/2000/svg" xmlns:xlink="http://www.w3.org/1999/xlink" width="127" height="52" fill="none" xmlns:v="https://vecta.io/nano"><style><![CDATA[.B{fill-rule:evenodd}.C{fill:#ff5723}]]></style><mask id="A" maskUnits="userSpaceOnUse" x="0" y="0" width="8" height="8" mask-type="alpha"><path d="M0 0H8V8H0V0Z" fill="#fff"/></mask><g mask="url(#A)" class="B C"><use xlink:href="#E"/></g><g class="B C"><use xlink:href="#E" x="24"/><use xlink:href="#E" x="48"/><use xlink:href="#E" x="72"/><use xlink:href="#E" x="96"/><use xlink:href="#E" x="119"/></g><mask id="B" maskUnits="userSpaceOnUse" x="0" y="22" width="8" height="8" mask-type="alpha"><path d="M0 22h8v8H0v-8z" fill="#fff"/></mask><g mask="url(#B)" class="B C"><use xlink:href="#E" y="22"/></g><g class="B C"><use xlink:href="#E" x="24" y="22"/><use xlink:href="#E" x="48" y="22"/><use xlink:href="#E" x="72" y="22"/><use xlink:href="#E" x="96" y="22"/><use xlink:href="#E" x="119" y="22"/></g><mask id="C" maskUnits="userSpaceOnUse" x="0" y="44" width="8" height="8" mask-type="alpha"><path d="M0 44h8v8H0v-8z" fill="#fff"/></mask><g mask="url(#C)" class="B C"><use xlink:href="#E" y="44"/></g><g class="B C"><use xlink:href="#E" x="24" y="44"/><use xlink:href="#E" x="48" y="44"/><use xlink:href="#E" x="72" y="44"/><use xlink:href="#E" x="96" y="44"/><use xlink:href="#E" x="119" y="44"/></g><defs ><path id="E" d="M8 4a4 4 0 1 1-8 0 4 4 0 1 1 8 0z"/></defs></svg>