<svg xmlns="http://www.w3.org/2000/svg" xmlns:xlink="http://www.w3.org/1999/xlink" width="127" height="52" xmlns:v="https://vecta.io/nano"><defs><filter color-interpolation-filters="auto" id="A"><feColorMatrix in="SourceGraphic" values="0 0 0 0 0.027451 0 0 0 0 0.674510 0 0 0 0 0.709804 0 0 0 1.000000 0"/></filter><path id="B" d="M0 0h8v8H0z"/><path id="C" d="M32 4a4 4 0 1 1-8 0 4 4 0 1 1 8 0"/></defs><g transform="translate(-1148 -616)" filter="url(#A)" fill="none" fill-rule="evenodd"><g transform="translate(1148 616)"><mask id="D" fill="#fff"><use xlink:href="#B"/></mask><g fill="#87c7fb"><path d="M8 4a4 4 0 1 1-8 0 4 4 0 1 1 8 0" mask="url(#D)"/><use xlink:href="#C"/><use xlink:href="#C" x="24"/><use xlink:href="#C" x="48"/><use xlink:href="#C" x="72"/><use xlink:href="#C" x="95"/></g><g transform="translate(0 22)"><mask id="E" fill="#fff"><use xlink:href="#C" href="#B"/></mask><path d="M8 4a4 4 0 1 1-8 0 4 4 0 1 1 8 0" fill="#87c7fb" mask="url(#E)"/></g><g fill="#87c7fb"><use xlink:href="#C" y="22"/><use xlink:href="#C" x="24" y="22"/><use xlink:href="#C" x="48" y="22"/><use xlink:href="#C" x="72" y="22"/><use xlink:href="#C" x="95" y="22"/></g><g transform="translate(0 44)"><mask id="F" fill="#fff"><use xlink:href="#D" href="#B"/></mask><path d="M8 4a4 4 0 1 1-8 0 4 4 0 1 1 8 0" fill="#87c7fb" mask="url(#F)"/></g><g fill="#87c7fb"><use xlink:href="#C" y="44"/><use xlink:href="#C" x="24" y="44"/><use xlink:href="#C" x="48" y="44"/><use xlink:href="#C" x="72" y="44"/><use xlink:href="#C" x="95" y="44"/></g></g></g></svg>