<svg xmlns="http://www.w3.org/2000/svg" xmlns:xlink="http://www.w3.org/1999/xlink" width="139" height="138" xmlns:v="https://vecta.io/nano"><defs><path id="A" d="M0 0h138v138H0z"/></defs><g transform="translate(.068)" fill-rule="evenodd"><mask id="B" fill="#fff"><use xlink:href="#A"/></mask><path d="M0 96.3V41.7C0 18.67 18.67 0 41.7 0h54.6C119.33 0 138 18.67 138 41.7v54.6c0 23.031-18.67 41.7-41.7 41.7H41.7C18.67 138 0 119.331 0 96.3" fill="#ff5722" mask="url(#B)"/><g fill="#eee"><path d="M46.943 103.448c-.364-.176-.877-.336-1.542-.479l-1.491-.392c-.314-.117-.538-.272-.667-.462s-.193-.464-.193-.828c0-.952.672-1.427 2.017-1.427.473 0 1.359.071 2.65.214l.094-.822c-1.184-.169-2.122-.253-2.812-.253C43 99 42 99.783 42 101.352c0 .522.093.939.282 1.252s.485.56.895.745.979.351 1.715.494c.555.1.979.209 1.27.327s.499.27.62.456.182.439.182.757c0 1.173-.665 1.757-1.993 1.757-.626 0-1.555-.075-2.784-.227l-.107.809.485.064c1.014.144 1.833.214 2.462.214 1.981 0 2.974-.897 2.974-2.692 0-.482-.087-.867-.255-1.158s-.439-.525-.801-.702m9.815 2.22c-.146.509-.395.884-.751 1.118s-.855.354-1.502.354-1.155-.121-1.516-.36-.618-.618-.761-1.139-.218-1.219-.218-2.103.072-1.594.222-2.124.406-.922.762-1.174.859-.383 1.498-.383 1.139.131 1.496.388.613.652.762 1.182.224 1.243.224 2.135-.072 1.596-.216 2.106m-.207-6.181c-.512-.326-1.198-.487-2.059-.487s-1.549.161-2.061.487-.878.817-1.1 1.478-.334 1.519-.334 2.574c0 1.062.11 1.916.328 2.56s.582 1.122 1.094 1.435 1.206.466 2.086.466 1.572-.152 2.078-.455.87-.775 1.088-1.414.326-1.497.326-2.569-.112-1.935-.337-2.597-.595-1.154-1.109-1.478m10.546 7.628h-.236L63.708 99H62v9h.913v-8.117h.225l3.19 8.117H68v-9h-.901zm9.478-.377c-.298.251-.731.376-1.3.376h-2.31v-3.251h2.248c.553 0 .992.123 1.317.371s.491.674.491 1.282c0 .565-.149.972-.446 1.222h0zm-3.61-6.855h2.148c.568 0 .982.122 1.241.359s.391.628.391 1.164c0 .53-.126.925-.378 1.189s-.64.397-1.166.397h-2.235v-3.109zm3.653 3.473c.377-.191.658-.444.84-.762s.277-.736.277-1.268c0-.796-.212-1.384-.634-1.762S76.03 99 75.15 99H72v9h3.314c.88 0 1.547-.196 2.001-.594s.685-1.016.685-1.865c0-.588-.112-1.058-.337-1.404s-.575-.605-1.043-.781h0zM83.011 99H82v9h5v-.898h-3.989zm7.814 5.788l1.342-4.93h.664l1.34 4.93h-3.347zM91.427 99L89 108h.971l.638-2.315h3.782l.638 2.315H96l-2.427-9h-2.146zM39.058 65.337c-1.408 1.499-1.763 3.191-2.144 5.002l-1.96 8.34c-1.178 2.613-3.089 4.545-6.359 4.271.49-.79.864-1.66 1.174-2.524 1.382-3.862 1.024-8.14 2.566-11.93.589-1.445 1.863-4.286 4.617-5.1 1.737-.513 3.366-.002 4.25.368-.582.285-1.389.77-2.144 1.573m4.894 17.199c-1.986.61-3.257-.061-3.257-.061-.328-.174-.603-.4-.812-.592 1.17-2.361 1.685-5.339 2.005-7.748.463-3.501 1.299-11.059 6.566-9.961.349.07-.127-.346-.141-.346h-.002c-.289-.37-1.079-.761-1.453-.988-2.277-1.397-4.834-2.204-7.422-2.804-2.776-.644-5.711-.751-8.252.716-5.449 3.144-4.726 10.154-6.144 15.559l-.002-.002c0 .008-.002.015-.005.022a14.08 14.08 0 0 1-.253.874 3.94 3.94 0 0 1-7.444-.571 4.2 4.2 0 0 0 3.634 5.708c-1.076.559-2.352.773-3.844.52-.354-.061.158.359.145.342.288.369 1.079.761 1.451.992.94.574 2.114 1.43 3.232 1.621 1.845.314 3.759.04 5.224-1.188.42-.352.776-.759 1.096-1.2.362.297.921.585 1.215.766.94.574 2.114 1.43 3.233 1.621 3.533.603 5.673-1.123 7.009-3.638a9.3 9.3 0 0 0 .569.886c.983 1.332 2.264 1.954 2.707 2.161.652.308 2.616 1.196 5.01.535a7 7 0 0 0 3.471-2.248v-.002c.359.267.845.518 1.115.683.94.577 2.112 1.432 3.232 1.623 2.92.499 4.89-.592 6.238-2.408a14.97 14.97 0 0 0 7.309 2.498 7.88 7.88 0 0 0 .585.03h.004.08c2.272 0 3.866-1.09 5.005-2.706a14.96 14.96 0 0 0 8.156 2.706l-.039-.063c2.725.344 4.585-.742 5.877-2.493.359.313.964.62 1.276.813.94.577 2.114 1.432 3.233 1.623 2.937.501 4.908-.605 6.259-2.436.359.313.964.62 1.279.813.938.577 2.112 1.432 3.233 1.623 6.91 1.18 8.486-6.546 9.164-11.681.117-.888.258-2.037.489-3.239.009.022.019.047.032.067a3.93 3.93 0 0 1 7.7-.328c.186-.472.288-.988.288-1.525 0-2.315-1.884-4.193-4.21-4.193a4.23 4.23 0 0 0-1.344.216c.886-.857 2.055-1.288 3.61-.964.349.072-.13-.344-.143-.344h-.002c-.288-.368-1.077-.761-1.451-.988-.964-.593-2.099-1.388-3.232-1.625-5.128-1.065-6.209 5.483-6.71 9.125-.677 4.896-1.791 13.23-8.399 12.604 1.605-2.474 2.237-6.021 2.603-8.807.463-3.503 1.299-11.061 6.567-9.965.347.072-.13-.344-.143-.344h-.002c-.288-.368-1.077-.761-1.451-.988-.964-.593-2.099-1.388-3.232-1.625-5.128-1.065-6.209 5.483-6.712 9.125-.676 4.896-1.789 13.23-8.397 12.604 1.603-2.474 2.237-6.021 2.603-8.807.463-3.503 1.298-11.061 6.567-9.965.348.072-.13-.344-.143-.344h-.002c-.289-.368-1.079-.761-1.451-.988-.966-.593-2.099-1.388-3.232-1.625-5.13-1.065-6.209 5.483-6.712 9.125-.589 4.26-1.507 11.12-6.086 12.421-.825.039-3.084.076-5.267-.449 1.328-2.421 1.888-5.618 2.226-8.174.46-3.503 1.298-11.061 6.565-9.965.349.072-.13-.344-.143-.344h-.002c-.288-.368-1.077-.761-1.451-.988-.964-.593-2.099-1.388-3.233-1.625-5.127-1.065-6.207 5.483-6.71 9.125-.592 4.282-1.518 11.192-6.16 12.441-1.01-.002-2.498-.071-3.991-.39 1.362-2.432 1.93-5.67 2.27-8.253.463-3.503 1.299-11.061 6.567-9.965.348.072-.132-.344-.144-.344-.29-.368-1.08-.761-1.453-.988-.964-.593-2.097-1.388-3.231-1.625-5.129-1.065-6.209 5.483-6.712 9.125-.667 4.83-1.759 13.006-8.133 12.625a9.43 9.43 0 0 0 .749-1.366c.551-1.232.921-2.52 1.219-3.83.806-3.564 1.494-7.156 2.203-10.74l4.221-21.677.164-.803.325-1.596c.959-2.28 3.216-3.88 5.852-3.88a6.34 6.34 0 0 1 6.155 4.781 6.68 6.68 0 0 0 .465-2.46c0-3.736-3.039-6.763-6.788-6.763a6.86 6.86 0 0 0-.624.03c2.119-.911 4.652-.811 6.987-.187.358.096-.149-.368-.149-.35-.292-.364-1.077-.757-1.447-.984-.999-.611-2.088-1.318-3.234-1.621-2.925-.781-6.352-.873-8.828 1.132-1.828 1.483-2.687 3.727-3.181 5.955-.66 2.973-1.199 5.975-1.78 8.965l-5.165 26.064c-.253 1.177-2.058 7.973-5.082 8.903m2.327-29.181h5.566l.148-.711h-5.713L42.336 49 38 53l4.336 4 3.95-3.644z"/><path d="M108.867 52.846H85.895v.354.352h22.972c10.712 0 19.425 8.725 19.425 19.446s-8.714 19.448-19.425 19.448H54.219l-3.842-3.846-3.842 3.846H30.133c-10.71 0-19.425-8.723-19.425-19.448s8.716-19.446 19.425-19.446h.619l3.843 3.846 4.193-4.198-4.193-4.2-3.842 3.846h-.621C19.03 52.846 10 61.885 10 72.999s9.03 20.155 20.133 20.155h16.402.001L50.377 97l3.841-3.846h54.648c11.103 0 20.133-9.04 20.133-20.155s-9.031-20.153-20.133-20.153"/><path d="M78.027 52.645H60.143l-.143.711h18.027l3.8 3.644L86 53.001 81.827 49l-3.8 3.645z"/></g></g></svg>