<svg width="540" height="481" viewBox="0 0 540 481" fill="none" xmlns="http://www.w3.org/2000/svg">
<style>
  #circle_1,#circle_10,#circle_2,#circle_3,#circle_4,#circle_5,#circle_6,#circle_7,#circle_8,#circle_9,#man{transform-origin:center;transform-box:fill-box}#circle_9,#man{animation:translateX 2s linear infinite}#circle_3,#circle_4,#circle_5{animation:sk-bounce 5s linear infinite}#circle_5,#circle_6,#circle_7{animation:spin 5s linear infinite}@keyframes spin{0%{-webkit-transform:rotate(0);-ms-transform:rotate(0);transform:rotate(0)}100%{-webkit-transform:rotate(360deg);-ms-transform:rotate(360deg);transform:rotate(360deg)}}@keyframes sk-bounce{0%,100%{transform:scale(0);-webkit-transform:scale(0)}50%{transform:scale(1);-webkit-transform:scale(1)}}@keyframes translateX{0%,100%{transform:translateX(2px)}50%{transform:translateX(-2px)}}@keyframes animationFramesOne{0%{transform:translate(0) rotate(0)}20%{transform:translate(73px,-1px) rotate(36deg)}40%{transform:translate(141px,72px) rotate(72deg)}60%{transform:translate(83px,122px) rotate(108deg)}80%{transform:translate(-40px,72px) rotate(144deg)}100%{transform:translate(0) rotate(0)}}
</style>
<g id="join_us 1">
<g id="Page-1">
<g id="Landing-Page-FAQ-More">
<g id="Group-9-Copy-3">
<g id="Asset#10">
<g id="Group">
<g id="Group_2">
<g id="Group-3">
<mask id="mask0" style="mask-type:alpha" maskUnits="userSpaceOnUse" x="413" y="429" width="8" height="8">
<g id="mask-3">
<path id="Vector" d="M413 429H421V437H413V429Z" fill="white"/>
</g>
</mask>
<g mask="url(#mask0)">
<path id="Fill-1" fill-rule="evenodd" clip-rule="evenodd" d="M421 433C421 435.209 419.209 437 417.001 437C414.791 437 413 435.209 413 433C413 430.791 414.791 429 417.001 429C419.209 429 421 430.791 421 433Z" fill="#87C7FB"/>
</g>
</g>
<path id="Fill-4" fill-rule="evenodd" clip-rule="evenodd" d="M445 433C445 435.209 443.209 437 441 437C438.79 437 437 435.209 437 433C437 430.791 438.79 429 441 429C443.209 429 445 430.791 445 433Z" fill="#87C7FB"/>
<path id="Fill-6" fill-rule="evenodd" clip-rule="evenodd" d="M469 433C469 435.209 467.209 437 465 437C462.79 437 461 435.209 461 433C461 430.791 462.79 429 465 429C467.209 429 469 430.791 469 433Z" fill="#87C7FB"/>
<path id="Fill-8" fill-rule="evenodd" clip-rule="evenodd" d="M493 433C493 435.209 491.209 437 489 437C486.79 437 485 435.209 485 433C485 430.791 486.79 429 489 429C491.209 429 493 430.791 493 433Z" fill="#87C7FB"/>
<path id="Fill-10" fill-rule="evenodd" clip-rule="evenodd" d="M517 433C517 435.209 515.209 437 513 437C510.791 437 509 435.209 509 433C509 430.791 510.791 429 513 429C515.209 429 517 430.791 517 433Z" fill="#87C7FB"/>
<path id="Fill-12" fill-rule="evenodd" clip-rule="evenodd" d="M540 433C540 435.209 538.209 437 536 437C533.791 437 532 435.209 532 433C532 430.791 533.791 429 536 429C538.209 429 540 430.791 540 433Z" fill="#87C7FB"/>
<g id="Group-16">
<mask id="mask1" style="mask-type:alpha" maskUnits="userSpaceOnUse" x="413" y="451" width="8" height="8">
<g id="mask-5">
<path id="Vector_2" d="M413 451H421V459H413V451Z" fill="white"/>
</g>
</mask>
<g mask="url(#mask1)">
<path id="Fill-14" fill-rule="evenodd" clip-rule="evenodd" d="M421 455C421 457.209 419.209 459 417.001 459C414.791 459 413 457.209 413 455C413 452.791 414.791 451 417.001 451C419.209 451 421 452.791 421 455Z" fill="#87C7FB"/>
</g>
</g>
<path id="Fill-17" fill-rule="evenodd" clip-rule="evenodd" d="M445 455C445 457.209 443.209 459 441 459C438.79 459 437 457.209 437 455C437 452.791 438.79 451 441 451C443.209 451 445 452.791 445 455Z" fill="#87C7FB"/>
<path id="Fill-19" fill-rule="evenodd" clip-rule="evenodd" d="M469 455C469 457.209 467.209 459 465 459C462.79 459 461 457.209 461 455C461 452.791 462.79 451 465 451C467.209 451 469 452.791 469 455Z" fill="#87C7FB"/>
<path id="Fill-21" fill-rule="evenodd" clip-rule="evenodd" d="M493 455C493 457.209 491.209 459 489 459C486.79 459 485 457.209 485 455C485 452.791 486.79 451 489 451C491.209 451 493 452.791 493 455Z" fill="#87C7FB"/>
<path id="Fill-23" fill-rule="evenodd" clip-rule="evenodd" d="M517 455C517 457.209 515.209 459 513 459C510.791 459 509 457.209 509 455C509 452.791 510.791 451 513 451C515.209 451 517 452.791 517 455Z" fill="#87C7FB"/>
<path id="Fill-25" fill-rule="evenodd" clip-rule="evenodd" d="M540 455C540 457.209 538.209 459 536 459C533.791 459 532 457.209 532 455C532 452.791 533.791 451 536 451C538.209 451 540 452.791 540 455Z" fill="#87C7FB"/>
<g id="Group-29">
<mask id="mask2" style="mask-type:alpha" maskUnits="userSpaceOnUse" x="413" y="473" width="8" height="8">
<g id="mask-7">
<path id="Vector_3" d="M413 473H421V481H413V473Z" fill="white"/>
</g>
</mask>
<g mask="url(#mask2)">
<path id="Fill-27" fill-rule="evenodd" clip-rule="evenodd" d="M421 477C421 479.209 419.209 481 417.001 481C414.791 481 413 479.209 413 477C413 474.791 414.791 473 417.001 473C419.209 473 421 474.791 421 477Z" fill="#87C7FB"/>
</g>
</g>
<path id="Fill-30" fill-rule="evenodd" clip-rule="evenodd" d="M445 477C445 479.209 443.209 481 441 481C438.79 481 437 479.209 437 477C437 474.791 438.79 473 441 473C443.209 473 445 474.791 445 477Z" fill="#87C7FB"/>
<path id="Fill-32" fill-rule="evenodd" clip-rule="evenodd" d="M469 477C469 479.209 467.209 481 465 481C462.79 481 461 479.209 461 477C461 474.791 462.79 473 465 473C467.209 473 469 474.791 469 477Z" fill="#87C7FB"/>
<path id="Fill-34" fill-rule="evenodd" clip-rule="evenodd" d="M493 477C493 479.209 491.209 481 489 481C486.79 481 485 479.209 485 477C485 474.791 486.79 473 489 473C491.209 473 493 474.791 493 477Z" fill="#87C7FB"/>
<path id="Fill-36" fill-rule="evenodd" clip-rule="evenodd" d="M517 477C517 479.209 515.209 481 513 481C510.791 481 509 479.209 509 477C509 474.791 510.791 473 513 473C515.209 473 517 474.791 517 477Z" fill="#87C7FB"/>
<path id="Fill-38" fill-rule="evenodd" clip-rule="evenodd" d="M540 477C540 479.209 538.209 481 536 481C533.791 481 532 479.209 532 477C532 474.791 533.791 473 536 473C538.209 473 540 474.791 540 477Z" fill="#87C7FB"/>
</g>
</g>
<g id="Asset-1">
<path id="Path" opacity="0.5" d="M487.663 412C507.335 379.267 537.436 315.138 539.777 274.694C543.238 214.906 505.738 225.123 478.367 194.086C466.429 180.551 500.853 136.379 449.958 101.005C418.382 79.0591 373.937 122.826 347.745 68.0899C320.9 11.9967 217.598 -7.62053 133.621 24.3278C5.64375 73.0373 136.929 120.717 53.673 159.257C3.86676 182.318 27.5034 232.501 32.4816 248.823C36.8164 263.04 61.3091 279.859 25.6363 316.64C-4.06219 347.264 19.2116 396.403 27.8388 412H487.663Z" fill="#FFEEE8"/>
<path id="Path_2" d="M2.086 410H529.914C531.067 410 532 411.565 532 413.499C532 415.432 531.067 417 529.914 417H2.086C0.935449 417 0 415.432 0 413.499C0 411.565 0.935449 410 2.086 410Z" fill="#F7CC7F"/>
<path id="Path_3" d="M180.672 35.3228L182.409 31.0952L179.077 27.7468L181.375 23.1386L176.671 20.6217L179.032 15.2997L175 12.4722L176.397 7L178.56 7.50089L177.518 11.5906L181.769 14.5759L179.502 19.69L184.284 22.2496L181.748 27.3361L185.002 30.6044L183.391 34.5238L186 36.2419L184.733 38L180.672 35.3228Z" fill="#50BFA5"/>
<path id="Path_4" d="M37.2067 263.511L35.1491 258.38L29.6142 257.104C29.3186 257.044 29.0862 256.824 29.0192 256.539C28.9523 256.254 29.0631 255.958 29.3029 255.781L33.7165 252.299L33.2612 246.827C33.2284 246.537 33.3733 246.256 33.6321 246.106C33.8909 245.956 34.2162 245.966 34.4649 246.131L39.2437 249.115L44.4957 247.001C44.7696 246.879 45.0919 246.923 45.3209 247.113C45.5499 247.303 45.6434 247.604 45.5605 247.884L44.0996 253.202L47.8032 257.38C48.0036 257.597 48.0559 257.906 47.9372 258.173C47.8186 258.439 47.5505 258.615 47.2503 258.624L41.5687 258.925L38.6032 263.62C38.4555 263.874 38.1687 264.021 37.8687 263.998C37.5688 263.974 37.3103 263.784 37.2067 263.511Z" fill="#F7CC7F"/>
<path id="Path_5" d="M68.85 199.319C66.1892 197.856 65.2183 194.512 66.6813 191.851C68.1443 189.19 71.4873 188.218 74.1486 189.681C76.8098 191.144 77.7817 194.487 76.3195 197.149C75.617 198.427 74.4353 199.374 73.0344 199.782C71.6335 200.189 70.1283 200.022 68.85 199.319Z" fill="#F7CC7F"/>
<path id="Path_6" d="M87.0186 200.621C85.5378 200.081 84.0329 199.385 82.4846 199.033C81.1531 198.736 80.3946 200.531 81.613 201.157C83.1083 201.924 84.8395 202.38 86.4287 202.947C87.074 203.174 87.818 202.63 87.9624 202.058C88.1406 201.357 87.6615 200.846 87.0186 200.612V200.621Z" fill="#F7CC7F"/>
<path id="Path_7" d="M85.9258 188.184C83.9779 189.152 81.9385 189.778 79.9016 190.517C78.3097 191.095 78.9989 193.25 80.6238 192.976C82.9556 192.581 85.2392 191.566 87.3396 190.52C88.0033 190.19 88.1763 189.263 87.8152 188.654C87.4158 188.02 86.581 187.813 85.9258 188.184Z" fill="#F7CC7F"/>
<path id="Path_8" d="M76.0111 186.113C76.0401 186.608 76.4562 186.994 76.9609 186.996C78.2506 187.082 79.0605 185.748 79.6379 184.789C80.2337 183.791 80.6775 182.712 80.9551 181.587C81.3726 179.937 78.7506 179.319 78.3306 180.977C77.5133 184.226 75.8486 184.598 76.0111 186.113Z" fill="#F7CC7F"/>
<path id="Path_9" d="M66.0749 181.841C67.1765 184.657 67.1345 186.304 68.3299 186.871C69.0263 187.204 69.6512 186.871 69.9081 186.118C70.2094 185.224 69.6956 184.255 69.4363 183.427C69.177 182.6 68.9424 181.831 68.6213 181.032C68.3397 180.324 67.7248 179.824 66.9789 180.058C66.3516 180.255 65.7934 181.123 66.0749 181.831V181.841Z" fill="#F7CC7F"/>
<path id="Path_10" d="M61.9198 186.402C60.355 186.067 59.8334 185.884 58.8763 186.082C58.0391 186.255 57.6662 187.465 58.3704 187.986C59.1919 188.59 59.6352 188.614 61.2678 188.964C61.7565 189.073 62.2702 188.93 62.6154 188.588C62.9606 188.245 63.0849 187.757 62.9414 187.305C62.7979 186.854 62.4085 186.509 61.9198 186.4V186.402Z" fill="#F7CC7F"/>
<path id="Path_11" d="M61.2103 194.069C58.2979 195.153 57.5725 195.296 57.133 196.19C56.8682 196.713 56.9874 197.566 57.5937 197.815C58.7189 198.273 59.3649 197.858 61.9913 196.818C62.6956 196.547 63.1669 195.832 62.9445 195.044C62.7432 194.34 61.9225 193.804 61.2103 194.069Z" fill="#F7CC7F"/>
<path id="Path_12" d="M63.0038 206.795C62.9115 207.854 64.5326 208.418 65.2179 207.632C65.9032 206.846 65.948 206.481 67.8538 202.028C68.1464 201.341 68.0198 200.545 67.2923 200.159C66.6755 199.83 65.6581 200.011 65.3629 200.703C63.3728 205.319 63.096 205.73 63.0038 206.795Z" fill="#F7CC7F"/>
<path id="Path_13" d="M73.032 204.853C73.6831 208.56 73.1495 208.643 73.8288 210.417C74.1391 211.219 75.3896 211.182 75.6811 210.377C76.0548 209.346 76.0595 208.998 75.902 207.184C75.8103 206.131 75.667 205.08 75.486 204.041C75.352 203.271 74.5246 202.846 73.9017 203.052C73.1965 203.287 72.8957 204.081 73.032 204.853Z" fill="#F7CC7F"/>
<path id="Path_14" d="M55.0278 297L50.296 299.554L51.8194 303.101L47.2415 305.777L48.1648 309.419L45 311.846L46.0874 313L50.3217 309.753L49.4471 306.299L54.2097 303.518L52.7119 300.03L57 297.715L55.0278 297Z" fill="#86B1F2"/>
<path id="Path_15" d="M120.25 41.3796C119.907 39.7224 120.325 37.9984 121.387 36.6836C122.995 34.6329 125.719 34.515 127.603 36.0069C129.783 37.732 130.854 41.6923 129.18 48.4468C123.018 51.6509 118.928 51.5228 116.748 49.8002C114.864 48.3083 114.353 45.622 115.958 43.579C116.987 42.2371 118.563 41.4296 120.25 41.3796Z" fill="#F48C7F"/>
<path id="Path_16" d="M107.359 58.7629C108.93 57.3923 110.417 55.9369 111.815 54.4037C112.235 53.9324 113.109 53.2585 112.989 52.5917C112.959 52.25 112.656 51.9903 112.299 52.0003C111.589 52.0003 111.111 52.8344 110.686 53.301C109.39 54.7147 107.85 56.2699 106.203 57.7473C105.914 58.0551 105.936 58.5279 106.252 58.81C106.575 59.0805 107.062 59.0598 107.359 58.7629Z" fill="#F48C7F"/>
<path id="Path_17" d="M133.342 36.714C133.968 35.9617 134.582 35.1988 135.199 34.4333C135.816 33.6678 136.603 32.9526 136.934 32.0493C137.062 31.7574 136.999 31.4089 136.779 31.1913C136.56 30.9736 136.234 30.938 135.979 31.1036C135.189 31.5778 134.619 32.542 134.029 33.2757C133.439 34.0095 132.798 34.8041 132.194 35.5803C131.548 36.4094 132.667 37.5298 133.342 36.7193V36.714Z" fill="#F48C7F"/>
<path id="Path_18" d="M122.963 59.963C122.264 57.6876 122.749 56.1496 122.905 54.7767C122.961 54.4607 122.791 54.1483 122.502 54.0391C122.213 53.9299 121.891 54.056 121.742 54.3369C120.684 56.0835 120.902 58.5927 121.499 60.4639C121.815 61.4503 123.271 60.9545 122.956 59.9554L122.963 59.963Z" fill="#F48C7F"/>
<path id="Path_19" d="M133.731 55.509C132.999 54.847 132.398 54.0194 131.966 53.0793C131.703 52.4935 131.294 50.4445 130.37 51.1437C129.5 51.8051 130.389 53.5113 130.757 54.2429C131.257 55.2241 131.915 56.0912 132.697 56.7995C133.464 57.4906 134.496 56.2298 133.731 55.5225V55.509Z" fill="#F48C7F"/>
<path id="Path_20" d="M135.109 44.9688L137.109 44.5987C137.776 44.4761 138.562 44.4654 138.925 43.9318C139.097 43.6412 138.963 43.29 138.622 43.1336C138.061 42.8174 137.182 43.1465 136.575 43.2627L134.577 43.6435C134.139 43.7663 133.9 44.1578 134.04 44.5235C134.193 44.8838 134.661 45.0803 135.101 44.9688H135.109Z" fill="#F48C7F"/>
<path id="Path_21" d="M111.346 42.5396C106.235 41.0077 106.255 40.9765 105.66 41.0055C105.379 41.0255 105.137 41.1882 105.042 41.4212C104.947 41.6542 105.016 41.9144 105.219 42.0863C105.678 42.4458 105.611 42.3788 110.992 43.9731C111.422 44.0982 111.898 43.7655 111.984 43.4104C112.071 43.0171 111.789 42.6337 111.346 42.5396Z" fill="#F48C7F"/>
<path id="Path_22" d="M116.887 35.7621C116.499 34.968 116.031 34.2197 115.492 33.5303C114.99 32.8871 114.303 31.8288 113.414 32.0236C113.206 32.0903 113.05 32.2726 113.008 32.4976C112.908 33.3355 113.797 33.9659 114.257 34.5604C114.756 35.2144 115.201 35.9122 115.587 36.6462C115.824 37.0099 116.294 37.1089 116.646 36.8695C116.998 36.6301 117.105 36.1392 116.887 35.7621Z" fill="#F48C7F"/>
<path id="Path_23" d="M125.863 27.296C125.694 26.951 125.268 26.9412 124.986 27.0954C124.407 27.411 124.323 28.4607 124.211 29.0798C124.084 29.8007 124.014 30.5316 124 31.2649C124.027 31.6944 124.371 32.0213 124.774 31.9989C125.172 31.9639 125.474 31.601 125.46 31.1743C125.63 28.4069 126.279 28.1524 125.863 27.296Z" fill="#F48C7F"/>
<path id="circle_4" d="M65.4304 112.748L72 117.998L69.4486 126L67.2718 125.356L69.3784 118.752L62.593 113.329L66.9727 104.814L62 101.746L63.3888 100L69.9168 104.027L65.4304 112.748Z" fill="#F7CC7F"/>
<path id="circle_3" d="M26.88 169.588C30.3298 172.538 35.8296 170.507 37.8354 166.805C40.053 162.715 38.996 157.319 35.5783 154.268C31.8821 150.964 27.023 151.323 24.2755 155.001C21.5995 158.582 23.3712 163.157 27.3852 164.249C30.2632 165.033 32.5598 163.398 32.6017 161.849C32.6386 160.641 31.3129 159.84 30.4185 160.751C30.0825 161.126 29.9938 161.667 30.1918 162.132C29.2505 162.82 27.0451 162.617 25.6431 160.854C23.8492 158.594 25.5692 155.581 27.7794 154.461C30.591 153.033 33.7277 154.574 35.5093 156.942C37.377 159.431 37.7565 163.119 36.2657 165.891C34.548 169.03 30.6818 170.192 27.5675 168.505C27.2753 168.332 26.9011 168.423 26.7174 168.712C26.5337 169.002 26.6053 169.387 26.88 169.588Z" fill="#86B1F2"/>
<path id="circle_2" d="M117 106.466L120.744 117L131 106L117 106.466Z" fill="#96D9C9"/>
<g id="circle_1">
<path id="Vector_4" d="M166.477 87.6258C168.203 93.1596 174.089 96.2468 179.624 94.5215C185.158 92.7962 188.247 86.9116 186.522 81.3772C184.797 75.8429 178.913 72.7539 173.377 74.4776C170.718 75.305 168.496 77.1556 167.202 79.6217C165.908 82.0879 165.647 84.9673 166.477 87.6258Z" fill="#F7CC7F"/>
<path id="Path_24" d="M182.765 84C183.643 86.8572 181.982 89.8657 179.037 90.7521C176.092 91.6385 172.957 90.0736 172 87.2401L182.765 84Z" fill="#EFEFEF"/>
</g>
<path id="circle_10" d="M251.947 0.632754L253.237 3.92308L248.173 6.58561L249.465 11.6328L246 14.2457L247.322 16L251.957 12.5062L250.732 7.72457L256 4.95285L254.058 0L251.947 0.632754Z" fill="#466EB6"/>
<path id="circle_9" d="M374.688 82.8909L375.77 80.2195C374.64 79.708 373.584 79.0497 372.628 78.2616C371.918 77.6677 371.792 76.6274 372.342 75.8832L372.409 75.793C372.699 75.401 373.14 75.1465 373.626 75.0905C374.112 75.0344 374.6 75.1819 374.972 75.4976C375.821 76.2331 376.785 76.8251 377.827 77.2502C379.438 77.8961 380.792 77.7183 381.248 76.5942C381.681 75.5251 381.049 74.4886 379.234 72.9464C376.619 70.7206 375.126 68.4874 376.231 65.7609C377.238 63.2873 379.773 62.048 383.028 62.6714L384.11 60L386.879 61.1091L385.873 63.5852C386.731 63.9628 387.546 64.433 388.302 64.9873C389.07 65.5661 389.228 66.6514 388.657 67.4233C388.374 67.808 387.945 68.0614 387.47 68.1252C386.995 68.189 386.515 68.0576 386.139 67.7613C385.428 67.2037 384.639 66.7509 383.798 66.4169C381.96 65.6808 381.047 66.2291 380.727 67.0177C380.352 67.9441 381.102 68.9305 383.141 70.7957C386.026 73.3244 386.756 75.415 385.732 77.9462C384.707 80.4774 382.071 81.8719 378.592 81.1308L377.429 84L374.688 82.8909Z" fill="#96D9C9"/>
<path id="circle_8" d="M135.804 171.041C136.134 171.585 136.04 172.292 135.579 172.725C134.382 173.816 132.997 174.67 131.493 175.243C128.933 176.224 126.094 176.317 123.533 175.132C121.83 174.305 120.404 172.98 119.438 171.326L117.927 171.905C117.68 172.002 117.405 171.994 117.164 171.882C116.923 171.771 116.736 171.565 116.645 171.311L116.631 171.27C116.536 171.018 116.544 170.738 116.654 170.493C116.763 170.247 116.964 170.057 117.212 169.964L118.444 169.488C118.245 169.068 118.104 168.806 118.016 168.567C117.85 168.101 117.719 167.623 117.624 167.137L116.345 167.64C116.098 167.737 115.824 167.729 115.583 167.617C115.343 167.505 115.157 167.3 115.066 167.046C114.971 166.795 114.979 166.515 115.088 166.269C115.197 166.024 115.397 165.833 115.645 165.74L117.197 165.146C116.939 163.255 117.195 161.328 117.937 159.575C119.169 156.806 121.498 154.823 124.172 153.785C125.41 153.292 126.724 153.026 128.053 153C128.773 152.994 129.37 153.569 129.406 154.304V154.329C129.423 154.695 129.295 155.052 129.052 155.321C128.809 155.591 128.471 155.749 128.112 155.761C127.078 155.812 126.059 156.032 125.093 156.413C123.307 157.057 121.843 158.399 121.025 160.144C120.498 161.298 120.339 162.591 120.569 163.842L129.293 160.496C129.539 160.4 129.814 160.408 130.054 160.52C130.295 160.632 130.481 160.837 130.572 161.091C130.666 161.342 130.658 161.623 130.549 161.868C130.439 162.114 130.238 162.304 129.99 162.397L120.872 165.891C120.993 166.342 121.118 166.792 121.214 167.069C121.345 167.427 121.476 167.781 121.69 168.242L130.821 164.743C131.345 164.542 131.929 164.813 132.127 165.347C132.323 165.884 132.058 166.482 131.533 166.684L122.792 170.034C123.426 171.014 124.311 171.797 125.35 172.3C127.255 173.151 129.009 173.11 130.949 172.368C132.001 171.964 132.986 171.398 133.869 170.689C134.162 170.453 134.54 170.355 134.908 170.422C135.275 170.488 135.598 170.712 135.794 171.036L135.804 171.041Z" fill="#86B1F2"/>
<path id="circle_7" d="M343.192 37.5518L343.985 33.7438L347.667 32.2196C347.859 32.1387 347.988 31.9597 347.999 31.7571C348.011 31.5544 347.903 31.3628 347.722 31.262L344.233 29.3543L343.874 25.4861C343.855 25.2839 343.72 25.1095 343.525 25.0361C343.33 24.9627 343.109 25.0031 342.954 25.1402L340.006 27.7699L336.104 26.905C335.897 26.8574 335.681 26.9294 335.548 27.0901C335.415 27.2508 335.389 27.4715 335.481 27.6571L337.145 31.1893L335.078 34.5234C334.97 34.6982 334.974 34.9173 335.088 35.0883C335.203 35.2593 335.407 35.3524 335.616 35.3281L339.592 34.8819L342.226 37.8074C342.363 37.9683 342.585 38.0362 342.794 37.9812C343.002 37.9261 343.157 37.7583 343.192 37.5518Z" fill="#F7CC7F"/>
<path id="circle_6" d="M307.296 8.54305L306.908 5.77777L308.881 3.88129C308.985 3.78173 309.025 3.62968 308.985 3.48923C308.944 3.34879 308.831 3.24441 308.691 3.22008L306.043 2.74852L304.906 0.224151C304.848 0.0909476 304.721 0.00394978 304.581 0.000130854C304.44 -0.00368807 304.309 0.0763429 304.245 0.206211L302.992 2.67677L300.323 3.00737C300.184 3.0257 300.067 3.12393 300.021 3.26116C299.975 3.39839 300.007 3.55111 300.104 3.65576L301.978 5.65732L301.458 8.39697C301.43 8.54037 301.483 8.68797 301.594 8.77693C301.706 8.8659 301.857 8.88057 301.983 8.81471L304.393 7.57943L306.738 8.94285C306.863 9.02283 307.022 9.01856 307.142 8.93195C307.263 8.84534 307.323 8.69277 307.296 8.54305Z" fill="#F7CC7F"/>
<path id="circle_5" d="M229.293 37.5575L228.906 34.7899L230.88 32.8875C230.984 32.7888 231.025 32.637 230.985 32.4966C230.945 32.3562 230.831 32.2518 230.693 32.2277L228.042 31.7553L226.914 29.2239C226.855 29.0907 226.729 29.0039 226.588 29.0001C226.447 28.9963 226.316 29.0761 226.25 29.2059L224.999 31.6834L222.329 32.0146C222.188 32.0303 222.069 32.1283 222.021 32.2668C221.974 32.4053 222.007 32.5597 222.106 32.6642L223.985 34.6693L223.459 37.4035C223.431 37.5472 223.484 37.695 223.596 37.7841C223.708 37.8733 223.859 37.888 223.985 37.822L226.396 36.5845L228.745 37.9503C228.869 38.0227 229.021 38.0155 229.137 37.932C229.254 37.8484 229.314 37.7031 229.293 37.5575Z" fill="#F7CC7F"/>
<path id="Path_25" d="M326.64 75.2538L324.944 73.5609C324.637 73.2548 324.141 73.2548 323.834 73.5609L322.14 75.2563C321.994 75.4039 321.794 75.4869 321.586 75.4869C321.377 75.4869 321.178 75.4039 321.031 75.2563L319.334 73.5634C319.187 73.4158 318.988 73.3328 318.779 73.3328C318.571 73.3328 318.371 73.4158 318.225 73.5634L316.531 75.2588C316.384 75.4064 316.184 75.4894 315.976 75.4894C315.768 75.4894 315.568 75.4064 315.421 75.2588L313.725 73.566C313.578 73.4183 313.378 73.3353 313.17 73.3353C312.962 73.3353 312.762 73.4183 312.615 73.566L310.921 75.2613C310.614 75.5677 310.116 75.5677 309.809 75.2613L308.115 73.5685C307.808 73.2621 307.31 73.2621 307.003 73.5685L305.309 75.2638C305.162 75.4114 304.962 75.4944 304.754 75.4944C304.546 75.4944 304.346 75.4114 304.199 75.2638L302.51 73.5836C302.364 73.4359 302.164 73.353 301.956 73.353C301.747 73.353 301.548 73.4359 301.401 73.5836L299.707 75.2789C299.56 75.4265 299.36 75.5095 299.152 75.5095C298.944 75.5095 298.744 75.4265 298.597 75.2789L296.901 73.5861C296.754 73.4385 296.554 73.3555 296.346 73.3555C296.138 73.3555 295.938 73.4385 295.791 73.5861L294.097 75.2814C293.79 75.5878 293.292 75.5878 292.985 75.2814L291.291 73.5886C290.984 73.2822 290.486 73.2822 290.179 73.5886L288.488 75.2839C288.18 75.5903 287.683 75.5903 287.375 75.2839L285.674 73.5836C285.367 73.2772 284.869 73.2772 284.562 73.5836L282.868 75.2789C282.721 75.4265 282.521 75.5095 282.313 75.5095C282.105 75.5095 281.905 75.4265 281.758 75.2789L280.062 73.5836C279.915 73.4359 279.715 73.353 279.507 73.353C279.299 73.353 279.099 73.4359 278.952 73.5836L277.258 75.2789C277.111 75.4265 276.912 75.5095 276.703 75.5095C276.495 75.5095 276.295 75.4265 276.148 75.2789L274.452 73.5861C274.305 73.4385 274.106 73.3555 273.897 73.3555C273.689 73.3555 273.489 73.4385 273.342 73.5861L271.649 75.2789C271.341 75.5853 270.844 75.5853 270.536 75.2789L268.843 73.5861C268.535 73.2797 268.038 73.2797 267.73 73.5861L266.037 75.2789C265.73 75.585 265.233 75.585 264.927 75.2789L263.23 73.5861C263.084 73.4385 262.884 73.3555 262.676 73.3555C262.467 73.3555 262.268 73.4385 262.121 73.5861L260.427 75.2789C260.12 75.585 259.624 75.585 259.317 75.2789L257.621 73.5861C257.474 73.4385 257.274 73.3555 257.066 73.3555C256.858 73.3555 256.658 73.4385 256.511 73.5861L254.817 75.2789C254.511 75.585 254.014 75.585 253.707 75.2789L252.011 73.5861C251.864 73.4385 251.665 73.3555 251.456 73.3555C251.248 73.3555 251.048 73.4385 250.901 73.5861L249.208 75.2789C248.9 75.5853 248.403 75.5853 248.095 75.2789L246.402 73.5836C246.094 73.2786 245.597 73.2786 245.289 73.5836L243.595 75.2764C243.449 75.424 243.249 75.507 243.041 75.507C242.832 75.507 242.633 75.424 242.486 75.2764L240.789 73.5836C240.483 73.2775 239.986 73.2775 239.68 73.5836L237.986 75.2764C237.839 75.424 237.639 75.507 237.431 75.507C237.223 75.507 237.023 75.424 236.876 75.2764L235.18 73.5836C234.873 73.2775 234.376 73.2775 234.07 73.5836L232.376 75.2764C232.069 75.5828 231.571 75.5828 231.264 75.2764L229.57 73.5836C229.264 73.2775 228.767 73.2775 228.46 73.5836L226.759 75.2965C226.452 75.6029 225.954 75.6029 225.647 75.2965L223.953 73.6037C223.645 73.2987 223.149 73.2987 222.841 73.6037C222.694 73.7508 222.612 73.9497 222.612 74.1571L222 210.67L329.529 211L330 73L327.75 75.2487C327.604 75.397 327.405 75.4809 327.196 75.4819C326.988 75.4828 326.788 75.4007 326.64 75.2538Z" fill="white"/>
<g id="Rectangle" style="mix-blend-mode:multiply">
<path d="M328.903 212.292L222.047 212.33L222.046 207.203L328.901 207.166L328.903 212.292Z" fill="#E3E3E3"/>
</g>
<path id="Path_26" d="M245.189 192.024L307.811 192C308.657 191.999 309.468 192.314 310.066 192.873C310.664 193.433 311 194.193 311 194.985C311 195.777 310.665 196.537 310.068 197.097C309.47 197.658 308.659 197.973 307.814 197.974L245.191 198C243.433 198.001 242.006 196.669 242 195.022C241.997 194.228 242.332 193.466 242.93 192.903C243.529 192.341 244.341 192.024 245.189 192.024Z" fill="#D4D4D4"/>
<path id="Path_27" d="M277.178 179.016L318.82 179C320.023 179 320.999 179.891 321 180.991C321 182.091 320.025 182.983 318.822 182.984L277.18 183C275.977 183 275.001 182.109 275 181.009C275 179.909 275.975 179.017 277.178 179.016Z" fill="#E0E0E0"/>
<path id="Path_28" d="M277.178 167.016L318.82 167C320.023 167 320.999 167.891 321 168.991C321.001 169.519 320.772 170.026 320.363 170.4C319.955 170.774 319.4 170.984 318.822 170.984L277.18 171C276.602 171.001 276.047 170.792 275.638 170.418C275.229 170.045 274.999 169.538 275 169.009C275 167.909 275.975 167.017 277.178 167.016Z" fill="#E0E0E0"/>
<path id="Path_29" d="M277.178 156.016L318.82 156C320.023 156 320.999 156.891 321 157.991C321.001 158.519 320.772 159.026 320.363 159.4C319.955 159.774 319.4 159.984 318.822 159.984L277.18 160C276.602 160.001 276.048 159.791 275.639 159.418C275.23 159.044 275 158.537 275 158.009C275 156.909 275.975 156.017 277.178 156.016Z" fill="#E0E0E0"/>
<path id="Path_30" d="M251.6 139.019L301.4 139C302.282 139.001 302.997 139.667 303 140.489C303 141.313 302.284 141.981 301.4 141.981L251.6 142C250.718 141.999 250.003 141.333 250 140.511C250 139.687 250.716 139.019 251.6 139.019Z" fill="#E0E0E0"/>
<path id="Path_31" d="M240.592 133.028L311.406 133C312.286 133 313 133.666 313 134.487C313 134.881 312.832 135.259 312.534 135.537C312.235 135.815 311.83 135.972 311.408 135.972L240.594 136C240.171 136.001 239.766 135.845 239.466 135.567C239.167 135.288 239 134.91 239 134.515C239 133.695 239.712 133.029 240.592 133.028Z" fill="#E0E0E0"/>
<path id="Path_32" d="M233.21 179H244.788C245.374 178.999 245.937 179.209 246.353 179.584C246.768 179.959 247.001 180.468 247 180.999C247 182.103 246.011 182.999 244.79 183H233.212C232.626 183.001 232.063 182.79 231.648 182.415C231.233 182.04 231 181.532 231 181.001C230.999 180.47 231.231 179.961 231.646 179.586C232.06 179.21 232.623 178.999 233.21 179Z" fill="#E0E0E0"/>
<path id="Path_33" d="M233.21 167H244.788C246.009 167 246.999 167.895 247 168.999C247 170.103 246.011 170.999 244.79 171H233.212C232.626 171.001 232.063 170.79 231.648 170.415C231.233 170.04 231 169.532 231 169.001C230.999 168.471 231.232 167.962 231.646 167.586C232.061 167.211 232.623 167 233.21 167Z" fill="#E0E0E0"/>
<path id="Path_34" d="M233.21 156H244.788C245.374 155.999 245.937 156.21 246.352 156.585C246.767 156.96 247 157.468 247 157.999C247.001 158.529 246.768 159.038 246.354 159.414C245.939 159.789 245.377 160 244.79 160H233.212C232.626 160.001 232.063 159.79 231.648 159.415C231.233 159.04 231 158.532 231 158.001C231 156.897 231.989 156.001 233.21 156Z" fill="#E0E0E0"/>
<path id="Path_35" d="M235.031 117.035L317.969 117C320.195 117 322 118.783 322 120.983C322 123.182 320.195 124.965 317.969 124.965L235.031 125C232.805 125 231 123.217 231 121.017C231 118.818 232.805 117.035 235.031 117.035Z" fill="#D4D4D4"/>
<path id="Path_36" d="M254.507 105.018L298.49 105C299.156 104.999 299.795 105.26 300.266 105.728C300.736 106.195 301.001 106.829 301 107.49C301.001 108.151 300.738 108.785 300.267 109.253C299.797 109.721 299.159 109.983 298.493 109.982L254.51 110C253.844 110.001 253.206 109.739 252.735 109.272C252.264 108.805 252 108.171 252 107.51C251.999 106.849 252.263 106.215 252.733 105.748C253.204 105.28 253.842 105.018 254.507 105.018Z" fill="#D4D4D4"/>
<path id="Path_37" d="M339.218 411.948L213.872 412C206.258 412.003 200.082 405.887 200.078 398.339L200 213.725C199.997 206.178 206.167 200.056 213.782 200.052L339.128 200C342.784 200 346.292 201.437 348.878 203.999C351.464 206.561 352.918 210.036 352.92 213.661L353 398.275C353.003 405.822 346.833 411.944 339.218 411.948Z" fill="#9BC1F9"/>
<g id="Path_38" style="mix-blend-mode:multiply">
<path d="M347.117 204C349.291 206.462 350.496 209.627 350.507 212.907L350.587 397.84C350.59 405.401 344.442 411.533 336.853 411.537L211.944 411.59C208.652 411.58 205.475 410.383 203 408.22C205.586 411.243 209.369 412.99 213.357 413L338.266 412.948C345.854 412.943 352.003 406.812 352 399.251L351.92 214.317C351.91 210.344 350.155 206.574 347.117 204Z" fill="#ABABAB"/>
</g>
<path id="Path_39" d="M333.185 286H218.818C216.709 286 215 284.285 215 282.169V218.828C215 216.714 216.708 215 218.815 215H333.185C334.197 215 335.168 215.404 335.883 216.122C336.599 216.841 337 217.815 337 218.831V282.172C337 284.286 335.292 286 333.185 286Z" fill="#82A2D1"/>
<path id="Path_40" d="M215.836 283.557V220.55C215.836 219.541 216.238 218.572 216.953 217.858C217.667 217.144 218.637 216.743 219.648 216.743H333.91C334.653 216.742 335.379 216.958 336 217.365C335.276 216.5 334.205 216 333.077 216H218.812C216.707 216 215 217.705 215 219.808V282.815C214.998 284.099 215.647 285.298 216.725 286C216.15 285.316 215.835 284.451 215.836 283.557Z" fill="#638AC2"/>
<path id="Path_41" d="M319.393 248H232.607C231.385 248 230.213 247.515 229.349 246.651C228.484 245.787 228 244.616 228 243.395V228.605C228 227.384 228.484 226.213 229.349 225.349C230.213 224.485 231.385 224 232.607 224H319.39C321.936 224 324 226.062 324 228.605V243.395C324 245.937 321.938 247.999 319.393 248Z" fill="#3F7885"/>
<path id="Path_42" d="M228.775 244.144V229.364C228.779 226.826 230.84 224.77 233.382 224.769H320.152C321.185 224.768 322.189 225.115 323 225.754C322.126 224.645 320.79 223.998 319.377 224H232.607C230.062 224.001 228 226.061 228 228.602V243.383C227.998 244.794 228.646 246.127 229.756 247C229.115 246.186 228.769 245.179 228.775 244.144Z" fill="#33464A"/>
<g id="Path_43" style="mix-blend-mode:multiply">
<path d="M247.277 313H221.726C219.67 312.999 218.003 311.304 218 309.212V297.801C218 295.709 219.667 294.013 221.723 294.013L247.274 294C248.263 293.999 249.212 294.398 249.911 295.11C250.61 295.821 251.002 296.787 251 297.793V309.207C251.002 310.213 250.611 311.178 249.912 311.89C249.213 312.601 248.265 313.001 247.277 313Z" fill="#C2C2C2"/>
</g>
<path id="Path_44" d="M246.279 312H220.726C219.739 312.001 218.791 311.602 218.092 310.892C217.394 310.181 217.001 309.218 217 308.212V296.793C217.001 294.7 218.667 293.003 220.724 293H246.276C247.264 292.999 248.211 293.398 248.909 294.108C249.608 294.819 250 295.783 250 296.788V308.207C250 310.3 248.335 311.997 246.279 312Z" fill="#5A818C"/>
<g id="Path_45" style="mix-blend-mode:screen">
<path d="M218.287 309.129V298.167C218.287 296.069 219.889 294.366 221.864 294.366H247.239C247.867 294.384 248.477 294.579 249 294.929C248.412 293.769 247.241 293.028 245.949 293H220.574C218.599 293 216.998 294.703 217 296.8V307.762C217.003 309.088 217.692 310.316 218.818 311C218.486 310.432 218.303 309.788 218.287 309.129Z" fill="#3B3B3B"/>
</g>
<g id="Path_46" style="mix-blend-mode:multiply">
<path d="M247.286 339H221.727C219.671 339 218.003 337.305 218 335.211V323.791C217.999 322.786 218.391 321.822 219.089 321.111C219.787 320.4 220.734 320 221.722 320H247.281C248.268 320.001 249.214 320.401 249.912 321.112C250.609 321.823 251.001 322.786 251 323.791V335.214C250.999 337.302 249.337 338.996 247.286 339Z" fill="#C2C2C2"/>
</g>
<path id="Path_47" d="M246.281 338H220.726C219.739 338.001 218.791 337.602 218.092 336.892C217.394 336.181 217.001 335.217 217 334.212V322.791C216.999 321.786 217.391 320.821 218.089 320.11C218.787 319.399 219.734 319 220.721 319H246.276C247.263 318.999 248.211 319.398 248.909 320.109C249.608 320.819 250 321.783 250 322.788V334.212C250 336.303 248.335 337.999 246.281 338Z" fill="#5A818C"/>
<g id="Path_48" style="mix-blend-mode:screen">
<path d="M218.287 335.133V324.17C218.287 322.072 219.889 320.372 221.864 320.369H247.239C247.867 320.387 248.476 320.581 249 320.929C248.413 319.77 247.242 319.029 245.952 319H220.574C218.599 319 216.998 320.701 217 322.801V333.764C216.999 335.09 217.69 336.319 218.818 337C218.485 336.434 218.303 335.791 218.287 335.133Z" fill="#3B3B3B"/>
</g>
<g id="Path_49" style="mix-blend-mode:multiply">
<path d="M247.276 366H221.724C220.736 366.001 219.789 365.602 219.091 364.892C218.392 364.181 218 363.217 218 362.212V350.793C218 348.7 219.665 347.003 221.721 347H247.274C248.261 346.999 249.209 347.398 249.908 348.108C250.606 348.819 250.999 349.782 251 350.788V362.207C251.001 363.213 250.609 364.178 249.91 364.889C249.212 365.6 248.264 366 247.276 366Z" fill="#C2C2C2"/>
</g>
<path id="Path_50" d="M246.276 364H220.724C218.667 364 217 362.303 217 360.21V348.79C216.999 347.785 217.391 346.821 218.089 346.11C218.787 345.399 219.734 345 220.721 345H246.274C248.33 345.001 249.997 346.697 250 348.79V360.202C250.003 361.209 249.611 362.175 248.913 362.888C248.214 363.601 247.265 364.001 246.276 364Z" fill="#5A818C"/>
<g id="Path_51" style="mix-blend-mode:screen">
<path d="M218.29 362.143V351.18C218.29 349.082 219.889 347.382 221.863 347.382L247.239 347.369C247.867 347.387 248.476 347.581 249 347.929C248.414 346.769 247.243 346.028 245.952 346H220.576C218.599 346 217 347.703 217 349.801V360.764C216.999 362.09 217.69 363.319 218.818 364C218.487 363.437 218.305 362.798 218.29 362.143Z" fill="#3B3B3B"/>
</g>
<g id="Path_52" style="mix-blend-mode:multiply">
<path d="M289.276 313H263.724C262.736 313.001 261.789 312.602 261.091 311.892C260.392 311.181 260 310.217 260 309.212V297.793C259.999 296.788 260.391 295.823 261.089 295.112C261.787 294.401 262.734 294.001 263.721 294H289.274C290.261 293.999 291.209 294.398 291.908 295.108C292.606 295.819 292.999 296.782 293 297.788V309.207C293.001 310.213 292.609 311.178 291.91 311.889C291.212 312.6 290.264 313 289.276 313Z" fill="#C2C2C2"/>
</g>
<path id="Path_53" d="M288.279 312H262.724C260.668 312 259.001 310.305 259 308.212V296.79C258.999 295.785 259.391 294.821 260.089 294.11C260.787 293.399 261.734 293 262.721 293H288.276C290.333 293 292 294.697 292 296.79V308.21C292.001 309.215 291.609 310.179 290.911 310.89C290.213 311.601 289.266 312 288.279 312Z" fill="#5A818C"/>
<g id="Path_54" style="mix-blend-mode:screen">
<path d="M260.287 309.131V298.168C260.287 296.07 261.889 294.369 263.863 294.369H289.239C289.867 294.387 290.476 294.581 291 294.929C290.414 293.769 289.243 293.028 287.952 293H262.576C260.599 293 259 294.703 259 296.801V307.764C258.999 309.09 259.69 310.319 260.818 311C260.484 310.434 260.302 309.79 260.287 309.131Z" fill="#3B3B3B"/>
</g>
<g id="Path_55" style="mix-blend-mode:multiply">
<path d="M289.276 339H263.724C262.736 339.001 261.789 338.602 261.091 337.892C260.392 337.181 260 336.217 260 335.212V323.793C260 321.7 261.665 320.003 263.721 320H289.274C291.33 320 292.997 321.695 293 323.788V335.207C292.999 337.3 291.333 338.997 289.276 339Z" fill="#C2C2C2"/>
</g>
<path id="Path_56" d="M288.276 338H262.724C261.736 338.001 260.789 337.602 260.091 336.892C259.392 336.181 259 335.217 259 334.212V322.793C259 320.7 260.665 319.003 262.721 319H288.274C289.261 318.999 290.209 319.398 290.908 320.108C291.606 320.819 291.999 321.782 292 322.788V334.207C292.001 335.213 291.609 336.178 290.91 336.889C290.212 337.6 289.264 338 288.276 338Z" fill="#5A818C"/>
<g id="Path_57" style="mix-blend-mode:screen">
<path d="M260.29 335.141V324.179C260.29 322.08 261.889 320.379 263.863 320.379L289.242 320.366C289.868 320.384 290.477 320.578 291 320.927C290.38 319.796 289.274 318.997 287.952 319H262.576C260.599 319 259 320.703 259 322.8V333.762C259.002 335.088 259.692 336.316 260.818 337C260.489 336.436 260.307 335.796 260.29 335.141Z" fill="#3B3B3B"/>
</g>
<g id="Path_58" style="mix-blend-mode:multiply">
<path d="M289.279 366H263.724C262.736 366.001 261.789 365.602 261.091 364.891C260.392 364.181 260 363.217 260 362.212V350.791C259.999 349.786 260.391 348.821 261.089 348.11C261.787 347.399 262.734 347 263.721 347H289.276C290.264 346.999 291.211 347.398 291.909 348.109C292.608 348.819 293 349.783 293 350.788V362.212C293 364.304 291.334 366 289.279 366Z" fill="#C2C2C2"/>
</g>
<path id="Path_59" d="M288.279 364H262.726C260.672 364.003 259.004 362.31 259 360.219V348.794C259 346.701 260.665 345.003 262.721 345H288.276C289.264 344.999 290.211 345.398 290.909 346.109C291.608 346.82 292 347.784 292 348.789V360.213C291.996 362.304 290.332 363.997 288.279 364Z" fill="#5A818C"/>
<g id="Path_60" style="mix-blend-mode:screen">
<path d="M260.29 362.129V351.167C260.29 349.069 261.889 347.366 263.863 347.366H289.242C289.869 347.383 290.478 347.578 291 347.929C290.414 346.769 289.243 346.027 287.952 346H262.576C260.601 346 259 347.703 259 349.8V360.762C259.002 362.088 259.692 363.316 260.818 364C260.485 363.432 260.304 362.788 260.29 362.129Z" fill="#3B3B3B"/>
</g>
<g id="Path_61" style="mix-blend-mode:multiply">
<path d="M289.281 391.987L263.726 392C261.67 392 260.003 390.305 260 388.212V376.79C259.999 375.785 260.391 374.821 261.089 374.11C261.787 373.399 262.734 373 263.721 373H289.276C291.333 373 293 374.697 293 376.79V388.21C292.994 390.297 291.331 391.986 289.281 391.987Z" fill="#C2C2C2"/>
</g>
<path id="Path_62" d="M288.279 391H262.726C261.739 391.001 260.791 390.602 260.092 389.892C259.394 389.181 259.001 388.217 259 387.212V375.791C259 373.697 260.667 372 262.724 372H288.276C289.264 371.999 290.211 372.398 290.909 373.109C291.608 373.819 292 374.783 292 375.788V387.209C291.999 389.301 290.334 390.997 288.279 391Z" fill="#F7CC7F"/>
<g id="Path_63" style="mix-blend-mode:screen">
<path d="M260.287 388.133V377.17C260.287 375.072 261.889 373.372 263.863 373.369H289.239C289.867 373.387 290.476 373.581 291 373.929C290.412 372.769 289.241 372.028 287.949 372H262.574C260.599 372 258.998 373.701 259 375.801V386.764C259 388.091 259.691 389.32 260.82 390C260.487 389.434 260.303 388.791 260.287 388.133Z" fill="#3B3B3B"/>
</g>
<g id="Path_64" style="mix-blend-mode:multiply">
<path d="M331.279 312.987L305.724 313C303.667 313 302 311.303 302 309.21V297.79C301.999 296.785 302.391 295.821 303.089 295.11C303.787 294.399 304.734 294 305.721 294H331.274C332.261 293.999 333.209 294.398 333.908 295.108C334.606 295.819 334.999 296.782 335 297.788V309.21C334.994 311.298 333.33 312.987 331.279 312.987Z" fill="#C2C2C2"/>
</g>
<path id="Path_65" d="M330.279 312H304.724C303.736 312.001 302.789 311.602 302.091 310.892C301.392 310.181 301 309.217 301 308.212V296.793C301 294.7 302.665 293.003 304.721 293H330.274C331.262 292.999 332.209 293.397 332.908 294.108C333.607 294.818 334 295.782 334 296.788V308.207C334 310.3 332.335 311.997 330.279 312Z" fill="#5A818C"/>
<g id="Path_66" style="mix-blend-mode:screen">
<path d="M302.29 309.141V298.179C302.29 296.082 303.889 294.379 305.863 294.379L331.242 294.366C331.869 294.383 332.478 294.578 333 294.929C332.414 293.769 331.243 293.028 329.952 293H304.576C302.601 293 301 294.703 301 296.8V307.762C301.002 309.088 301.692 310.316 302.818 311C302.489 310.436 302.307 309.796 302.29 309.141Z" fill="#3B3B3B"/>
</g>
<g id="Path_67" style="mix-blend-mode:multiply">
<path d="M250.67 277H225.333C224.714 277.001 224.12 276.758 223.683 276.324C223.245 275.889 222.999 275.3 223 274.685V271.318C223 270.039 224.043 269.001 225.33 269H250.667C251.955 269 252.999 270.036 253 271.315V274.682C253 275.961 251.957 276.999 250.67 277Z" fill="#D4D4D4"/>
</g>
<path id="Path_68" d="M248.67 277H223.333C222.714 277.001 222.12 276.758 221.683 276.324C221.245 275.889 220.999 275.3 221 274.685V271.318C221.001 270.039 222.043 269.003 223.33 269H248.67C249.957 269 251 270.036 251 271.315V274.682C251.001 275.297 250.755 275.886 250.318 276.321C249.881 276.756 249.288 277 248.67 277Z" fill="#486670"/>
<g id="Path_69" style="mix-blend-mode:multiply">
<path d="M288.67 277H263.333C262.046 276.999 261.003 275.963 261 274.685V271.318C260.999 270.703 261.245 270.114 261.682 269.679C262.119 269.244 262.712 269 263.33 269H288.667C289.956 269 291 270.038 291 271.318V274.685C290.999 275.963 289.956 276.999 288.67 277Z" fill="#D4D4D4"/>
</g>
<path id="Path_70" d="M287.67 276H262.333C261.045 276 260.001 274.964 260 273.685V270.318C260 269.039 261.043 268.001 262.33 268H287.667C288.956 268 290 269.038 290 270.318V273.685C290 274.299 289.754 274.888 289.317 275.322C288.88 275.756 288.288 276 287.67 276Z" fill="#486670"/>
<g id="Path_71" style="mix-blend-mode:multiply">
<path d="M327.67 277H302.333C301.714 277.001 301.121 276.757 300.683 276.323C300.246 275.889 300 275.299 300 274.685V271.318C299.999 270.703 300.244 270.113 300.681 269.678C301.118 269.243 301.712 268.999 302.33 269H327.667C328.286 268.999 328.879 269.243 329.317 269.677C329.754 270.111 330 270.701 330 271.315V274.682C330.001 275.297 329.756 275.887 329.319 276.322C328.882 276.757 328.288 277.001 327.67 277Z" fill="#D4D4D4"/>
</g>
<path id="Path_72" d="M326.672 276H301.333C300.045 276 299.001 274.964 299 273.685V270.318C299 269.039 300.043 268.001 301.33 268H326.667C327.286 267.999 327.879 268.243 328.317 268.677C328.754 269.111 329 269.701 329 270.315V273.682C329 274.96 327.959 275.997 326.672 276Z" fill="#486670"/>
<g id="Path_73" style="mix-blend-mode:multiply">
<path d="M331.279 339H305.726C303.67 339 302.003 337.306 302 335.215V323.801C302 321.71 303.666 320.014 305.721 320.013L331.276 320C333.333 320 335 321.696 335 323.788V335.199C335.004 336.206 334.614 337.173 333.915 337.886C333.217 338.599 332.268 339 331.279 339Z" fill="#C2C2C2"/>
</g>
<path id="Path_74" d="M330.279 338H304.726C303.738 338.001 302.791 337.603 302.092 336.893C301.393 336.183 301 335.219 301 334.214V322.801C301 320.71 302.666 319.014 304.721 319.013L330.276 319C331.264 318.999 332.211 319.398 332.909 320.108C333.608 320.818 334 321.781 334 322.786V334.199C334.003 335.205 333.612 336.171 332.914 336.884C332.216 337.597 331.268 337.999 330.279 338Z" fill="#5A818C"/>
<g id="Path_75" style="mix-blend-mode:screen">
<path d="M302.29 335.122V324.167C302.29 322.07 303.888 320.371 305.863 320.368H331.24C331.867 320.385 332.477 320.579 333 320.928C332.412 319.769 331.241 319.028 329.95 319L304.576 319.013C302.601 319.013 301 320.712 301 322.811V333.767C300.999 335.092 301.69 336.32 302.818 337C302.484 336.43 302.302 335.784 302.29 335.122Z" fill="#3B3B3B"/>
</g>
<g id="Path_76" style="mix-blend-mode:multiply">
<path d="M331.281 366H305.726C303.67 366 302.003 364.305 302 362.212V350.793C301.999 349.788 302.391 348.823 303.089 348.112C303.787 347.401 304.734 347.001 305.721 347H331.276C332.263 346.999 333.211 347.398 333.909 348.109C334.608 348.819 335 349.783 335 350.788V362.209C335.001 363.214 334.609 364.178 333.912 364.889C333.214 365.6 332.268 365.999 331.281 366Z" fill="#C2C2C2"/>
</g>
<path id="Path_77" d="M330.281 363.987L304.726 364C302.67 363.999 301.003 362.303 301 360.21V348.79C300.999 347.785 301.391 346.821 302.089 346.11C302.787 345.399 303.734 345 304.721 345H330.276C332.332 345 333.999 346.695 334 348.788V360.21C333.994 362.297 332.331 363.986 330.281 363.987Z" fill="#5A818C"/>
<g id="Path_78" style="mix-blend-mode:screen">
<path d="M302.287 362.133V351.17C302.287 349.072 303.889 347.372 305.863 347.369H331.239C331.867 347.387 332.476 347.581 333 347.929C332.413 346.77 331.242 346.029 329.952 346H304.574C302.599 346 300.998 347.703 301 349.801V360.764C301 362.091 301.691 363.32 302.82 364C302.486 363.435 302.303 362.792 302.287 362.133Z" fill="#3B3B3B"/>
</g>
<g id="Path_79" style="mix-blend-mode:multiply">
<path d="M247.279 392H221.724C220.736 392.001 219.789 391.602 219.091 390.892C218.392 390.181 218 389.217 218 388.212V376.793C218 374.7 219.665 373.003 221.721 373H247.274C248.261 372.999 249.209 373.398 249.908 374.108C250.606 374.819 250.999 375.782 251 376.788V388.207C251 390.3 249.335 391.997 247.279 392Z" fill="#C2C2C2"/>
</g>
<path id="Path_80" d="M246.274 390.979L220.723 391C219.736 391.001 218.789 390.602 218.091 389.892C217.392 389.182 217 388.218 217 387.214V375.799C216.997 374.792 217.388 373.826 218.087 373.113C218.786 372.401 219.734 372 220.723 372H246.274C247.262 371.999 248.21 372.397 248.908 373.107C249.607 373.817 250 374.781 250 375.786V387.201C249.994 389.29 248.328 390.981 246.274 390.979Z" fill="#F47458"/>
<g id="Path_81" style="mix-blend-mode:screen">
<path d="M218.29 388.129V377.167C218.29 375.067 219.889 373.366 221.863 373.366H247.242C247.868 373.384 248.477 373.578 249 373.927C248.414 372.767 247.242 372.026 245.952 372H220.576C218.601 372 217 373.703 217 375.8V386.762C217.002 388.088 217.692 389.316 218.818 390C218.485 389.432 218.304 388.788 218.29 388.129Z" fill="#3B3B3B"/>
</g>
<g id="Path_82" style="mix-blend-mode:multiply">
<path d="M331.276 392H305.724C304.736 392.001 303.789 391.602 303.091 390.892C302.392 390.181 302 389.217 302 388.212V376.793C302 374.7 303.665 373.003 305.721 373H331.274C333.33 373 334.997 374.695 335 376.788V388.207C335.001 389.213 334.609 390.178 333.91 390.889C333.212 391.6 332.264 392 331.276 392Z" fill="#C2C2C2"/>
</g>
<path id="Path_83" d="M330.276 391H304.724C303.736 391.001 302.789 390.602 302.091 389.892C301.392 389.181 301 388.217 301 387.212V375.79C301 373.698 302.666 372.001 304.721 372H330.274C331.261 371.999 332.209 372.398 332.908 373.108C333.606 373.819 333.999 374.782 334 375.788V387.202C334.003 388.209 333.611 389.175 332.913 389.888C332.214 390.601 331.265 391.001 330.276 391Z" fill="#50BFA5"/>
<g id="Path_84" style="mix-blend-mode:screen">
<path d="M302.287 388.144V377.182C302.287 375.082 303.889 373.382 305.863 373.382L331.239 373.369C331.867 373.386 332.476 373.58 333 373.929C332.413 372.77 331.242 372.029 329.952 372H304.576C302.599 372 301 373.703 301 375.8V386.762C300.999 388.089 301.689 389.319 302.818 390C302.487 389.437 302.304 388.798 302.287 388.144Z" fill="#3B3B3B"/>
</g>
<g id="man">
<path id="Path_85" d="M391.697 234.138L390.99 234.765C390.643 235.089 390.097 235.076 389.765 234.737L377.208 221.06C377.059 220.889 376.985 220.666 377.003 220.441C377.02 220.216 377.128 220.007 377.303 219.861L378.01 219.234C378.358 218.911 378.904 218.924 379.235 219.264L391.792 232.939C391.941 233.11 392.015 233.333 391.997 233.558C391.98 233.783 391.872 233.992 391.697 234.138Z" fill="#13375B"/>
<path id="Path_86" d="M433.748 222.204C432.091 220.867 419.273 226.453 419.435 228.385C419.596 230.317 410.492 249.129 410.492 249.129L394.755 236.7C394.615 236.25 393.123 231.412 393.052 230.547C392.976 229.64 390.315 228.048 389.08 228.298C387.846 228.548 390.138 230.067 390.287 230.35C390.697 231.117 389.113 231.404 389.113 231.404C389.113 231.404 384.56 228.93 384.471 227.475C384.383 226.021 383.434 222.977 382.447 223.609C381.941 223.939 381.941 226.108 382.103 227.128C381.812 225.963 381.398 224.646 380.995 224.516C380.259 224.266 379.895 225.206 380.026 225.661C380.158 226.116 381.35 231.064 381.709 231.622C382.068 232.179 389.404 238.03 390.464 239.304C390.464 239.304 410.818 262.373 412.268 262.975C413.533 263.505 418.086 255.555 422.359 250.276C426.632 244.998 438.929 226.381 433.748 222.204Z" fill="#F7A491"/>
<path id="Path_87" d="M474.604 392.48C474.604 392.48 477.305 395.153 477.366 396.133C477.427 397.113 477.61 407.622 476.504 408.602C475.397 409.582 472.161 410.278 473.204 411.382C473.991 412.216 480.043 412.036 484.055 411.814C485.228 411.747 486.695 402.27 487.159 400.878C487.834 398.856 489.472 394.299 488.869 392.89C488.571 392.201 487.142 390.789 485.13 389.473C483.015 388.086 480.978 385 480.978 385L474.604 392.48Z" fill="#F48C7F"/>
<path id="Path_88" d="M445.563 399.148C445.563 399.148 448.076 406.066 448.079 406.095C448.264 407.195 449 409.905 449 410.903C449 414.653 431.686 407.721 435.567 406.061C435.917 405.91 437.019 404.707 437.136 403.432C437.313 401.456 435.676 399 435.676 399L445.563 399.148Z" fill="#F7A491"/>
<path id="Path_89" d="M418.616 268C418.616 268 417.361 280.615 417.361 280.796C417.361 301.203 413.329 341.068 414.097 344.904C415.97 354.262 436.112 402 436.112 402L447 400.695L432.813 343.539L438.032 320.532L445.421 275.058L418.616 268Z" fill="#355389"/>
<path id="Path_90" d="M455.217 279.399L457.272 291.391L462.832 340.752L484 388.995C484 388.995 481.022 396.013 476.63 397L442.926 347.471L422 284.093L422.734 270L455.217 279.399Z" fill="#13375B"/>
<path id="Path_91" d="M414 238.445L429.3 240C429.3 240 430 227.436 430 221.441C430 214.168 429.382 204.802 428.507 205.003C426.046 205.57 422.734 206.931 420.76 209.647C413.936 219.051 414 238.445 414 238.445Z" fill="#FF5723"/>
<path id="Path_92" d="M421.174 220.49C420.855 222.687 415 282.38 415 282.38C442.741 295.729 458.049 284.76 458.049 284.76C458.049 284.76 457.139 242.839 458.229 237.133C458.948 233.359 459.845 208.273 457.39 207.571C454.241 206.668 450.628 205.712 446.691 205.307C443.328 204.96 430.27 204.759 427.942 205.538C427.934 205.538 422.517 211.257 421.174 220.49Z" fill="#FF5723"/>
<path id="Path_93" d="M484.486 390C484.486 390 478.065 408.049 475.554 408.919C474.887 409.15 471.685 409.736 471.081 411.15C470.899 411.576 471.081 413 471.081 413H484.461C484.461 413 486.153 405.046 486.821 401.554C486.821 401.554 490.363 393.016 489.97 392.241C489.577 391.466 484.486 390 484.486 390Z" fill="#184655"/>
<path id="Path_94" d="M450 412L448.045 406C448.045 406 443.941 407.696 441.887 407.408C439.832 407.12 435.828 406 435.828 406C427.635 408.62 420.923 409.892 422.144 412H450Z" fill="#184655"/>
<path id="Path_95" d="M412.003 263.978C411.845 263.882 411.694 263.776 411.552 263.66C412.099 257.658 411.99 251.844 410 249.877L410.936 248C413.243 249.688 414.338 254.173 413.908 261.456C413.839 261.963 413.737 262.467 413.604 262.963C412.937 263.658 412.329 264.107 412.003 263.978Z" fill="#F7A491"/>
<path id="Path_96" d="M484.832 282.206C484.848 282.078 484.848 281.949 484.832 281.82C484.425 277.677 481.003 242.883 480.427 241.402C479.906 240.069 464.552 218 464.552 218L457 228.338L471.765 248.133C472.094 249.393 477.421 272.879 477.421 272.879C477.421 272.879 478.514 277.166 479.005 279.725C478.781 280.343 478.562 280.925 478.368 281.404C477.922 282.31 477.389 283.171 476.777 283.974C476.117 284.864 475.015 286.806 474.891 287.325C474.735 287.93 474.453 289.186 474.295 289.945C474.136 290.704 473.914 291.584 473.879 291.995C473.777 292.385 473.616 292.756 473.401 293.097C473.266 293.334 473.29 293.63 473.462 293.842C473.635 294.054 473.92 294.137 474.179 294.052C474.715 293.873 475.133 293.175 475.39 292.741C476.117 291.513 476.505 289.272 476.686 289.39C476.867 289.509 477.502 293.311 477.602 293.742C477.703 294.173 478.468 298.586 478.899 299.393C479.329 300.2 479.906 300.066 480.052 299.56C480.18 299.126 479.576 292.948 479.576 292.948C479.576 292.948 479.501 292.159 479.843 292.406C480.185 292.653 480.747 298.261 480.986 299.08C481.225 299.9 481.769 300.341 482.245 299.678C482.806 298.874 481.839 292.925 481.839 292.925C481.839 292.925 481.731 292.169 482.048 292.247C482.365 292.325 482.766 297.098 483.012 297.509C483.259 297.921 483.883 298.072 484.183 297.383C484.533 296.571 483.624 291.269 483.624 291.269C483.624 291.269 483.669 290.848 483.876 290.986C484.082 291.125 484.702 295.177 485.112 295.553C485.194 295.64 485.308 295.69 485.428 295.69C485.548 295.69 485.662 295.64 485.744 295.553C486.499 295.048 485.343 291.185 485.354 289.269C485.364 287.353 484.48 285.202 484.744 282.922C484.757 282.779 484.802 282.426 484.832 282.206Z" fill="#F8A492"/>
<path id="Path_97" d="M477 232.204L464.006 241C464.006 241 456.679 230.011 452.747 226.1C447.823 221.197 454.544 206.185 457.717 207.035C464.814 208.935 477 232.204 477 232.204Z" fill="#FF5723"/>
<path id="Path_98" d="M446.111 192.776L448 205.782C448 205.782 441.097 221.269 436.979 219.916C433.52 218.788 435.647 205.086 435.647 205.086C435.647 205.086 437.532 197.728 436.967 194.046C436.401 190.363 446.111 192.776 446.111 192.776Z" fill="#F7A491"/>
<path id="Path_99" d="M436.254 194.137C435.662 190.298 445.837 192.803 445.837 192.803L446 193.927C445.744 194.62 445.37 195.261 444.897 195.819C442.624 198.358 439.073 199.884 436 200C436.308 197.929 436.498 195.711 436.254 194.137Z" fill="#F47458"/>
<path id="Path_100" d="M447.22 175.052C447.505 174.946 449.505 189.864 445.708 193.98C441.912 198.096 434.523 199.426 431.87 196.196C428.938 192.619 429.084 176.589 434.984 172.367C440.884 168.145 447.22 175.052 447.22 175.052Z" fill="#F7A491"/>
<path id="Path_101" d="M438.073 164.092C441.353 164.808 444.333 166.53 446.605 169.023C448.66 169.275 451.452 170.421 454.337 175.258C457.882 181.206 455.262 187.798 451.137 191.03C447.013 194.261 447.073 198 447.073 198L446.42 196.069C445.931 194.608 445.755 193.059 445.905 191.524C445.981 190.582 446.207 189.658 446.573 188.788C447.573 186.629 444.44 185.195 443.573 183.398C442.898 182.014 442.866 178.853 441.803 176.564L440.533 174.817C440.533 174.817 437.606 172.507 434.739 173.16C431.871 173.814 432.266 162.893 438.073 164.092Z" fill="#184655"/>
<path id="Path_102" d="M443.001 186.466C442.969 188.399 443.839 189.981 444.943 190C446.047 190.019 446.967 188.469 446.999 186.536C447.031 184.603 446.161 183.019 445.057 183C443.953 182.981 443.033 184.542 443.001 186.466Z" fill="#F7A491"/>
<path id="Path_103" d="M437 190.247L431 190C431 190 431.021 191.815 433.643 191.984C436.868 192.193 437 190.247 437 190.247Z" fill="white"/>
</g>
<path id="Path_104" d="M70.2903 412H67L79.2642 347L82 347.53L70.2903 412Z" fill="#0E2E35"/>
<path id="Path_105" d="M162.181 412L165 411.467L152.819 347L150 347.533L162.181 412Z" fill="#0E2E35"/>
<path id="Path_106" d="M131.29 412H128L140.262 347L143 347.53L131.29 412Z" fill="#0E2E35"/>
<path id="Path_107" d="M101.233 411.965L104 412L91.8307 347L89 347.533L101.233 411.965Z" fill="#0E2E35"/>
<path id="Path_108" d="M113.152 260.275C102.131 261.457 87.888 262.701 73.5751 287.002C57.9397 313.552 66.1707 353.214 78.5122 364.234C90.8538 375.255 131.16 388.863 165.043 368.48C165.043 368.48 185.503 356.134 175.003 335.646C158.844 304.113 161.128 297.538 153.904 285.189C146.68 272.84 136.528 257.772 113.152 260.275Z" fill="#FAE0B2"/>
<path id="Path_109" d="M73.546 286.873C83.2827 270.269 92.9844 264.419 101.658 262C98.3021 265.489 94.9018 269.979 91.4989 275.787C75.9128 302.374 84.1165 342.087 96.4172 353.125C107.325 362.91 140.155 374.731 171 363.055C169.152 365.132 167.037 366.954 164.711 368.473C130.94 388.874 90.7649 375.247 78.4668 364.221C66.1686 353.195 57.9624 313.459 73.546 286.873Z" fill="#F7CC7F"/>
<path id="Path_110" d="M148.044 300L151 309L142 305.405L148.044 300Z" fill="#F79C8D"/>
<path id="Path_111" d="M139.438 275C140.007 275.025 141.564 275.55 143.842 279.9C146.75 285.452 151 302.226 151 302.226L138.314 307L136.683 303.499L134 276.546C134 276.546 139.282 274.985 139.438 275Z" fill="#DD513A"/>
<path id="Path_112" d="M122.018 273C125.731 273 134.914 274.074 139.176 275.421C139.176 275.421 142.309 302.028 136.357 322.24C135.025 326.767 137.459 341 137.459 341L99 340.499C99 340.499 103.559 306.086 101.839 300.525C100.119 294.965 100.081 275.594 100.081 275.594C100.081 275.594 100.335 275.554 108.722 274.122C113.119 273.413 117.564 273.038 122.018 273Z" fill="#F47458"/>
<path id="Path_113" d="M117.916 390C117.916 390 118.766 399.512 120.329 402.147C121.892 404.781 120.246 409.26 120.162 409.873C120.079 410.486 116.874 411.364 111.776 410.839C106.678 410.315 106.761 409.171 107.173 407.327C107.585 405.482 110.297 403.113 110.461 401.357C110.625 399.6 108.898 393.279 108.898 393.279L117.916 390Z" fill="#F7A491"/>
<path id="Path_114" d="M133.461 332.6C133.461 332.6 159.765 331.137 165.639 334.7C171.513 338.263 164.577 345.586 164.577 345.586C164.577 345.586 143.162 354.918 107.306 356.992C98.8149 357.483 98.0848 334.808 99.6731 332.93C101.261 331.051 133.461 332.6 133.461 332.6Z" fill="#256653"/>
<path id="Path_115" d="M111.497 411.909C106.196 411.362 106.852 408.851 107.279 406.943C107.547 405.748 109.066 404.341 109.973 403C110.448 403.365 111.219 404.008 113.52 404.664C115.91 405.346 119.187 403.998 121.275 403.153C121.819 405.314 122.058 407.535 121.988 409.758C121.899 410.398 116.796 412.454 111.497 411.909Z" fill="#184655"/>
<path id="Path_116" d="M113.792 351.096C114.833 359.026 120 398.499 120 398.499L108.012 400C108.012 400 93.2686 348.469 94.0284 340.591C94.7882 332.713 100.301 332.047 100.301 332.047C100.301 332.047 111.029 330.104 113.792 351.096Z" fill="#3C8F7C"/>
<path id="Path_117" d="M99.9199 278.041C103.469 276.7 105.203 308.869 105.683 322.11C111.965 322.719 122.926 322.11 125.645 321.909C126.93 321.811 129.894 320.722 131.161 320.554C132.428 320.385 133.66 320.302 134.297 320.403C134.532 320.446 141.082 323.141 141.642 323.732C142.337 324.464 144.216 326.312 143.891 327.111C143.566 327.911 140.28 324.884 140.28 324.884L138.668 323.976C140.667 325.947 144.498 328.542 143.946 329.487C143.394 330.433 139.948 327.775 137.501 325.98C139.61 327.896 142.229 331.325 141.627 331.861C141.085 332.341 138.103 328.371 134.917 327.227C133.737 326.805 132.56 327.981 131.633 328.12C130.951 328.223 129.896 328.444 129.227 328.253L125.778 327.27C124.603 327.375 124.573 328.077 123.389 328.328C122.012 328.625 119.75 328.934 117.996 329.367C107.897 331.848 104.528 333.003 101.434 333C92.0752 332.995 91.5329 281.204 99.9199 278.041Z" fill="#F7A491"/>
<path id="Path_118" d="M93.2626 308.408C92.5825 294.78 92.6822 277.981 100.422 275.116C103.473 273.987 108.86 280.786 107.883 308.683C103.749 309.011 97.6887 309.292 93.2626 308.408Z" fill="#DD513A"/>
<path id="Path_119" d="M136 302H135.252L124 331L124.775 330.875L136 302Z" fill="#F79C8D"/>
<path id="Path_120" d="M153.461 399C153.461 399 152.41 402.255 154.294 404.41C156.179 406.565 164.019 408.674 165.048 409.84C166.076 411.006 165.999 412 165.999 412L144 411.417L144.251 405.013L145.254 400.417L153.461 399Z" fill="#F7A491"/>
<path id="Path_121" d="M155.076 404.53C155.076 404.53 149.343 406.912 146.575 405.5C143.807 404.088 143.888 403.698 143.086 404.224C142.285 404.749 142 411.242 142 411.242L167.085 412C168.83 411.958 169.713 410.638 168.294 409.506C167.322 408.721 166.197 408.198 165.558 407.835C163.597 406.679 155.076 404.53 155.076 404.53Z" fill="#184655"/>
<path id="Path_122" d="M152.332 338.32C154.06 334.723 157.987 330.045 164.897 332.863C171.486 335.553 173.255 342.159 171.176 348.923C169.096 355.688 155.408 395.46 154.931 400.927L144 401C144 401 145.988 369.495 146.474 361.896C146.943 354.572 149.343 344.54 152.332 338.32Z" fill="#3C8F7C"/>
<path id="Path_123" d="M169.671 302H133.895C132.947 302.001 132.094 302.586 131.736 303.481L120.721 330.964H100.998C100.447 330.964 100 331.42 100 331.982C100 332.544 100.447 333 100.998 333H157.136C158.681 332.999 160.081 332.072 160.711 330.633L171.801 305.346C172.119 304.61 172.052 303.76 171.623 303.086C171.193 302.411 170.459 302.003 169.671 302Z" fill="black"/>
<path id="Path_124" d="M150.949 318.345C150.695 319.432 149.63 320.16 148.553 319.97C147.475 319.779 146.804 318.742 147.051 317.655C147.297 316.568 148.37 315.84 149.445 316.03C150.52 316.221 151.196 317.256 150.949 318.345Z" fill="white"/>
<path id="Path_125" d="M131.194 239.8C130.099 239.437 129.027 239.005 127.986 238.506C126.809 237.935 125.286 237.267 124.324 237.117C122.3 236.803 118.821 237.012 116.901 239.112C114.507 241.727 110.257 239.584 111.112 253.278C112.084 268.781 120.638 267.079 120.848 266.816C121.058 266.554 128.479 256.899 128.479 256.899C128.479 256.899 131.072 262.611 131.072 262.41C131.072 262.208 144.328 244.261 131.194 239.8Z" fill="#0E2E35"/>
<path id="Path_126" d="M124.668 267.751L125.394 273.309C125.394 273.309 127.029 281.314 124.928 282.856C122.827 284.397 116 273.079 116 273.079L116.721 259L124.668 267.751Z" fill="#F7A491"/>
<path id="Path_127" d="M116 263.407C117.787 268.043 122 270.894 125 272L124.377 267.453L116.255 259L116 263.407Z" fill="#F47458"/>
<path id="Path_128" d="M124.433 244.093C129.009 243.365 133.113 246.99 132.998 251.499C132.94 253.858 132.73 256.21 132.369 258.542C131.373 264.883 126.979 270.467 124.077 269.969C121.174 269.471 113.862 263.999 115.151 254.975C115.944 249.409 119.632 244.857 124.433 244.093Z" fill="#F7A491"/>
<path id="Path_129" d="M116.956 255.851C116.727 257.219 115.665 258.17 114.584 257.974C113.503 257.779 112.815 256.515 113.044 255.148C113.272 253.781 114.334 252.832 115.415 253.025C116.497 253.218 117.186 254.484 116.956 255.851Z" fill="#F7A491"/>
<path id="Path_130" d="M115.078 252.843C115.078 252.843 118.491 253.669 119.759 251.531C121.026 249.392 125.558 244.778 131.317 246.69C137.075 248.603 126.249 242.039 125.787 242.039C125.326 242.039 119.799 242 119.799 242C119.799 242 115.535 245.414 115.382 245.791C115.23 246.168 114 250.255 114 250.255L115.078 252.843Z" fill="#0E2E35"/>
<path id="Path_131" d="M122.023 262L128 263.136C128 263.136 127.429 265.369 124.786 264.947C121.562 264.43 122.023 262 122.023 262Z" fill="white"/>
</g>
</g>
</g>
</g>
</g>
</g>
</svg>
