<?xml version="1.0" encoding="UTF-8"?>
<svg width="118px" height="76px" viewBox="0 0 118 76" version="1.1" xmlns="http://www.w3.org/2000/svg" xmlns:xlink="http://www.w3.org/1999/xlink">
    <title>@0.5xGroup 27</title>
    <g id="Symbols" stroke="none" stroke-width="1" fill="none" fill-rule="evenodd">
        <g id="Header" transform="translate(-1157.000000, -12.000000)">
            <g id="Group-27" transform="translate(1157.000000, 12.000000)">
                <path d="M36.6330443,71.5154675 C36.2965893,71.3430067 35.8235645,71.1854545 35.2095526,71.0444674 C34.5810003,70.9036643 34.1225159,70.775377 33.8324432,70.6599737 C33.5423704,70.5442023 33.3362273,70.3927239 33.2164066,70.2057227 C33.096586,70.0207461 33.0376879,69.749447 33.0376879,69.3920096 C33.0376879,68.4564513 33.6579578,67.9896845 34.900522,67.9896845 C35.3378399,67.9896845 36.1557862,68.0590737 37.3479191,68.1996927 L37.4340574,67.3926057 C36.3407628,67.2262188 35.4745937,67.1443137 34.8373907,67.1443137 C32.9914898,67.1443137 32.0684473,67.9140373 32.0684473,69.455141 C32.0684473,69.9681059 32.1545857,70.3779994 32.3290711,70.6850054 C32.5035565,70.9899867 32.7768801,71.235886 33.1552999,71.4168133 C33.5316951,71.5995813 34.0595687,71.7615508 34.7387365,71.902538 C35.2517015,72.0013762 35.6428212,72.108497 35.9119116,72.2242684 C36.1810019,72.3398558 36.3722365,72.4889414 36.4837746,72.6718934 C36.5951287,72.8528208 36.6520021,73.1029534 36.6520021,73.4162172 C36.6520021,74.5684099 36.0379902,75.1424816 34.812175,75.1424816 C34.2340541,75.1424816 33.3761675,75.068859 32.2409081,74.9195893 L32.1420698,75.7143446 L32.5898789,75.7772918 C33.5254372,75.918279 34.2824609,75.9876682 34.8626064,75.9876682 C36.6919423,75.9876682 37.6085428,75.1067746 37.6085428,73.3427788 C37.6085428,72.8695699 37.5286624,72.4911501 37.3731348,72.2051266 C37.2153985,71.919103 36.9672906,71.6899529 36.6330443,71.5154675" id="Fill-1" fill="#FF5722"></path>
                <path d="M46.4904755,73.7086827 C46.3487522,74.209316 46.1076384,74.5774286 45.7616125,74.807499 C45.4192677,75.039226 44.9315184,75.1551814 44.3038863,75.1551814 C43.6744137,75.1551814 43.1829833,75.0375694 42.8314357,74.8017933 C42.4798881,74.5663852 42.231412,74.1945915 42.0933698,73.6827308 C41.9516464,73.1749194 41.881705,72.4847082 41.881705,71.6159623 C41.881705,70.7451918 41.9516464,70.0496429 42.0970509,69.5287635 C42.2424554,69.0078841 42.4909315,68.6232063 42.8369574,68.3747303 C43.1848238,68.1244137 43.6707326,67.9990713 44.2910024,67.9990713 C44.9131128,67.9990713 45.3971809,68.1280948 45.7432068,68.380252 C46.0929139,68.6324092 46.3377088,69.020584 46.4831133,69.5414634 C46.6285178,70.0623428 46.7002997,70.7637815 46.7002997,71.6398896 C46.7002997,72.5176542 46.6303583,73.2078655 46.4904755,73.7086827 M47.3665837,69.0870283 C47.1457161,68.4371254 46.7886468,67.9530572 46.2898541,67.6348239 C45.792902,67.3145658 45.1266181,67.1560933 44.2910024,67.1560933 C43.4535461,67.1560933 42.7872622,67.3145658 42.2903101,67.6348239 C41.7951985,67.9530572 41.4381293,68.4371254 41.2227834,69.0870283 C41.009278,69.7385877 40.8988442,70.5797251 40.8988442,71.6159623 C40.8988442,72.6595617 41.0055969,73.4986745 41.2172617,74.1320123 C41.4270859,74.7631415 41.7823146,75.2345097 42.2792667,75.5418838 C42.7743782,75.8474173 43.449865,76 44.3038863,76 C45.1560671,76 45.8297133,75.8510984 46.3211437,75.5529272 C46.8162552,75.2565965 47.1659623,74.790934 47.377627,74.1633019 C47.5892918,73.5338292 47.6942039,72.6925077 47.6942039,71.6398896 C47.6942039,70.588928 47.5856107,69.7385877 47.3665837,69.0870283" id="Fill-3" fill="#FF5722"></path>
                <polygon id="Fill-5" fill="#FF5722" points="56.7754328 75.0310539 56.5273249 75.0310539 53.2220413 67.281178 51.4328297 67.281178 51.4328297 75.8762405 52.3895545 75.8762405 52.3895545 68.124156 52.6249626 68.124156 55.9679777 75.8762405 57.7194577 75.8762405 57.7194577 67.281178 56.7754328 67.281178"></polygon>
                <path d="M66.346454,74.6712053 C66.0519639,74.9104786 65.6231126,75.0301152 65.0599003,75.0301152 L62.7739206,75.0301152 L62.7739206,71.9250849 L64.9991617,71.9250849 C65.545809,71.9250849 65.9801819,72.0428809 66.3022805,72.2803136 C66.6264037,72.5159057 66.7881892,72.9245108 66.7881892,73.5042882 C66.7881892,74.0435732 66.6411282,74.4319321 66.346454,74.6712053 L66.346454,74.6712053 Z M62.7739206,68.1245057 L64.8999553,68.1245057 C65.4611431,68.1245057 65.8715887,68.2404612 66.127611,68.4666664 C66.3832653,68.6932398 66.5139453,69.0666901 66.5139453,69.5783667 C66.5139453,70.0845216 66.388787,70.4618371 66.1403109,70.7139942 C65.8918349,70.967992 65.5071572,71.0933343 64.9862777,71.0933343 L62.7739206,71.0933343 L62.7739206,68.1245057 Z M67.421343,72.1864449 C67.1967943,71.856984 66.8526089,71.608508 66.388787,71.4410167 C66.7624213,71.258801 67.0405304,71.0176872 67.2207216,70.7139942 C67.4029374,70.4139824 67.4949655,70.0110831 67.4949655,69.5029036 C67.4949655,68.7427509 67.2853254,68.1813791 66.8673334,67.8206287 C66.4497096,67.4598783 65.8055125,67.2815277 64.934742,67.2815277 L61.8170118,67.2815277 L61.8170118,75.8767743 L65.0967115,75.8767743 C65.967298,75.8767743 66.6280602,75.6890368 67.0771576,75.3098808 C67.5299362,74.9345899 67.7544849,74.3399039 67.7544849,73.5282155 C67.7544849,72.9668437 67.6440511,72.5177463 67.421343,72.1864449 L67.421343,72.1864449 Z" id="Fill-7" fill="#FF5722"></path>
                <polygon id="Fill-9" fill="#FF5722" points="72.4142022 67.281086 71.4574774 67.281086 71.4574774 75.8761485 76.1903019 75.8761485 76.1903019 75.018446 72.4142022 75.018446"></polygon>
                <path d="M80.4120204,72.8085369 L81.7169797,68.1003759 L82.3632015,68.1003759 L83.6663203,72.8085369 L80.4120204,72.8085369 Z M83.0847023,67.2815093 L80.9975035,67.2815093 L78.6377173,75.8767559 L79.5819263,75.8767559 L80.2021961,73.6662394 L83.8796416,73.6662394 L84.4999115,75.8767559 L85.4441204,75.8767559 L83.0847023,67.2815093 Z" id="Fill-11" fill="#FF5722"></path>
                <path d="M28.8140553,34.1516644 C27.4189083,35.6427047 27.0673607,37.3247955 26.6898612,39.126707 C25.1310881,46.5866941 25.0040893,46.8535758 24.748251,47.4223098 C23.5813338,50.0211852 21.6873942,51.9425493 18.4480028,51.6703299 C18.9339115,50.8842254 19.3038647,50.0191606 19.6112388,49.1596175 C20.9806179,45.318546 20.6253892,41.0629796 22.1530567,37.2935059 C22.7363312,35.8562101 23.9991417,33.0307613 26.7268565,32.2210975 C28.4477832,31.7110775 30.0619572,32.2190729 30.9380653,32.5871856 C30.361969,32.8706323 29.561324,33.3528599 28.8140553,34.1516644 M106.815287,33.7356971 C106.347784,33.7356971 105.900343,33.8111602 105.48456,33.951043 C106.362509,33.0988622 107.520223,32.6700109 109.060591,32.9921095 C109.406801,33.0640755 108.931935,32.6499488 108.919051,32.6499488 L108.917211,32.6499488 C108.631923,32.2836767 107.849684,31.8932932 107.479547,31.6669039 C106.524478,31.0779237 105.399894,30.2864815 104.277151,30.0510734 C99.1970119,28.9907249 98.1259881,35.5046625 97.629036,39.126707 C96.9588869,43.9968375 95.8545489,52.2850781 89.3078493,51.6629677 C90.898096,49.2021346 91.5238875,45.6737747 91.8864785,42.9035429 C92.3447788,39.4193566 93.1730322,31.902496 98.3926857,32.9921095 C98.736871,33.0640755 98.2640303,32.6499488 98.2511464,32.6499488 L98.2493058,32.6499488 C97.9640185,32.2836767 97.1817791,31.8932932 96.8116418,31.6669039 C95.8565735,31.0779237 94.7319894,30.2864815 93.6092457,30.0510734 C88.529107,28.9907249 87.4580832,35.5046625 86.9592905,39.126707 C86.2893255,43.9968375 85.186644,52.2850781 78.6399444,51.6629677 C80.2283505,49.2021346 80.8559826,45.6737747 81.2185736,42.9035429 C81.6768739,39.4193566 82.5051274,31.902496 87.7247808,32.9921095 C88.0689662,33.0640755 87.5961254,32.6499488 87.5832415,32.6499488 L87.5814009,32.6499488 C87.294089,32.2836767 86.5118496,31.8932932 86.1437369,31.6669039 C85.186644,31.0779237 84.0640845,30.2864815 82.9413409,30.0510734 C77.8595456,28.9907249 76.7901783,35.5046625 76.2913856,39.126707 C75.707743,43.3636837 74.7986888,50.1866519 70.2615162,51.4805679 C69.4444902,51.5192197 67.2063652,51.556215 65.0437033,51.033495 C66.359522,48.6260382 66.9137156,45.4453608 67.2485141,42.9035429 C67.7051578,39.4193566 68.5352519,31.902496 73.7532489,32.9921095 C74.0992748,33.0640755 73.6244094,32.6499488 73.6115255,32.6499488 L73.6096849,32.6499488 C73.3243976,32.2836767 72.5421582,31.8932932 72.1720209,31.6669039 C71.2169526,31.0779237 70.0923684,30.2864815 68.9696248,30.0510734 C63.8894861,28.9907249 62.8203028,35.5046625 62.3215102,39.126707 C61.7341864,43.3859545 60.81777,50.2586179 56.2182023,51.5009981 C55.2169358,51.4989735 53.7426446,51.4290321 52.2646723,51.1124552 C53.6138052,48.6941391 54.1770176,45.4731533 54.5138407,42.9035429 C54.9721409,39.4193566 55.8003944,31.902496 61.0200479,32.9921095 C61.3644173,33.0640755 60.8895519,32.6499488 60.876668,32.6499488 C60.5895401,32.2836767 59.8073007,31.8932932 59.4373475,31.6669039 C58.4820951,31.0779237 57.3593515,30.2864815 56.2366079,30.0510734 C51.1548126,28.9907249 50.0854454,35.5046625 49.5866527,39.126707 C48.9258905,43.9305772 47.8436393,52.0623699 41.5286666,51.6830298 C41.8139539,51.252338 42.0605894,50.7960624 42.2704136,50.3246941 C42.8170609,49.098879 43.183333,47.8178469 43.4778231,46.5149121 C44.2766276,42.9698032 44.9574519,39.3972698 45.6607312,35.8320987 C47.0724432,28.6485642 48.3994894,21.4480965 49.842491,14.2717402 C49.8940268,14.0048585 49.9492437,13.7381609 50.0044606,13.4729357 C50.1093727,12.9430375 50.2179659,12.4129553 50.3265592,11.8863701 C51.2762898,9.61879615 53.5125742,8.02689295 56.1243336,8.02689295 C59.0692348,8.02689295 61.5411113,10.049488 62.2221198,12.7827245 C62.520291,12.0244124 62.6822606,11.19984 62.6822606,10.3366158 C62.6822606,6.62070259 59.670915,3.60954103 55.9568423,3.60954103 C55.7470181,3.60954103 55.5406909,3.62040035 55.338413,3.63899004 C57.4384958,2.73324884 59.9469995,2.83282331 62.2607716,3.45290909 C62.6158163,3.54861838 62.1135265,3.08682105 62.1135265,3.10504263 C61.8245581,2.74263571 61.0459998,2.35225224 60.6797277,2.12586295 C59.6895047,1.51847706 58.6109346,0.815381879 57.475307,0.513529497 C54.5780763,-0.263004159 51.1824211,-0.355032324 48.7289502,1.63995424 C46.9178359,3.11424544 46.0674957,5.34684873 45.5779058,7.56288694 C44.9245059,10.5190157 44.3907425,13.5060658 43.8146462,16.4785756 C42.137893,25.1237014 40.5476463,33.7927545 38.6978802,42.4029097 C38.4475636,43.5735079 36.6585361,50.3320564 33.662099,51.2578597 C31.6945369,51.8652456 30.4355916,51.1971211 30.4355916,51.1971211 C30.1098119,51.0242922 29.8374085,50.7995594 29.6312654,50.6081409 C30.7908203,48.2595821 31.3006563,45.2982998 31.6170491,42.9017023 C32.0755335,39.4193566 32.9037869,31.902496 38.1217839,32.9939501 C38.4678098,33.0640755 37.9966256,32.6499488 37.9819011,32.6499488 L37.9800605,32.6499488 C37.6929327,32.2818361 36.9106933,31.8932932 36.540556,31.6669039 C34.2842094,30.2772786 31.7514103,29.4749771 29.1876896,28.8786346 C26.4378881,28.2379345 23.5297981,28.1311818 21.0119075,29.5909326 C15.6135353,32.7178656 16.3295144,39.6901034 14.9251646,45.0662048 L14.9233241,45.0643642 C14.9233241,45.0717265 14.9214835,45.0790887 14.9178024,45.086451 C14.9178024,45.0884756 14.9178024,45.0938132 14.9159618,45.0956538 C14.8404987,45.3883033 14.7595139,45.6737747 14.6674858,45.9551968 C14.6656452,45.9572215 14.6656452,45.958878 14.6656452,45.9627431 C14.0711432,47.3577061 12.6870396,48.3368858 11.0747062,48.3368858 C9.25052391,48.3368858 7.71751873,47.0816216 7.29234861,45.3883033 C7.11013284,45.8594875 7.00890186,46.3693236 7.00890186,46.9030869 C7.00890186,49.1117629 8.7224663,50.9175396 10.8924904,51.0647846 C9.82680428,51.6204507 8.56233729,51.833956 7.08436496,51.5817989 C6.73281737,51.5210603 7.24081284,51.9390522 7.2279289,51.9223031 C7.51321621,52.2885752 8.29729617,52.6787746 8.66540883,52.908845 C9.59673386,53.4796037 10.7599699,54.3317845 11.867989,54.5213625 C13.6956683,54.8340742 15.5914485,54.5618549 17.043653,53.3395368 C17.4596203,52.9900138 17.8128244,52.5849059 18.1295853,52.1470358 C18.4884952,52.4413419 19.0425047,52.7286538 19.3333137,52.908845 C20.2646388,53.4796037 21.4278748,54.3317845 22.5358939,54.5213625 C26.0366453,55.1213861 28.1569742,53.4041406 29.4803392,50.9028151 C29.6367871,51.1823966 29.8410896,51.5063358 30.0435516,51.7842608 C31.0172096,53.1094664 32.2871982,53.7278957 32.7252523,53.9340388 C33.37129,54.2397563 35.3167654,55.1230426 37.6892515,54.4659615 C39.4893224,53.9691935 40.6175877,52.8407442 41.1274238,52.2298612 L41.1274238,52.2278366 C41.4826525,52.4928777 41.9648801,52.7433784 42.2317618,52.9070044 C43.1629027,53.4812602 44.3244822,54.3317845 45.4343419,54.5213625 C48.3277074,55.0181305 50.2787045,53.9323822 51.6149535,52.1266056 C53.30275,53.2548709 55.7359747,54.3960201 58.8557295,54.611366 C59.0545103,54.6279311 59.2459289,54.6391586 59.4355069,54.6408151 L59.4391881,54.6408151 L59.5181482,54.6408151 C61.7693412,54.6408151 63.3485445,53.5569073 64.4768098,51.9499115 C66.2674939,53.2035192 68.9880305,54.5322218 72.5568827,54.6408151 L72.5182309,54.5782359 C75.2183372,54.9207647 77.0607411,53.8403541 78.3399326,52.0991812 C78.6951613,52.4100523 79.295185,52.7155858 79.6043996,52.9070044 C80.5357246,53.4812602 81.6989606,54.3317845 82.8069797,54.5213625 C85.7169103,55.0199711 87.669748,53.9193142 89.0078375,52.0991812 C89.3630662,52.4100523 89.9629058,52.7155858 90.274145,52.9070044 C91.2036295,53.4812602 92.3668655,54.3317845 93.4765411,54.5213625 C100.323621,55.6954578 101.884418,48.011106 102.55604,42.9035429 C102.671995,42.0200725 102.812062,40.8770827 103.040108,39.6825571 C103.049495,39.7048279 103.058698,39.7285712 103.071582,39.7488174 C103.369569,37.891689 104.978405,36.4744553 106.920015,36.4744553 C108.744198,36.4744553 110.277387,37.7280629 110.700533,39.4232217 C110.884589,38.9538781 110.986004,38.4401769 110.986004,37.9064135 C110.986004,35.6040529 109.119673,33.7356971 106.815287,33.7356971" id="Fill-13" fill="#FF5722"></path>
                <polygon id="Fill-15" fill="#00ADB5" points="36.7359502 22.3183332 32.5935784 18.1759615 28.4512066 22.3183332 32.5935784 26.460705"></polygon>
                <path d="M42.5684928,61.7308305 L97.6307845,61.7308305 C108.59502,61.7308305 117.512549,52.8133014 117.512549,41.8490658 C117.512549,30.8866707 108.59502,21.9691416 97.6307845,21.9691416 L74.9458418,21.9691416 L74.9458418,22.666715 L97.6307845,22.666715 C108.208502,22.666715 116.813135,31.273189 116.813135,41.8490658 C116.813135,52.4284396 108.208502,61.033073 97.6307845,61.033073 L42.5684928,61.033073 L42.5684928,61.7308305 Z M70.8027339,18.1755565 L66.6614664,22.3186645 L70.8027339,26.4599319 L74.9458418,22.3186645 L70.8027339,18.1755565 Z" id="Fill-17" fill="#00ADB5"></path>
                <polygon id="Fill-19" fill="#00ADB5" points="39.872086 57.2392303 35.7295302 61.3819702 36.0788691 61.731125 39.872086 65.5243419 44.0146418 61.3819702"></polygon>
                <path d="M37.8419815,61.0515707 L37.8419815,61.032981 L19.8817648,61.032981 C9.30588805,61.032981 0.699414054,52.4283475 0.699414054,41.8489737 C0.699414054,31.273097 9.30588805,22.666623 19.8817648,22.666623 L20.4928318,22.666623 L24.2880733,26.460024 L28.4293408,22.3187565 L24.2880733,18.1756486 L20.4946724,21.9690495 L19.8817648,21.9690495 C8.91752919,21.9690495 0,30.8865787 0,41.8489737 C0,52.8132093 8.91752919,61.7307385 19.8817648,61.7307385 L37.8419815,61.7307385 L37.8419815,61.7123329 L37.8419815,61.0515707 Z" id="Fill-21" fill="#00ADB5"></path>
                <path d="M35.0149131,21.9505703 L41.8268378,21.9505703 C41.7789832,22.1953652 41.7329691,22.4420007 41.6851145,22.6867956 L35.0149131,22.6867956 L35.0149131,21.9505703 Z" id="Fill-23" fill="#00ADB5"></path>
                <path d="M69.6026682,21.9505703 L69.6026682,22.6867956 L49.1302666,22.6867956 C49.1762807,22.4420007 49.2239513,22.1953652 49.27199,21.9505703 L69.6026682,21.9505703 Z" id="Fill-25" fill="#00ADB5"></path>
            </g>
        </g>
    </g>
</svg>