<?xml version="1.0" encoding="UTF-8"?>
<svg width="815px" height="435px" viewBox="0 0 815 435" version="1.1" xmlns="http://www.w3.org/2000/svg" xmlns:xlink="http://www.w3.org/1999/xlink">
    <title>@0.5xAsset#12</title>
    <defs>
        <path d="M803.163368,162.708466 C803.163368,162.708466 787.025619,77.3813717 696.40595,29.6984741 C605.786281,-17.9831819 495.304767,-5.4351163 449.374249,47.2665109 C403.443732,99.9681382 407.167828,192.823327 358.75458,190.313962 C310.341332,187.804597 291.720852,121.299601 224.687125,163.962528 C157.653397,206.626696 192.411626,264.347053 187.446165,300.735946 C182.480703,337.126082 125.377898,280.659786 79.4473811,295.717217 C33.5168639,310.774647 12.4136533,353.437574 17.3791146,378.533705 C22.3445759,403.629836 0,435 0,435 L810.61156,435 C810.61156,435 823.025214,271.876389 803.163368,162.708466" id="path-1"></path>
    </defs>
    <g id="Page-1" stroke="none" stroke-width="1" fill="none" fill-rule="evenodd">
        <g id="Landing-Page-#2" transform="translate(-629.000000, -2898.000000)">
            <g id="Group-4" transform="translate(0.000000, 2866.000000)">
                <g id="Asset#12" transform="translate(629.000000, 32.000000)">
                    <mask id="mask-2" fill="white">
                        <use xlink:href="#path-1"></use>
                    </mask>
                    <use id="Mask" fill="#FFEEE8" xlink:href="#path-1"></use>
                    <g id="Group-16" mask="url(#mask-2)" stroke="#FFFFFF" stroke-width="1.6">
                        <g transform="translate(369.000000, 208.000000)">
                            <line x1="496.508" y1="0" x2="0" y2="297.905" id="Stroke-1"></line>
                            <line x1="503.6252" y1="13.4443" x2="7.1172" y2="311.3493" id="Stroke-3"></line>
                            <line x1="510.7434" y1="26.8886" x2="14.2344" y2="324.7936" id="Stroke-4"></line>
                            <line x1="517.8606" y1="40.3339" x2="21.3526" y2="338.2379" id="Stroke-5"></line>
                            <line x1="524.9788" y1="53.7783" x2="28.4698" y2="351.6823" id="Stroke-6"></line>
                            <line x1="532.096" y1="67.2226" x2="35.588" y2="365.1266" id="Stroke-7"></line>
                            <line x1="539.2141" y1="80.667" x2="42.7051" y2="378.571" id="Stroke-8"></line>
                            <line x1="546.3313" y1="94.1113" x2="49.8233" y2="392.0153" id="Stroke-9"></line>
                            <line x1="553.4485" y1="107.5556" x2="56.9405" y2="405.4596" id="Stroke-10"></line>
                            <line x1="560.5667" y1="121" x2="64.0577" y2="418.904" id="Stroke-11"></line>
                            <line x1="567.6838" y1="134.4443" x2="71.1758" y2="432.3483" id="Stroke-12"></line>
                            <line x1="574.802" y1="147.8886" x2="78.293" y2="445.7926" id="Stroke-13"></line>
                            <line x1="581.9192" y1="161.333" x2="85.4112" y2="459.237" id="Stroke-14"></line>
                        </g>
                    </g>
                </g>
            </g>
        </g>
    </g>
</svg>